G04 #@! TF.FileFunction,Copper,L2,Bot,Signal*
%FSLAX46Y46*%
G04 Gerber Fmt 4.6, Leading zero omitted, Abs format (unit mm)*
G04 Created by KiCad (PCBNEW 4.0.7) date 06/05/18 15:50:16*
%MOMM*%
%LPD*%
G01*
G04 APERTURE LIST*
%ADD10C,0.100000*%
%ADD11C,1.524000*%
%ADD12O,1.524000X2.199640*%
%ADD13O,1.524000X2.197100*%
%ADD14O,1.998980X1.539240*%
%ADD15O,1.998980X1.536700*%
%ADD16R,1.700000X1.700000*%
%ADD17O,1.700000X1.700000*%
%ADD18R,1.524000X2.199640*%
%ADD19R,2.400000X2.400000*%
%ADD20O,2.400000X2.400000*%
%ADD21R,1.600000X1.600000*%
%ADD22O,1.600000X1.600000*%
%ADD23C,0.600000*%
%ADD24C,1.400000*%
%ADD25C,0.800000*%
%ADD26C,1.000000*%
%ADD27C,1.400000*%
%ADD28C,0.800000*%
%ADD29C,0.254000*%
G04 APERTURE END LIST*
D10*
D11*
X146862800Y-85170100D03*
X146862800Y-87710100D03*
X146862800Y-90250100D03*
X146862800Y-92790100D03*
D12*
X71019200Y-61748800D03*
X73559200Y-61748800D03*
X76099200Y-61748800D03*
X78639200Y-61748800D03*
X81179200Y-61748800D03*
X83719200Y-61748800D03*
X86259200Y-61748800D03*
X88799200Y-61748800D03*
X93879200Y-61748800D03*
X96419200Y-61748800D03*
X98959200Y-61748800D03*
X101499200Y-61748800D03*
X104039200Y-61748800D03*
X106579200Y-61748800D03*
X109119200Y-61748800D03*
X111659200Y-61748800D03*
X116739200Y-61748800D03*
X119279200Y-61748800D03*
X121819200Y-61748800D03*
D13*
X124359200Y-61748800D03*
X126899200Y-61748800D03*
X129439200Y-61748800D03*
X131979200Y-61748800D03*
X134519200Y-61748800D03*
D14*
X136810280Y-66828800D03*
X136810280Y-69368800D03*
X136810280Y-71908800D03*
X136810280Y-74448800D03*
X136810280Y-76988800D03*
X136810280Y-79528800D03*
X136810280Y-82068800D03*
X136810280Y-84608800D03*
X136810280Y-87148800D03*
X136810280Y-89688800D03*
X136810280Y-92228800D03*
X136810280Y-94768800D03*
X136810280Y-97308800D03*
X136810280Y-99848800D03*
X136810280Y-102388800D03*
X136810280Y-104928800D03*
X136810280Y-107468800D03*
X136810280Y-110008800D03*
D15*
X139845580Y-66828800D03*
X139845580Y-69368800D03*
X139845580Y-71908800D03*
X139845580Y-74448800D03*
X139845580Y-76988800D03*
X139845580Y-79528800D03*
X139845580Y-82068800D03*
X139845580Y-84608800D03*
X139845580Y-87148800D03*
X139845580Y-89688800D03*
X139845580Y-92228800D03*
X139845580Y-94768800D03*
X139845580Y-97308800D03*
X139845580Y-99848800D03*
X139845580Y-102388800D03*
X139845580Y-104928800D03*
X139845580Y-107468800D03*
X139845580Y-110008800D03*
D13*
X129439200Y-110008800D03*
X126899200Y-110008800D03*
X124359200Y-110008800D03*
X121819200Y-110008800D03*
X119279200Y-110008800D03*
X116739200Y-110008800D03*
X114199200Y-110008800D03*
X111659200Y-110008800D03*
X106579200Y-110008800D03*
X104039200Y-110008800D03*
X101499200Y-110008800D03*
X98959200Y-110008800D03*
X96419200Y-110008800D03*
X93879200Y-110008800D03*
X91339200Y-110008800D03*
X88799200Y-110008800D03*
X84735200Y-110008800D03*
X82195200Y-110008800D03*
X79655200Y-110008800D03*
X77115200Y-110008800D03*
X74575200Y-110008800D03*
X72035200Y-110008800D03*
X69495200Y-110008800D03*
X66955200Y-110008800D03*
X64415200Y-110008800D03*
X61875200Y-110008800D03*
D11*
X55231540Y-115721640D03*
X57771540Y-115721640D03*
X60311540Y-115721640D03*
X62851540Y-115721640D03*
X65391540Y-115721640D03*
X67931540Y-115721640D03*
X70471540Y-115721640D03*
X73011540Y-115721640D03*
X75551540Y-115721640D03*
X78091540Y-115721640D03*
D16*
X61870000Y-109970000D03*
D17*
X64410000Y-109970000D03*
X66950000Y-109970000D03*
X69490000Y-109970000D03*
X72030000Y-109970000D03*
X74570000Y-109970000D03*
X77110000Y-109970000D03*
X79650000Y-109970000D03*
X82190000Y-109970000D03*
X84730000Y-109970000D03*
D18*
X88809200Y-109998800D03*
D12*
X91349200Y-109998800D03*
X93889200Y-109998800D03*
X96429200Y-109998800D03*
X98969200Y-109998800D03*
X101509200Y-109998800D03*
X104049200Y-109998800D03*
X106589200Y-109998800D03*
D18*
X111669200Y-110008800D03*
D12*
X114209200Y-110008800D03*
X116749200Y-110008800D03*
X119289200Y-110008800D03*
X121829200Y-110008800D03*
X124369200Y-110008800D03*
X126909200Y-110008800D03*
X129449200Y-110008800D03*
D16*
X137079200Y-66898800D03*
D17*
X139619200Y-66898800D03*
X137079200Y-69438800D03*
X139619200Y-69438800D03*
X137079200Y-71978800D03*
X139619200Y-71978800D03*
X137079200Y-74518800D03*
X139619200Y-74518800D03*
X137079200Y-77058800D03*
X139619200Y-77058800D03*
X137079200Y-79598800D03*
X139619200Y-79598800D03*
X137079200Y-82138800D03*
X139619200Y-82138800D03*
X137079200Y-84678800D03*
X139619200Y-84678800D03*
X137079200Y-87218800D03*
X139619200Y-87218800D03*
X137079200Y-89758800D03*
X139619200Y-89758800D03*
X137079200Y-92298800D03*
X139619200Y-92298800D03*
X137079200Y-94838800D03*
X139619200Y-94838800D03*
X137079200Y-97378800D03*
X139619200Y-97378800D03*
X137079200Y-99918800D03*
X139619200Y-99918800D03*
X137079200Y-102458800D03*
X139619200Y-102458800D03*
X137079200Y-104998800D03*
X139619200Y-104998800D03*
X137079200Y-107538800D03*
X139619200Y-107538800D03*
X137079200Y-110078800D03*
X139619200Y-110078800D03*
D18*
X93879200Y-61748800D03*
D12*
X96419200Y-61748800D03*
X98959200Y-61748800D03*
X101499200Y-61748800D03*
X104039200Y-61748800D03*
X106579200Y-61748800D03*
X109119200Y-61748800D03*
X111659200Y-61748800D03*
D18*
X116739200Y-61748800D03*
D12*
X119279200Y-61748800D03*
X121819200Y-61748800D03*
X124359200Y-61748800D03*
X126899200Y-61748800D03*
X129439200Y-61748800D03*
X131979200Y-61748800D03*
X134519200Y-61748800D03*
D18*
X71019200Y-61748800D03*
D12*
X73559200Y-61748800D03*
X76099200Y-61748800D03*
X78639200Y-61748800D03*
X81179200Y-61748800D03*
X83719200Y-61748800D03*
X86259200Y-61748800D03*
X88799200Y-61748800D03*
D11*
X86500000Y-118310000D03*
X89040000Y-118310000D03*
X91580000Y-118310000D03*
X94120000Y-118310000D03*
X96660000Y-118310000D03*
X99200000Y-118310000D03*
X101740000Y-118310000D03*
X104280000Y-118310000D03*
D19*
X161890000Y-148090000D03*
D20*
X164430000Y-148090000D03*
D19*
X70520000Y-151550000D03*
D20*
X67980000Y-151550000D03*
D19*
X121412000Y-152146000D03*
D20*
X121412000Y-149606000D03*
D11*
X209690000Y-81960000D03*
X209690000Y-87040000D03*
X209690000Y-92120000D03*
X209740000Y-97280000D03*
X209740000Y-102360000D03*
X209740000Y-107440000D03*
X209800000Y-112810000D03*
X209800000Y-117890000D03*
X209800000Y-122970000D03*
X209850000Y-128230000D03*
X209850000Y-133310000D03*
X209850000Y-138390000D03*
X161900000Y-134110000D03*
X161900000Y-143110000D03*
X162010000Y-122370000D03*
X162010000Y-131370000D03*
X177240000Y-148190000D03*
X168240000Y-148190000D03*
X187990000Y-135110000D03*
X187990000Y-144110000D03*
X83040000Y-151730000D03*
X74040000Y-151730000D03*
X74220000Y-138860000D03*
X74220000Y-147860000D03*
X82788000Y-128738000D03*
X91788000Y-128738000D03*
X95012000Y-155996000D03*
X86012000Y-155996000D03*
X86090000Y-151090000D03*
X95090000Y-151090000D03*
X94194000Y-147336000D03*
X94194000Y-138336000D03*
X100878000Y-147304000D03*
X100878000Y-156304000D03*
X92186000Y-142708000D03*
X101186000Y-142708000D03*
X101616000Y-134660000D03*
X92616000Y-134660000D03*
X108474000Y-128818000D03*
X99474000Y-128818000D03*
X120412000Y-117388000D03*
X111412000Y-117388000D03*
X134382000Y-152186000D03*
X125382000Y-152186000D03*
X109204000Y-151598000D03*
X118204000Y-151598000D03*
X109204000Y-156678000D03*
X118204000Y-156678000D03*
X122134000Y-145558000D03*
X122134000Y-136558000D03*
D21*
X161290000Y-115189000D03*
D22*
X179070000Y-107569000D03*
X163830000Y-115189000D03*
X176530000Y-107569000D03*
X166370000Y-115189000D03*
X173990000Y-107569000D03*
X168910000Y-115189000D03*
X171450000Y-107569000D03*
X171450000Y-115189000D03*
X168910000Y-107569000D03*
X173990000Y-115189000D03*
X166370000Y-107569000D03*
X176530000Y-115189000D03*
X163830000Y-107569000D03*
X179070000Y-115189000D03*
X161290000Y-107569000D03*
D21*
X131318000Y-128422400D03*
D22*
X138938000Y-146202400D03*
X131318000Y-130962400D03*
X138938000Y-143662400D03*
X131318000Y-133502400D03*
X138938000Y-141122400D03*
X131318000Y-136042400D03*
X138938000Y-138582400D03*
X131318000Y-138582400D03*
X138938000Y-136042400D03*
X131318000Y-141122400D03*
X138938000Y-133502400D03*
X131318000Y-143662400D03*
X138938000Y-130962400D03*
X131318000Y-146202400D03*
X138938000Y-128422400D03*
D11*
X131495800Y-125361700D03*
X134035800Y-125361700D03*
X128689100Y-133489700D03*
X126149100Y-133489700D03*
X128460500Y-140423900D03*
X125920500Y-140423900D03*
X128498600Y-144043400D03*
X125958600Y-144043400D03*
X128498600Y-147662900D03*
X125958600Y-147662900D03*
X167015160Y-121899680D03*
X167015160Y-119359680D03*
X180512720Y-123936760D03*
X180512720Y-126476760D03*
X141696440Y-138623040D03*
X144236440Y-138623040D03*
X156083000Y-149326600D03*
X153543000Y-149326600D03*
X153377900Y-135128000D03*
X150837900Y-135128000D03*
X183170000Y-139570000D03*
X183170000Y-142110000D03*
X169370000Y-137800000D03*
X169370000Y-135260000D03*
X83167540Y-147136000D03*
X80627540Y-147136000D03*
X85420520Y-133079640D03*
X87960520Y-133079640D03*
X86614000Y-147066000D03*
X89154000Y-147066000D03*
X99568000Y-138684000D03*
X102108000Y-138684000D03*
X116840000Y-123444000D03*
X119380000Y-123444000D03*
X104902000Y-137414000D03*
X104902000Y-139954000D03*
X118061740Y-145272760D03*
X118061740Y-147812760D03*
X153381200Y-130811900D03*
X144381200Y-130811900D03*
X147062700Y-145184500D03*
X156062700Y-145184500D03*
X146344000Y-118094000D03*
X146344000Y-127094000D03*
X143318860Y-143717520D03*
X143318860Y-152717520D03*
X184656100Y-127625600D03*
X184656100Y-118625600D03*
X189160000Y-131330000D03*
X180160000Y-131330000D03*
X161260000Y-154330000D03*
X170260000Y-154330000D03*
X166049200Y-130706500D03*
X175049200Y-130706500D03*
D21*
X177535840Y-119146320D03*
D22*
X169915840Y-126766320D03*
X174995840Y-119146320D03*
X172455840Y-126766320D03*
X172455840Y-119146320D03*
X174995840Y-126766320D03*
X169915840Y-119146320D03*
X177535840Y-126766320D03*
D21*
X180000000Y-135000000D03*
D22*
X172380000Y-142620000D03*
X177460000Y-135000000D03*
X174920000Y-142620000D03*
X174920000Y-135000000D03*
X177460000Y-142620000D03*
X172380000Y-135000000D03*
X180000000Y-142620000D03*
D21*
X80637700Y-136168280D03*
D22*
X88257700Y-143788280D03*
X80637700Y-138708280D03*
X88257700Y-141248280D03*
X80637700Y-141248280D03*
X88257700Y-138708280D03*
X80637700Y-143788280D03*
X88257700Y-136168280D03*
D21*
X111760000Y-126238000D03*
D22*
X119380000Y-133858000D03*
X111760000Y-128778000D03*
X119380000Y-131318000D03*
X111760000Y-131318000D03*
X119380000Y-128778000D03*
X111760000Y-133858000D03*
X119380000Y-126238000D03*
D21*
X115316000Y-140208000D03*
D22*
X107696000Y-147828000D03*
X112776000Y-140208000D03*
X110236000Y-147828000D03*
X110236000Y-140208000D03*
X112776000Y-147828000D03*
X107696000Y-140208000D03*
X115316000Y-147828000D03*
D11*
X55840000Y-135261100D03*
X58380000Y-135261100D03*
X60920000Y-135261100D03*
X63460000Y-135261100D03*
X66000000Y-135261100D03*
X68540000Y-135261100D03*
D21*
X180319680Y-154614880D03*
D22*
X187939680Y-146994880D03*
X182859680Y-154614880D03*
X185399680Y-146994880D03*
X185399680Y-154614880D03*
X182859680Y-146994880D03*
X187939680Y-154614880D03*
X180319680Y-146994880D03*
D11*
X209850000Y-143770000D03*
X209850000Y-148850000D03*
X209850000Y-153930000D03*
X175474000Y-60626000D03*
X175474000Y-63166000D03*
X175474000Y-65706000D03*
X175474000Y-68246000D03*
X175474000Y-70786000D03*
X175474000Y-73326000D03*
D16*
X54102000Y-53340000D03*
D17*
X56642000Y-53340000D03*
X59182000Y-53340000D03*
X61722000Y-53340000D03*
X64262000Y-53340000D03*
D23*
X85600000Y-76070000D03*
D24*
X106680000Y-116332000D03*
X141599920Y-129473960D03*
X52578000Y-136906000D03*
X164846000Y-151638000D03*
X177292000Y-152400000D03*
X74930000Y-76200000D03*
X182626000Y-86868000D03*
X163830000Y-58166000D03*
X117856000Y-52832000D03*
X111683800Y-56134000D03*
X149260000Y-84270000D03*
X152270000Y-87560000D03*
D23*
X156710000Y-101840000D03*
D24*
X149500000Y-81080000D03*
X150760000Y-95590000D03*
X175768000Y-150114000D03*
X159512000Y-137922000D03*
X159512000Y-133858000D03*
X159340000Y-123580000D03*
X153670000Y-114554000D03*
X149606000Y-104902000D03*
X147066000Y-111252000D03*
D23*
X142494000Y-112776000D03*
X144526000Y-108204000D03*
D25*
X157480000Y-110998000D03*
X155448000Y-114046000D03*
D24*
X157988000Y-138938000D03*
X158750000Y-144272000D03*
X166116000Y-145542000D03*
X103632000Y-125984000D03*
X103886000Y-121158000D03*
X81280000Y-116840000D03*
X175514000Y-156718000D03*
X155702000Y-70866000D03*
X151638000Y-74168000D03*
X148590000Y-153924000D03*
X155956000Y-154178000D03*
X104140000Y-156718000D03*
X104140000Y-151892000D03*
X175768000Y-144780000D03*
X186944000Y-132588000D03*
X189708000Y-141478000D03*
X143764000Y-124968000D03*
X97536000Y-153416000D03*
X165768020Y-112151160D03*
X159174180Y-112486440D03*
X188860000Y-124170000D03*
X182118000Y-97790000D03*
X171958000Y-91440000D03*
D23*
X84328000Y-93980000D03*
D24*
X183642000Y-120904000D03*
X185928000Y-152400000D03*
X190754000Y-152400000D03*
X151638000Y-120904000D03*
X142748000Y-122936000D03*
X60198000Y-122174000D03*
X139954000Y-118744002D03*
X105156000Y-132842000D03*
X79248000Y-118872000D03*
X151638000Y-107696000D03*
X155194000Y-111252000D03*
D26*
X111760000Y-136652000D02*
X112014000Y-136906000D01*
D27*
X87120000Y-77590000D02*
X85600000Y-76070000D01*
X87120000Y-83310000D02*
X87120000Y-77590000D01*
X106680000Y-116332000D02*
X108966000Y-114046000D01*
X108966000Y-114046000D02*
X108966000Y-105156000D01*
X108966000Y-105156000D02*
X87120000Y-83310000D01*
D26*
X78639200Y-61748800D02*
X78888800Y-61748800D01*
D27*
X146344000Y-114554000D02*
X146344000Y-115276000D01*
X146344000Y-115276000D02*
X142748000Y-118872000D01*
X143526000Y-118094000D02*
X144034000Y-118094000D01*
X144034000Y-118094000D02*
X146344000Y-115784000D01*
X144526000Y-118094000D02*
X143526000Y-118094000D01*
X140716000Y-120904000D02*
X142748000Y-118872000D01*
X142748000Y-118872000D02*
X143663160Y-117956840D01*
X143663160Y-117956840D02*
X143526000Y-117956840D01*
X141599920Y-129473960D02*
X141599920Y-125862080D01*
X140716000Y-124978160D02*
X140716000Y-121158000D01*
X141599920Y-125862080D02*
X140716000Y-124978160D01*
X140716000Y-121158000D02*
X140716000Y-120904000D01*
X143526000Y-118094000D02*
X143526000Y-117956840D01*
X144526000Y-118094000D02*
X144526000Y-117602000D01*
X144526000Y-117602000D02*
X146344000Y-115784000D01*
X146344000Y-118094000D02*
X146344000Y-115784000D01*
X146344000Y-115784000D02*
X146344000Y-114554000D01*
X146344000Y-114554000D02*
X146344000Y-114086000D01*
X146344000Y-114086000D02*
X142214600Y-109956600D01*
X146344000Y-118094000D02*
X144526000Y-118094000D01*
X89040000Y-118310000D02*
X89040000Y-117742000D01*
X89040000Y-117742000D02*
X85852000Y-114554000D01*
X85852000Y-114554000D02*
X79259180Y-114554000D01*
X79259180Y-114554000D02*
X78091540Y-115721640D01*
X77380000Y-117094000D02*
X77380000Y-116433180D01*
X77380000Y-116433180D02*
X78091540Y-115721640D01*
X52578000Y-136906000D02*
X52578000Y-101640640D01*
X52578000Y-101640640D02*
X53086000Y-101132640D01*
X165354000Y-152146000D02*
X164846000Y-151638000D01*
X177038000Y-152146000D02*
X165354000Y-152146000D01*
X177292000Y-152400000D02*
X177038000Y-152146000D01*
X74930000Y-76200000D02*
X74930000Y-79288640D01*
X74930000Y-79288640D02*
X74696320Y-79522320D01*
X175474000Y-70786000D02*
X172292000Y-70786000D01*
X169672000Y-73406000D02*
X158106760Y-73406000D01*
X172292000Y-70786000D02*
X169672000Y-73406000D01*
X146862800Y-87710100D02*
X143937900Y-87710100D01*
D26*
X142240000Y-92964000D02*
X142214600Y-92964000D01*
D27*
X142240000Y-89408000D02*
X142240000Y-92964000D01*
X143937900Y-87710100D02*
X142240000Y-89408000D01*
X142214600Y-108737400D02*
X142214600Y-109956600D01*
X142214600Y-109956600D02*
X142214600Y-110008800D01*
D26*
X139599200Y-110008800D02*
X140943200Y-110008800D01*
X140943200Y-110008800D02*
X142214600Y-108737400D01*
D27*
X53086000Y-101132640D02*
X74696320Y-79522320D01*
D26*
X116590000Y-147828000D02*
X116668000Y-147828000D01*
D27*
X116668000Y-147828000D02*
X118061740Y-149221740D01*
D26*
X118204000Y-151598000D02*
X118204000Y-150716000D01*
D27*
X118204000Y-150716000D02*
X115316000Y-147828000D01*
X68540000Y-135261100D02*
X68540000Y-131300000D01*
X68540000Y-131300000D02*
X77380000Y-122460000D01*
X77380000Y-122460000D02*
X77380000Y-117094000D01*
X77380000Y-117094000D02*
X77380000Y-116433180D01*
D26*
X77380000Y-116433180D02*
X78091540Y-115721640D01*
D27*
X155569920Y-80355440D02*
X155569920Y-75942840D01*
X148215260Y-87710100D02*
X155569920Y-80355440D01*
X148215260Y-87710100D02*
X146862800Y-87710100D01*
X155569920Y-75942840D02*
X158106760Y-73406000D01*
X118061740Y-147812760D02*
X118061740Y-149221740D01*
X118061740Y-149221740D02*
X118061740Y-151455740D01*
D26*
X118061740Y-151455740D02*
X118204000Y-151598000D01*
X115316000Y-147828000D02*
X116590000Y-147828000D01*
X116590000Y-147828000D02*
X118046500Y-147828000D01*
X118046500Y-147828000D02*
X118061740Y-147812760D01*
D27*
X138938000Y-138582400D02*
X131318000Y-138582400D01*
D26*
X89040000Y-118310000D02*
X89040000Y-117870000D01*
D27*
X142214600Y-108737400D02*
X142214600Y-92964000D01*
X142214600Y-110008800D02*
X139599200Y-110008800D01*
X138938000Y-138582400D02*
X138938000Y-136042400D01*
X138938000Y-138582400D02*
X141655800Y-138582400D01*
D26*
X141655800Y-138582400D02*
X141696440Y-138623040D01*
D27*
X131318000Y-136042400D02*
X131318000Y-138582400D01*
D26*
X130705860Y-135506460D02*
X130705860Y-134393940D01*
D27*
X130705860Y-134393940D02*
X129801620Y-133489700D01*
D26*
X131318000Y-136042400D02*
X131241800Y-136042400D01*
X131241800Y-136042400D02*
X130705860Y-135506460D01*
D27*
X130705860Y-135506460D02*
X128689100Y-133489700D01*
X131318000Y-136042400D02*
X131318000Y-133502400D01*
X128689100Y-133489700D02*
X129801620Y-133489700D01*
X129801620Y-133489700D02*
X131305300Y-133489700D01*
D26*
X131305300Y-133489700D02*
X131318000Y-133502400D01*
D27*
X121412000Y-152146000D02*
X118752000Y-152146000D01*
D26*
X118752000Y-152146000D02*
X118204000Y-151598000D01*
D27*
X125382000Y-152186000D02*
X121452000Y-152186000D01*
D26*
X121452000Y-152186000D02*
X121412000Y-152146000D01*
D27*
X195491600Y-69596500D02*
X195491600Y-65951600D01*
X181356000Y-51816000D02*
X173482000Y-51816000D01*
X195491600Y-65951600D02*
X181356000Y-51816000D01*
X116739200Y-61748800D02*
X116739200Y-56742800D01*
X116739200Y-56742800D02*
X121666000Y-51816000D01*
X121666000Y-51816000D02*
X173482000Y-51816000D01*
X209690000Y-81960000D02*
X201760000Y-81960000D01*
D26*
X195520000Y-75380000D02*
X195491600Y-75380000D01*
X195520000Y-75720000D02*
X195520000Y-75380000D01*
D27*
X201760000Y-81960000D02*
X195520000Y-75720000D01*
X195491600Y-69596500D02*
X195491600Y-75380000D01*
D26*
X195491600Y-75380000D02*
X195880000Y-76080000D01*
D27*
X178054000Y-53809900D02*
X179031900Y-53809900D01*
X188560000Y-79086000D02*
X196514000Y-87040000D01*
X188560000Y-63338000D02*
X188560000Y-79086000D01*
X179031900Y-53809900D02*
X188560000Y-63338000D01*
X172212000Y-53809900D02*
X178054000Y-53809900D01*
X209690000Y-87040000D02*
X196514000Y-87040000D01*
X119279200Y-57085700D02*
X122555000Y-53809900D01*
X119279200Y-57085700D02*
X119279200Y-61748800D01*
X122555000Y-53809900D02*
X172212000Y-53809900D01*
D26*
X209397450Y-87332550D02*
X209690000Y-87040000D01*
D27*
X121819200Y-61748800D02*
X121819200Y-59536800D01*
X121819200Y-59536800D02*
X124968000Y-56388000D01*
X124968000Y-56388000D02*
X162306000Y-56388000D01*
X162306000Y-56388000D02*
X162560000Y-56134000D01*
X173482000Y-56134000D02*
X174998000Y-56134000D01*
X174998000Y-56134000D02*
X184650000Y-65786000D01*
X121819200Y-61748800D02*
X121819200Y-59536800D01*
X162560000Y-56134000D02*
X173482000Y-56134000D01*
X209690000Y-92120000D02*
X194450000Y-92120000D01*
X194450000Y-92120000D02*
X184650000Y-82320000D01*
X184650000Y-82320000D02*
X184650000Y-65786000D01*
D26*
X209373300Y-92436700D02*
X209690000Y-92120000D01*
D27*
X124359200Y-61748800D02*
X124359200Y-60552800D01*
X124359200Y-60552800D02*
X126238000Y-58674000D01*
X126238000Y-58674000D02*
X163322000Y-58674000D01*
X163322000Y-58674000D02*
X163830000Y-58166000D01*
X124359200Y-61748800D02*
X124359200Y-60552800D01*
D26*
X184223000Y-88573000D02*
X184223000Y-88465000D01*
D27*
X192930000Y-97280000D02*
X184223000Y-88573000D01*
X209740000Y-97280000D02*
X192930000Y-97280000D01*
X184223000Y-88465000D02*
X182626000Y-86868000D01*
D26*
X124359200Y-61748800D02*
X124359200Y-61568800D01*
X209595260Y-97424740D02*
X209740000Y-97280000D01*
D27*
X137059200Y-69368800D02*
X114019200Y-69368800D01*
X114019200Y-69368800D02*
X113030000Y-70358000D01*
X113030000Y-70358000D02*
X70358000Y-70358000D01*
X70358000Y-70358000D02*
X67056000Y-67056000D01*
X67056000Y-67056000D02*
X67056000Y-59778900D01*
X102406450Y-56940450D02*
X103378000Y-57912000D01*
D26*
X117856000Y-52832000D02*
X117602000Y-52832000D01*
D27*
X103378000Y-57912000D02*
X112522000Y-57912000D01*
X117602000Y-52832000D02*
X112522000Y-57912000D01*
X69894450Y-56940450D02*
X102406450Y-56940450D01*
X69894450Y-56940450D02*
X67056000Y-59778900D01*
D26*
X111683800Y-56134000D02*
X111683800Y-56057800D01*
D27*
X108966000Y-53340000D02*
X103124000Y-53340000D01*
X111683800Y-56057800D02*
X108966000Y-53340000D01*
X103124000Y-53340000D02*
X69773800Y-53340000D01*
X69773800Y-53340000D02*
X66725800Y-56388000D01*
X66725800Y-56388000D02*
X61391800Y-61722000D01*
X61391800Y-61722000D02*
X61391800Y-70104000D01*
X61391800Y-70104000D02*
X64947800Y-73660000D01*
X64947800Y-73660000D02*
X126923800Y-73660000D01*
X126923800Y-73660000D02*
X128675000Y-71908800D01*
X128675000Y-71908800D02*
X137059200Y-71908800D01*
X139599200Y-69368800D02*
X140943200Y-69368800D01*
X140943200Y-69368800D02*
X142494000Y-67818000D01*
X175474000Y-60626000D02*
X173308000Y-60626000D01*
X173308000Y-60626000D02*
X171450000Y-62484000D01*
X171450000Y-62484000D02*
X147828000Y-62484000D01*
D26*
X173308000Y-60626000D02*
X171450000Y-62484000D01*
D27*
X147828000Y-62484000D02*
X142494000Y-67818000D01*
X142494000Y-67818000D02*
X140943200Y-69368800D01*
D26*
X139659200Y-69428800D02*
X139599200Y-69368800D01*
X139899200Y-69668800D02*
X139599200Y-69368800D01*
X139599200Y-71908800D02*
X140943200Y-71908800D01*
D27*
X150956000Y-65706000D02*
X144780000Y-71882000D01*
X144780000Y-71882000D02*
X140970000Y-71882000D01*
X150956000Y-65706000D02*
X175474000Y-65706000D01*
D26*
X140943200Y-71908800D02*
X140970000Y-71882000D01*
X139619200Y-71978800D02*
X139599200Y-71908800D01*
D27*
X163830000Y-107569000D02*
X163830000Y-106426000D01*
X141990000Y-80020000D02*
X141990000Y-81140000D01*
X163830000Y-106426000D02*
X163830000Y-97560000D01*
X141061200Y-82068800D02*
X139599200Y-82068800D01*
X141990000Y-81140000D02*
X141061200Y-82068800D01*
X143610000Y-78400000D02*
X141990000Y-80020000D01*
X150150000Y-78400000D02*
X143610000Y-78400000D01*
X151770000Y-80020000D02*
X150150000Y-78400000D01*
X151770000Y-81420000D02*
X151770000Y-80020000D01*
X149370000Y-83820000D02*
X151770000Y-81420000D01*
D26*
X149370000Y-84160000D02*
X149370000Y-83820000D01*
X149260000Y-84270000D02*
X149370000Y-84160000D01*
D27*
X160150000Y-95440000D02*
X152270000Y-87560000D01*
X161710000Y-95440000D02*
X160150000Y-95440000D01*
X163830000Y-97560000D02*
X161710000Y-95440000D01*
X161290000Y-107569000D02*
X161290000Y-106420000D01*
D26*
X139599200Y-84608800D02*
X141471200Y-84608800D01*
D27*
X156710000Y-101840000D02*
X161290000Y-106420000D01*
D26*
X145000000Y-81080000D02*
X149500000Y-81080000D01*
X141471200Y-84608800D02*
X145000000Y-81080000D01*
D27*
X161290000Y-115189000D02*
X161290000Y-111333280D01*
X150800000Y-99520000D02*
X150760000Y-95590000D01*
D26*
X150800000Y-99520000D02*
X150800000Y-99520000D01*
D27*
X161290000Y-111333280D02*
X150800000Y-99520000D01*
X175768000Y-150114000D02*
X172974000Y-150114000D01*
X162560000Y-140970000D02*
X159512000Y-137922000D01*
X164846000Y-140970000D02*
X162560000Y-140970000D01*
X170434000Y-146558000D02*
X164846000Y-140970000D01*
X170434000Y-147574000D02*
X170434000Y-146558000D01*
X172974000Y-150114000D02*
X170434000Y-147574000D01*
D26*
X159512000Y-133858000D02*
X159258000Y-133604000D01*
D27*
X159258000Y-133604000D02*
X159340000Y-123580000D01*
X149606000Y-104902000D02*
X149479000Y-105029000D01*
X149479000Y-105029000D02*
X149479000Y-110363000D01*
X149479000Y-110363000D02*
X153670000Y-114554000D01*
X147066000Y-111252000D02*
X146862800Y-111252000D01*
X146862800Y-92790100D02*
X146862800Y-111252000D01*
X63460000Y-135261100D02*
X63460000Y-128820000D01*
X73011540Y-119268460D02*
X73011540Y-115721640D01*
X63460000Y-128820000D02*
X73011540Y-119268460D01*
X64415200Y-110008800D02*
X64415200Y-111913200D01*
X64415200Y-111913200D02*
X65772000Y-113270000D01*
X65772000Y-113270000D02*
X69582000Y-113270000D01*
X69582000Y-113270000D02*
X70471540Y-114159540D01*
X70471540Y-114159540D02*
X70471540Y-115721640D01*
X144526000Y-92456000D02*
X144526000Y-91694000D01*
X145969900Y-90250100D02*
X146862800Y-90250100D01*
X144526000Y-91694000D02*
X145969900Y-90250100D01*
X130048000Y-112776000D02*
X128016000Y-112776000D01*
X126899200Y-111659200D02*
X126899200Y-110008800D01*
X128016000Y-112776000D02*
X126899200Y-111659200D01*
X130048000Y-112776000D02*
X142494000Y-112776000D01*
X144526000Y-108204000D02*
X144526000Y-92456000D01*
D26*
X146731900Y-90250100D02*
X146862800Y-90250100D01*
X126899200Y-110008800D02*
X126899200Y-110135200D01*
X146862800Y-90250100D02*
X146731900Y-90250100D01*
D27*
X60920000Y-135261100D02*
X60920000Y-126840000D01*
X70471540Y-117288460D02*
X70471540Y-115721640D01*
X60920000Y-126840000D02*
X70471540Y-117288460D01*
D26*
X70471540Y-115721640D02*
X70471540Y-115511540D01*
X146862800Y-90250100D02*
X146681100Y-90250100D01*
D27*
X101740000Y-118310000D02*
X101740000Y-114186000D01*
X101740000Y-114186000D02*
X98959200Y-111405200D01*
X98959200Y-111405200D02*
X98959200Y-110008800D01*
X99200000Y-118310000D02*
X99200000Y-114948000D01*
X99200000Y-114948000D02*
X96419200Y-112167200D01*
X96419200Y-112167200D02*
X96419200Y-110008800D01*
X96660000Y-118310000D02*
X96660000Y-115456000D01*
X96660000Y-115456000D02*
X93879200Y-112675200D01*
X93879200Y-112675200D02*
X93879200Y-110008800D01*
X94120000Y-118310000D02*
X94120000Y-116726000D01*
X94120000Y-116726000D02*
X91339200Y-113945200D01*
X91339200Y-113945200D02*
X91339200Y-110008800D01*
D28*
X157480000Y-110998000D02*
X155448000Y-113030000D01*
X155448000Y-113030000D02*
X155448000Y-114046000D01*
D27*
X75551540Y-115721640D02*
X75551540Y-120536460D01*
X75551540Y-120536460D02*
X73660000Y-122428000D01*
X73660000Y-122428000D02*
X73660000Y-122100000D01*
D28*
X157988000Y-138938000D02*
X158750000Y-139700000D01*
X158750000Y-139700000D02*
X158750000Y-144272000D01*
D27*
X103632000Y-125984000D02*
X105664000Y-123952000D01*
X105664000Y-123952000D02*
X105664000Y-122936000D01*
X105664000Y-122936000D02*
X103886000Y-121158000D01*
X125958600Y-147662900D02*
X125958600Y-144043400D01*
X86500000Y-118310000D02*
X82750000Y-118310000D01*
X82750000Y-118310000D02*
X81280000Y-116840000D01*
X121412000Y-149606000D02*
X124015500Y-149606000D01*
X124015500Y-149606000D02*
X125958600Y-147662900D01*
X125920500Y-140423900D02*
X125920500Y-147624800D01*
X125920500Y-147624800D02*
X125958600Y-147662900D01*
X138938000Y-141122400D02*
X142849600Y-141122400D01*
X142849600Y-141122400D02*
X144236440Y-139735560D01*
X144236440Y-139735560D02*
X144236440Y-138623040D01*
X150837900Y-135128000D02*
X150837900Y-135089900D01*
X150837900Y-135089900D02*
X149606000Y-133858000D01*
X149606000Y-133858000D02*
X146812000Y-133858000D01*
X146812000Y-133858000D02*
X144236440Y-136433560D01*
X144236440Y-136433560D02*
X144236440Y-138623040D01*
X75551540Y-119888000D02*
X75551540Y-121298460D01*
X75551540Y-121298460D02*
X75184000Y-121666000D01*
X183170000Y-139570000D02*
X171140000Y-139570000D01*
X171140000Y-139570000D02*
X169370000Y-137800000D01*
X185399680Y-154614880D02*
X185399680Y-154960320D01*
X185399680Y-154960320D02*
X183896000Y-156464000D01*
X175768000Y-156464000D02*
X175514000Y-156718000D01*
X183896000Y-156464000D02*
X175768000Y-156464000D01*
D26*
X154940000Y-70866000D02*
X155702000Y-70866000D01*
D27*
X151638000Y-74168000D02*
X154940000Y-70866000D01*
X66000000Y-135261100D02*
X66000000Y-129760000D01*
X75551540Y-120208460D02*
X75551540Y-119888000D01*
X75551540Y-119888000D02*
X75551540Y-115721640D01*
X66000000Y-129760000D02*
X73660000Y-122100000D01*
X73660000Y-122100000D02*
X74676000Y-121084000D01*
D26*
X74676000Y-121084000D02*
X75551540Y-120208460D01*
D27*
X131318000Y-128422400D02*
X131318000Y-125539500D01*
D26*
X131318000Y-125539500D02*
X131495800Y-125361700D01*
D27*
X131318000Y-141122400D02*
X129159000Y-141122400D01*
X129159000Y-141122400D02*
X128460500Y-140423900D01*
X131318000Y-143662400D02*
X128879600Y-143662400D01*
X128879600Y-143662400D02*
X128498600Y-144043400D01*
X128498600Y-147662900D02*
X129857500Y-147662900D01*
X129857500Y-147662900D02*
X131318000Y-146202400D01*
X148590000Y-153924000D02*
X148336000Y-153924000D01*
X148336000Y-153924000D02*
X144018000Y-158242000D01*
X108712000Y-159004000D02*
X103378000Y-159004000D01*
X103378000Y-159004000D02*
X102616000Y-158242000D01*
X107188000Y-159004000D02*
X105410000Y-159004000D01*
X105410000Y-159004000D02*
X104267000Y-157861000D01*
X143002000Y-158242000D02*
X121666000Y-158242000D01*
X120904000Y-159004000D02*
X108712000Y-159004000D01*
X108712000Y-159004000D02*
X107188000Y-159004000D01*
X121666000Y-158242000D02*
X120904000Y-159004000D01*
X144018000Y-158242000D02*
X143002000Y-158242000D01*
X156062700Y-134280000D02*
X156062700Y-153309300D01*
X155956000Y-153416000D02*
X155956000Y-154178000D01*
X156062700Y-153309300D02*
X155956000Y-153416000D01*
X104267000Y-157861000D02*
X104267000Y-156845000D01*
X104267000Y-156845000D02*
X104140000Y-156718000D01*
X104140000Y-151892000D02*
X104140000Y-143256000D01*
X104140000Y-143256000D02*
X104648000Y-142748000D01*
X104648000Y-142748000D02*
X104648000Y-140208000D01*
X104648000Y-140208000D02*
X104902000Y-139954000D01*
X111760000Y-133858000D02*
X110998000Y-133858000D01*
X110998000Y-133858000D02*
X104902000Y-139954000D01*
X158242000Y-135636000D02*
X157418700Y-135636000D01*
X157418700Y-135636000D02*
X156062700Y-134280000D01*
X158242000Y-135636000D02*
X158242000Y-135798000D01*
X158242000Y-135798000D02*
X156062700Y-137977300D01*
X167386000Y-135260000D02*
X172120000Y-135260000D01*
X172120000Y-135260000D02*
X172380000Y-135000000D01*
X167386000Y-135260000D02*
X167254000Y-135260000D01*
X167254000Y-135260000D02*
X165354000Y-137160000D01*
X165354000Y-136398000D02*
X166116000Y-136398000D01*
X166116000Y-136398000D02*
X166370000Y-136144000D01*
X165354000Y-135382000D02*
X165354000Y-136398000D01*
X165354000Y-136398000D02*
X165354000Y-137160000D01*
X165354000Y-137160000D02*
X165354000Y-137922000D01*
X165354000Y-137922000D02*
X165158000Y-138118000D01*
X165158000Y-138118000D02*
X163390000Y-136350000D01*
X160988000Y-136350000D02*
X163390000Y-136350000D01*
X157434000Y-136606000D02*
X157434000Y-136444000D01*
X160274000Y-135636000D02*
X160988000Y-136350000D01*
X158242000Y-135636000D02*
X160274000Y-135636000D01*
X157434000Y-136444000D02*
X158242000Y-135636000D01*
X162306000Y-136350000D02*
X164386000Y-136350000D01*
X164386000Y-136350000D02*
X165354000Y-135382000D01*
X165354000Y-135382000D02*
X165476000Y-135260000D01*
X167640000Y-135260000D02*
X167386000Y-135260000D01*
X167386000Y-135260000D02*
X165476000Y-135260000D01*
X165476000Y-135260000D02*
X164904000Y-135832000D01*
D26*
X165476000Y-135260000D02*
X164904000Y-135832000D01*
D27*
X175514000Y-145034000D02*
X172074000Y-145034000D01*
X172074000Y-145034000D02*
X165158000Y-138118000D01*
X175768000Y-144780000D02*
X175514000Y-145034000D01*
D26*
X82042000Y-153670000D02*
X81534000Y-153670000D01*
D27*
X81534000Y-153670000D02*
X79756000Y-151892000D01*
X87122000Y-153670000D02*
X91694000Y-158242000D01*
X82042000Y-153670000D02*
X87122000Y-153670000D01*
D26*
X165608000Y-135260000D02*
X165476000Y-135260000D01*
X167640000Y-135260000D02*
X165608000Y-135260000D01*
X164084000Y-137044000D02*
X164084000Y-136906000D01*
X164084000Y-136906000D02*
X164084000Y-137044000D01*
D27*
X165158000Y-138118000D02*
X164904000Y-137864000D01*
D26*
X164904000Y-137864000D02*
X164084000Y-137044000D01*
X164084000Y-137044000D02*
X163390000Y-136350000D01*
D27*
X104267000Y-157861000D02*
X103886000Y-158242000D01*
X80637700Y-143788280D02*
X80637700Y-147125840D01*
X80637700Y-147125840D02*
X79756000Y-148007540D01*
X91694000Y-158242000D02*
X102616000Y-158242000D01*
X102616000Y-158242000D02*
X103886000Y-158242000D01*
X79756000Y-148007540D02*
X79756000Y-151892000D01*
D26*
X156062700Y-137977300D02*
X157434000Y-136606000D01*
X157434000Y-136606000D02*
X157690000Y-136350000D01*
X157690000Y-136350000D02*
X157190000Y-136350000D01*
X156062700Y-134280000D02*
X156062700Y-134932700D01*
X156062700Y-134932700D02*
X157190000Y-136060000D01*
X157190000Y-136060000D02*
X157190000Y-136350000D01*
X169370000Y-135260000D02*
X167640000Y-135260000D01*
X156020000Y-135790000D02*
X156062700Y-135747300D01*
X160988000Y-136350000D02*
X156062700Y-136350000D01*
X156062700Y-136350000D02*
X156020000Y-136307300D01*
X156020000Y-136307300D02*
X156020000Y-135790000D01*
X163390000Y-136350000D02*
X162306000Y-136350000D01*
X162306000Y-136350000D02*
X160988000Y-136350000D01*
X169370000Y-135260000D02*
X172120000Y-135260000D01*
X172120000Y-135260000D02*
X172380000Y-135000000D01*
X167015160Y-119359680D02*
X167015160Y-119174260D01*
X167015160Y-119174260D02*
X168479470Y-117709950D01*
X167015160Y-119174260D02*
X167723820Y-118465600D01*
X167723820Y-118465600D02*
X169235120Y-118465600D01*
X166370000Y-115189000D02*
X166370000Y-115600480D01*
D27*
X166370000Y-115600480D02*
X168479470Y-117709950D01*
X168479470Y-117709950D02*
X169235120Y-118465600D01*
D26*
X169235120Y-118465600D02*
X169915840Y-119146320D01*
X169915840Y-119146320D02*
X167228520Y-119146320D01*
X167228520Y-119146320D02*
X167015160Y-119359680D01*
X156062700Y-145184500D02*
X156062700Y-137977300D01*
X156062700Y-137977300D02*
X156062700Y-135747300D01*
X156062700Y-135747300D02*
X156062700Y-134280000D01*
D27*
X156062700Y-134280000D02*
X156062700Y-122727700D01*
X156062700Y-122727700D02*
X160286700Y-118503700D01*
X160286700Y-118503700D02*
X163055300Y-118503700D01*
X163055300Y-118503700D02*
X166370000Y-115189000D01*
D26*
X156062700Y-145184500D02*
X156062700Y-149306300D01*
X156062700Y-149306300D02*
X156083000Y-149326600D01*
D27*
X168899000Y-155691000D02*
X171621000Y-155691000D01*
X162814000Y-156250000D02*
X168340000Y-156250000D01*
X168340000Y-156250000D02*
X168899000Y-155691000D01*
X168899000Y-155691000D02*
X170260000Y-154330000D01*
X186944000Y-132588000D02*
X182880000Y-132588000D01*
X182880000Y-132588000D02*
X182226000Y-131934000D01*
X182226000Y-131934000D02*
X182226000Y-129686000D01*
X97536000Y-145446580D02*
X97536000Y-144272000D01*
X97536000Y-144272000D02*
X93472000Y-140208000D01*
X93472000Y-140208000D02*
X92710000Y-140208000D01*
X92710000Y-140208000D02*
X91694000Y-139192000D01*
X91694000Y-139192000D02*
X91694000Y-137414000D01*
X91694000Y-137414000D02*
X90448280Y-136168280D01*
X90448280Y-136168280D02*
X88257700Y-136168280D01*
X134366000Y-154686000D02*
X134112000Y-154940000D01*
X134112000Y-154940000D02*
X111506000Y-154940000D01*
X111506000Y-154940000D02*
X110998000Y-154432000D01*
X110998000Y-154432000D02*
X98552000Y-154432000D01*
X98552000Y-154432000D02*
X97536000Y-153416000D01*
X147574000Y-150114000D02*
X149098000Y-150114000D01*
X149098000Y-150114000D02*
X151638000Y-152654000D01*
X150000000Y-145288000D02*
X150000000Y-151016000D01*
X147574000Y-150114000D02*
X149098000Y-150114000D01*
X149098000Y-150114000D02*
X150000000Y-151016000D01*
X150000000Y-151016000D02*
X151638000Y-152654000D01*
X151638000Y-152654000D02*
X152146000Y-153162000D01*
X152146000Y-153162000D02*
X152146000Y-153216000D01*
X150000000Y-147066000D02*
X150000000Y-147688000D01*
X150000000Y-147688000D02*
X147574000Y-150114000D01*
X189708000Y-141478000D02*
X190230000Y-142000000D01*
X180000000Y-142620000D02*
X182660000Y-142620000D01*
X182660000Y-142620000D02*
X183170000Y-142110000D01*
X187939680Y-154614880D02*
X187939680Y-157246320D01*
X174680000Y-158750000D02*
X171621000Y-155691000D01*
X171621000Y-155691000D02*
X170260000Y-154330000D01*
X186436000Y-158750000D02*
X174680000Y-158750000D01*
X187939680Y-157246320D02*
X186436000Y-158750000D01*
X153381200Y-120396000D02*
X153381200Y-123259600D01*
X153381200Y-123259600D02*
X153162000Y-123478800D01*
X145034000Y-123698000D02*
X146050000Y-123698000D01*
X143764000Y-124968000D02*
X145034000Y-123698000D01*
X134382000Y-152186000D02*
X135168000Y-152186000D01*
X135636000Y-152654000D02*
X135636000Y-152186000D01*
D26*
X135168000Y-152186000D02*
X135636000Y-152654000D01*
D27*
X135636000Y-152186000D02*
X136866000Y-152186000D01*
X135612000Y-153416000D02*
X134382000Y-152186000D01*
D26*
X135636000Y-153416000D02*
X135612000Y-153416000D01*
X136866000Y-152186000D02*
X135636000Y-153416000D01*
D27*
X119380000Y-123444000D02*
X124968000Y-123444000D01*
X138938000Y-123698000D02*
X138938000Y-125222000D01*
X136398000Y-121158000D02*
X138938000Y-123698000D01*
X127254000Y-121158000D02*
X136398000Y-121158000D01*
X124968000Y-123444000D02*
X127254000Y-121158000D01*
X119380000Y-126238000D02*
X119380000Y-123444000D01*
X151638000Y-123698000D02*
X153381200Y-121954800D01*
D26*
X151130000Y-123698000D02*
X151638000Y-123698000D01*
X151638000Y-123698000D02*
X151892000Y-123698000D01*
D27*
X151892000Y-123698000D02*
X153381200Y-125187200D01*
X138938000Y-128422400D02*
X138938000Y-125222000D01*
D26*
X153162000Y-123444000D02*
X153381200Y-123444000D01*
D27*
X153162000Y-123478800D02*
X153162000Y-123444000D01*
D26*
X153381200Y-123698000D02*
X153162000Y-123478800D01*
X151130000Y-123698000D02*
X153381200Y-123698000D01*
D27*
X146050000Y-123698000D02*
X151130000Y-123698000D01*
X97536000Y-153416000D02*
X97536000Y-153670000D01*
X138938000Y-150114000D02*
X147574000Y-150114000D01*
D26*
X147574000Y-150114000D02*
X150000000Y-150114000D01*
D27*
X134112000Y-154940000D02*
X134366000Y-154686000D01*
X134366000Y-154686000D02*
X138938000Y-150114000D01*
D26*
X98806000Y-154940000D02*
X134112000Y-154940000D01*
D27*
X97536000Y-153670000D02*
X98806000Y-154940000D01*
X87960520Y-133079640D02*
X87960520Y-135871100D01*
X97536000Y-145446580D02*
X97536000Y-153416000D01*
D26*
X149860000Y-148844000D02*
X149860000Y-149098000D01*
D27*
X149860000Y-149098000D02*
X148844000Y-150114000D01*
X149098000Y-150114000D02*
X149098000Y-149606000D01*
X149098000Y-149606000D02*
X149860000Y-148844000D01*
X149860000Y-148844000D02*
X150000000Y-148704000D01*
D26*
X150000000Y-151070000D02*
X149800000Y-151070000D01*
D27*
X149800000Y-151070000D02*
X148844000Y-150114000D01*
X149098000Y-150368000D02*
X149098000Y-150114000D01*
D26*
X148844000Y-150114000D02*
X149098000Y-150368000D01*
X149098000Y-150114000D02*
X150000000Y-150114000D01*
D27*
X180512720Y-126476760D02*
X180512720Y-127972720D01*
X180512720Y-127972720D02*
X182226000Y-129686000D01*
X187939680Y-154614880D02*
X187939680Y-151690320D01*
X190230000Y-149400000D02*
X190230000Y-142000000D01*
X187939680Y-151690320D02*
X190230000Y-149400000D01*
X150000000Y-138505900D02*
X153377900Y-135128000D01*
D26*
X150000000Y-148704000D02*
X150000000Y-147066000D01*
X150000000Y-147066000D02*
X150000000Y-145288000D01*
D27*
X150000000Y-145288000D02*
X150000000Y-138505900D01*
D26*
X150000000Y-151070000D02*
X150000000Y-150114000D01*
X150000000Y-150114000D02*
X150000000Y-148704000D01*
D27*
X155180000Y-156250000D02*
X152146000Y-153216000D01*
X152146000Y-153216000D02*
X150000000Y-151070000D01*
X162814000Y-156250000D02*
X155180000Y-156250000D01*
X180512720Y-126476760D02*
X177825400Y-126476760D01*
D26*
X177825400Y-126476760D02*
X177535840Y-126766320D01*
D27*
X168910000Y-107569000D02*
X168910000Y-109009180D01*
X168910000Y-109009180D02*
X165768020Y-112151160D01*
X159174180Y-112486440D02*
X153381200Y-118279420D01*
X153381200Y-118279420D02*
X153381200Y-120396000D01*
X153381200Y-120396000D02*
X153381200Y-121954800D01*
D26*
X153381200Y-121954800D02*
X153381200Y-123444000D01*
D27*
X153381200Y-123444000D02*
X153381200Y-125187200D01*
X153381200Y-125187200D02*
X153381200Y-130811900D01*
X153381200Y-130811900D02*
X153381200Y-135156700D01*
D26*
X153381200Y-135156700D02*
X153619200Y-134918700D01*
X153619200Y-134918700D02*
X153619200Y-134150100D01*
D27*
X95090000Y-151090000D02*
X95090000Y-155918000D01*
D26*
X95090000Y-155918000D02*
X95012000Y-155996000D01*
D27*
X95090000Y-151090000D02*
X95090000Y-148232000D01*
X95090000Y-148232000D02*
X94194000Y-147336000D01*
X88257700Y-143788280D02*
X88257700Y-146169700D01*
X88257700Y-146169700D02*
X89424000Y-147336000D01*
X89424000Y-147336000D02*
X94194000Y-147336000D01*
X102108000Y-138684000D02*
X101616000Y-138192000D01*
X101616000Y-138192000D02*
X102108000Y-138684000D01*
X101616000Y-134660000D02*
X106894000Y-134660000D01*
X110236000Y-131318000D02*
X111760000Y-131318000D01*
X106894000Y-134660000D02*
X110236000Y-131318000D01*
X101616000Y-134660000D02*
X101616000Y-138192000D01*
D26*
X101616000Y-138192000D02*
X102108000Y-138684000D01*
D27*
X144381200Y-130811900D02*
X144381200Y-129056800D01*
X144381200Y-129056800D02*
X146344000Y-127094000D01*
X144381200Y-130811900D02*
X144381200Y-130954800D01*
X144381200Y-130954800D02*
X143002000Y-132334000D01*
X143002000Y-132334000D02*
X140309600Y-132334000D01*
X140309600Y-132334000D02*
X138938000Y-130962400D01*
D26*
X144520280Y-130672820D02*
X144381200Y-130811900D01*
X144230700Y-130962400D02*
X144381200Y-130811900D01*
D27*
X138938000Y-143662400D02*
X143263740Y-143662400D01*
X143263740Y-143662400D02*
X144785840Y-145184500D01*
X144785840Y-145184500D02*
X147062700Y-145184500D01*
X161900000Y-143110000D02*
X161900000Y-148080000D01*
D26*
X161900000Y-148080000D02*
X161260000Y-148720000D01*
D27*
X161260000Y-148720000D02*
X161260000Y-154330000D01*
X70520000Y-151550000D02*
X73860000Y-151550000D01*
X73860000Y-151550000D02*
X74220000Y-151190000D01*
X74220000Y-151190000D02*
X74220000Y-147860000D01*
X171450000Y-107569000D02*
X171450000Y-103250000D01*
X202330000Y-102360000D02*
X209740000Y-102360000D01*
X200020000Y-100050000D02*
X202330000Y-102360000D01*
X174650000Y-100050000D02*
X200020000Y-100050000D01*
X171450000Y-103250000D02*
X174650000Y-100050000D01*
D26*
X209353440Y-102746560D02*
X209740000Y-102360000D01*
D27*
X173990000Y-107569000D02*
X173990000Y-106172000D01*
X177292000Y-102870000D02*
X196210000Y-102870000D01*
X173990000Y-106172000D02*
X177292000Y-102870000D01*
X200780000Y-107440000D02*
X209740000Y-107440000D01*
X196210000Y-102870000D02*
X200780000Y-107440000D01*
D26*
X209353440Y-107826560D02*
X209740000Y-107440000D01*
X176530000Y-107569000D02*
X176530000Y-106934000D01*
X176530000Y-107569000D02*
X176530000Y-106934000D01*
D27*
X176530000Y-106934000D02*
X178054000Y-105410000D01*
X178054000Y-105410000D02*
X193350000Y-105410000D01*
D26*
X176530000Y-107569000D02*
X176530000Y-106890000D01*
D27*
X193350000Y-105410000D02*
X200750000Y-112810000D01*
X200750000Y-112810000D02*
X209800000Y-112810000D01*
D26*
X209518850Y-113091150D02*
X209800000Y-112810000D01*
D27*
X179070000Y-107569000D02*
X188569000Y-107569000D01*
X198890000Y-117890000D02*
X209800000Y-117890000D01*
X188569000Y-107569000D02*
X198890000Y-117890000D01*
D26*
X209485000Y-118205000D02*
X209800000Y-117890000D01*
D27*
X173990000Y-112522000D02*
X176276000Y-110236000D01*
X185674000Y-110236000D02*
X186690000Y-111252000D01*
X176276000Y-110236000D02*
X185674000Y-110236000D01*
X209800000Y-122970000D02*
X198408000Y-122970000D01*
X173990000Y-112522000D02*
X173990000Y-115189000D01*
X198408000Y-122970000D02*
X186690000Y-111252000D01*
D26*
X209490060Y-122660060D02*
X209800000Y-122970000D01*
D27*
X176530000Y-115189000D02*
X176530000Y-113792000D01*
X184658000Y-114554000D02*
X184658000Y-114528600D01*
X182880000Y-112776000D02*
X184658000Y-114554000D01*
X177546000Y-112776000D02*
X182880000Y-112776000D01*
X176530000Y-113792000D02*
X177546000Y-112776000D01*
X209850000Y-128230000D02*
X198359400Y-128230000D01*
X198359400Y-128230000D02*
X192506600Y-122377200D01*
X184658000Y-114528600D02*
X192506600Y-122377200D01*
D26*
X209511800Y-128568200D02*
X209850000Y-128230000D01*
X195323960Y-131600000D02*
X195420000Y-131600000D01*
D27*
X195323960Y-131569960D02*
X190246000Y-126492000D01*
X190246000Y-126492000D02*
X188860000Y-124170000D01*
D26*
X188860000Y-124170000D02*
X188860000Y-124170000D01*
X195323960Y-131600000D02*
X195323960Y-131569960D01*
D27*
X197130000Y-133310000D02*
X209850000Y-133310000D01*
X195420000Y-131600000D02*
X197130000Y-133310000D01*
X182118000Y-97790000D02*
X182118000Y-96012000D01*
X182118000Y-96012000D02*
X177546000Y-91440000D01*
X177546000Y-91440000D02*
X171958000Y-91440000D01*
X55231540Y-115721640D02*
X55231540Y-114413540D01*
X55231540Y-114413540D02*
X55118000Y-114300000D01*
X209850000Y-138390000D02*
X196048000Y-138390000D01*
X191770000Y-130810000D02*
X186182000Y-125222000D01*
X191770000Y-134112000D02*
X191770000Y-130810000D01*
X196048000Y-138390000D02*
X191770000Y-134112000D01*
X186182000Y-125222000D02*
X186182000Y-123444000D01*
X55118000Y-108204000D02*
X55118000Y-114300000D01*
X55118000Y-114300000D02*
X55118000Y-116078000D01*
X84328000Y-93980000D02*
X77470000Y-100838000D01*
X77470000Y-100838000D02*
X62230000Y-100838000D01*
X62230000Y-100838000D02*
X55118000Y-108204000D01*
X186182000Y-123444000D02*
X183642000Y-120904000D01*
D26*
X186182000Y-125222000D02*
X186182000Y-123444000D01*
X209500000Y-138040000D02*
X209850000Y-138390000D01*
D27*
X185928000Y-152400000D02*
X183896000Y-152400000D01*
X183896000Y-152400000D02*
X180319680Y-148823680D01*
X209850000Y-143770000D02*
X202432000Y-143770000D01*
X180319680Y-148823680D02*
X180319680Y-146994880D01*
X193802000Y-152400000D02*
X190754000Y-152400000D01*
X202432000Y-143770000D02*
X193802000Y-152400000D01*
D26*
X122134000Y-136692000D02*
X122134000Y-136558000D01*
X182859680Y-154452320D02*
X182859680Y-154614880D01*
X182859680Y-154614880D02*
X182859680Y-154452320D01*
D27*
X184656100Y-127625600D02*
X184656100Y-127506100D01*
D26*
X189160000Y-131330000D02*
X188360500Y-131330000D01*
D27*
X188360500Y-131330000D02*
X184656100Y-127625600D01*
X177535840Y-119146320D02*
X184135380Y-119146320D01*
D26*
X184135380Y-119146320D02*
X184656100Y-118625600D01*
D27*
X177535840Y-119146320D02*
X174995840Y-119146320D01*
X166049200Y-130706500D02*
X170776500Y-130706500D01*
X170776500Y-130706500D02*
X174920000Y-134850000D01*
D26*
X174920000Y-134850000D02*
X174920000Y-135000000D01*
D27*
X162010000Y-131370000D02*
X162010000Y-134000000D01*
D26*
X162010000Y-134000000D02*
X161900000Y-134110000D01*
D27*
X166049200Y-130706500D02*
X162673500Y-130706500D01*
X162673500Y-130706500D02*
X162010000Y-131370000D01*
X174995840Y-126766320D02*
X174995840Y-130653140D01*
D26*
X174995840Y-130653140D02*
X175049200Y-130706500D01*
X177460000Y-135000000D02*
X177460000Y-135740000D01*
D27*
X177460000Y-135740000D02*
X178840000Y-137120000D01*
X178840000Y-137120000D02*
X185090000Y-137120000D01*
X185090000Y-137120000D02*
X187990000Y-140020000D01*
X187990000Y-140020000D02*
X187990000Y-144110000D01*
X177240000Y-148190000D02*
X177240000Y-146120000D01*
X178880000Y-144480000D02*
X187620000Y-144480000D01*
X177240000Y-146120000D02*
X178880000Y-144480000D01*
D26*
X187620000Y-144480000D02*
X187990000Y-144110000D01*
D27*
X60311540Y-115721640D02*
X60311540Y-122060460D01*
X60311540Y-122060460D02*
X60198000Y-122174000D01*
X60311540Y-115721640D02*
X60311540Y-121017540D01*
X150876000Y-120142000D02*
X151638000Y-120904000D01*
X145288000Y-120142000D02*
X150876000Y-120142000D01*
X142748000Y-122936000D02*
X145288000Y-120142000D01*
X60311540Y-121017540D02*
X60198000Y-122174000D01*
X180000000Y-135000000D02*
X187880000Y-135000000D01*
D26*
X187880000Y-135000000D02*
X187990000Y-135110000D01*
D27*
X91788000Y-128738000D02*
X88098000Y-128738000D01*
X72644000Y-137284000D02*
X74220000Y-138860000D01*
X72644000Y-130810000D02*
X72644000Y-137284000D01*
X77724000Y-125730000D02*
X72644000Y-130810000D01*
X85090000Y-125730000D02*
X77724000Y-125730000D01*
X88098000Y-128738000D02*
X85090000Y-125730000D01*
X74220000Y-138860000D02*
X80485980Y-138860000D01*
D26*
X80485980Y-138860000D02*
X80637700Y-138708280D01*
D27*
X80637700Y-136168280D02*
X78256280Y-136168280D01*
X78256280Y-136168280D02*
X77216000Y-135128000D01*
X77216000Y-135128000D02*
X77216000Y-131318000D01*
X77216000Y-131318000D02*
X79796000Y-128738000D01*
X94194000Y-138336000D02*
X94194000Y-136438000D01*
X85114000Y-131064000D02*
X82788000Y-128738000D01*
X93472000Y-131064000D02*
X85114000Y-131064000D01*
X95504000Y-133096000D02*
X93472000Y-131064000D01*
X95504000Y-135128000D02*
X95504000Y-133096000D01*
X94194000Y-136438000D02*
X95504000Y-135128000D01*
X82788000Y-128738000D02*
X79796000Y-128738000D01*
X86012000Y-155996000D02*
X66588000Y-155996000D01*
X55840000Y-145248000D02*
X55840000Y-135261100D01*
X66588000Y-155996000D02*
X55840000Y-145248000D01*
X101186000Y-142708000D02*
X101186000Y-146996000D01*
D26*
X101186000Y-146996000D02*
X100878000Y-147304000D01*
D27*
X92186000Y-142708000D02*
X92186000Y-142430036D01*
X92186000Y-142430036D02*
X88360972Y-138605008D01*
X88360972Y-138605008D02*
X88257700Y-138708280D01*
D26*
X88257700Y-138708280D02*
X88257700Y-138779700D01*
X88257700Y-138779700D02*
X92186000Y-142708000D01*
D27*
X108474000Y-128818000D02*
X108474000Y-120326000D01*
X108474000Y-120326000D02*
X111412000Y-117388000D01*
X111760000Y-128778000D02*
X108514000Y-128778000D01*
D26*
X108514000Y-128778000D02*
X108474000Y-128818000D01*
D27*
X138597998Y-117388000D02*
X138176000Y-117388000D01*
X139954000Y-118744002D02*
X138597998Y-117388000D01*
X138176000Y-117388000D02*
X120412000Y-117388000D01*
X111760000Y-126238000D02*
X111760000Y-122936000D01*
X117308000Y-117388000D02*
X120412000Y-117388000D01*
X111760000Y-122936000D02*
X117308000Y-117388000D01*
X105156000Y-130810000D02*
X105156000Y-132842000D01*
X95504000Y-121158000D02*
X105156000Y-130810000D01*
X81534000Y-121158000D02*
X95504000Y-121158000D01*
X79248000Y-118872000D02*
X81534000Y-121158000D01*
X115316000Y-140208000D02*
X116784000Y-140208000D01*
X116784000Y-140208000D02*
X122134000Y-145558000D01*
D26*
X172455840Y-119146320D02*
X172455840Y-118567200D01*
D27*
X172455840Y-118567200D02*
X174010320Y-117012720D01*
X174010320Y-117012720D02*
X177246280Y-117012720D01*
X177246280Y-117012720D02*
X179070000Y-115189000D01*
X104280000Y-118310000D02*
X104280000Y-113678000D01*
X104280000Y-113678000D02*
X101499200Y-110897200D01*
X101499200Y-110897200D02*
X101499200Y-110008800D01*
X155194000Y-111252000D02*
X151638000Y-107696000D01*
D29*
G36*
X178370601Y-155414880D02*
X178449186Y-155832521D01*
X178696011Y-156216099D01*
X179072624Y-156473428D01*
X179519680Y-156563959D01*
X181119680Y-156563959D01*
X181537321Y-156485374D01*
X181875261Y-156267916D01*
X182122249Y-156432948D01*
X182859680Y-156579632D01*
X183597111Y-156432948D01*
X184129680Y-156077097D01*
X184662249Y-156432948D01*
X185399680Y-156579632D01*
X186112680Y-156437808D01*
X186112680Y-156489552D01*
X185679232Y-156923000D01*
X175436768Y-156923000D01*
X172486768Y-153973000D01*
X176316058Y-153973000D01*
X176926993Y-154226682D01*
X177653818Y-154227316D01*
X178325560Y-153949758D01*
X178370601Y-153904796D01*
X178370601Y-155414880D01*
X178370601Y-155414880D01*
G37*
X178370601Y-155414880D02*
X178449186Y-155832521D01*
X178696011Y-156216099D01*
X179072624Y-156473428D01*
X179519680Y-156563959D01*
X181119680Y-156563959D01*
X181537321Y-156485374D01*
X181875261Y-156267916D01*
X182122249Y-156432948D01*
X182859680Y-156579632D01*
X183597111Y-156432948D01*
X184129680Y-156077097D01*
X184662249Y-156432948D01*
X185399680Y-156579632D01*
X186112680Y-156437808D01*
X186112680Y-156489552D01*
X185679232Y-156923000D01*
X175436768Y-156923000D01*
X172486768Y-153973000D01*
X176316058Y-153973000D01*
X176926993Y-154226682D01*
X177653818Y-154227316D01*
X178325560Y-153949758D01*
X178370601Y-153904796D01*
X178370601Y-155414880D01*
G36*
X157962242Y-138955560D02*
X158475736Y-139469952D01*
X158476502Y-139470270D01*
X160672485Y-141666253D01*
X160299517Y-142038570D01*
X160011328Y-142732606D01*
X160010673Y-143484097D01*
X160073000Y-143634940D01*
X160073000Y-145947790D01*
X159888781Y-146066331D01*
X159631452Y-146442944D01*
X159540921Y-146890000D01*
X159540921Y-148177444D01*
X159433000Y-148720000D01*
X159433000Y-153804083D01*
X159371328Y-153952606D01*
X159370918Y-154423000D01*
X157782787Y-154423000D01*
X157783292Y-153844255D01*
X157889700Y-153309300D01*
X157889700Y-149901404D01*
X157971672Y-149703994D01*
X157972327Y-148952503D01*
X157889700Y-148752530D01*
X157889700Y-145710417D01*
X157951372Y-145561894D01*
X157952027Y-144810403D01*
X157889700Y-144659560D01*
X157889700Y-138779995D01*
X157962242Y-138955560D01*
X157962242Y-138955560D01*
G37*
X157962242Y-138955560D02*
X158475736Y-139469952D01*
X158476502Y-139470270D01*
X160672485Y-141666253D01*
X160299517Y-142038570D01*
X160011328Y-142732606D01*
X160010673Y-143484097D01*
X160073000Y-143634940D01*
X160073000Y-145947790D01*
X159888781Y-146066331D01*
X159631452Y-146442944D01*
X159540921Y-146890000D01*
X159540921Y-148177444D01*
X159433000Y-148720000D01*
X159433000Y-153804083D01*
X159371328Y-153952606D01*
X159370918Y-154423000D01*
X157782787Y-154423000D01*
X157783292Y-153844255D01*
X157889700Y-153309300D01*
X157889700Y-149901404D01*
X157971672Y-149703994D01*
X157972327Y-148952503D01*
X157889700Y-148752530D01*
X157889700Y-145710417D01*
X157951372Y-145561894D01*
X157952027Y-144810403D01*
X157889700Y-144659560D01*
X157889700Y-138779995D01*
X157962242Y-138955560D01*
G36*
X120034606Y-119276672D02*
X120786097Y-119277327D01*
X120936940Y-119215000D01*
X137841230Y-119215000D01*
X138661561Y-120035331D01*
X138917736Y-120291954D01*
X139003647Y-120327628D01*
X138889000Y-120904000D01*
X138889000Y-121065232D01*
X137689884Y-119866116D01*
X137586274Y-119796886D01*
X137097163Y-119470072D01*
X136398000Y-119331000D01*
X127254000Y-119331000D01*
X126554837Y-119470072D01*
X125962116Y-119866116D01*
X124211232Y-121617000D01*
X119905917Y-121617000D01*
X119757394Y-121555328D01*
X119005903Y-121554673D01*
X118311365Y-121841650D01*
X118110115Y-122042549D01*
X117911430Y-121843517D01*
X117217394Y-121555328D01*
X116465903Y-121554673D01*
X115771365Y-121841650D01*
X115239517Y-122372570D01*
X114951328Y-123066606D01*
X114950673Y-123818097D01*
X115237650Y-124512635D01*
X115768570Y-125044483D01*
X116462606Y-125332672D01*
X117214097Y-125333327D01*
X117553000Y-125193295D01*
X117553000Y-125545473D01*
X117415248Y-126238000D01*
X117561932Y-126975431D01*
X117917783Y-127508000D01*
X117561932Y-128040569D01*
X117415248Y-128778000D01*
X117561932Y-129515431D01*
X117917783Y-130048000D01*
X117561932Y-130580569D01*
X117415248Y-131318000D01*
X117561932Y-132055431D01*
X117917783Y-132588000D01*
X117561932Y-133120569D01*
X117415248Y-133858000D01*
X117561932Y-134595431D01*
X117979653Y-135220595D01*
X118604817Y-135638316D01*
X119342248Y-135785000D01*
X119417752Y-135785000D01*
X120155183Y-135638316D01*
X120780347Y-135220595D01*
X121198068Y-134595431D01*
X121344752Y-133858000D01*
X121198068Y-133120569D01*
X120842217Y-132588000D01*
X121198068Y-132055431D01*
X121344752Y-131318000D01*
X121198068Y-130580569D01*
X120842217Y-130048000D01*
X121198068Y-129515431D01*
X121344752Y-128778000D01*
X121198068Y-128040569D01*
X120842217Y-127508000D01*
X121198068Y-126975431D01*
X121344752Y-126238000D01*
X121207000Y-125545473D01*
X121207000Y-125271000D01*
X124968000Y-125271000D01*
X125667163Y-125131928D01*
X126259884Y-124735884D01*
X128010768Y-122985000D01*
X135641232Y-122985000D01*
X137111000Y-124454768D01*
X137111000Y-127729873D01*
X136973248Y-128422400D01*
X137119932Y-129159831D01*
X137475783Y-129692400D01*
X137119932Y-130224969D01*
X136973248Y-130962400D01*
X137119932Y-131699831D01*
X137475783Y-132232400D01*
X137119932Y-132764969D01*
X136973248Y-133502400D01*
X137119932Y-134239831D01*
X137475783Y-134772400D01*
X137119932Y-135304969D01*
X136973248Y-136042400D01*
X137111000Y-136734927D01*
X137111000Y-136755400D01*
X133145000Y-136755400D01*
X133145000Y-136734927D01*
X133282752Y-136042400D01*
X133145000Y-135349873D01*
X133145000Y-134194927D01*
X133282752Y-133502400D01*
X133136068Y-132764969D01*
X132780217Y-132232400D01*
X133136068Y-131699831D01*
X133282752Y-130962400D01*
X133136068Y-130224969D01*
X132968418Y-129974063D01*
X133176548Y-129669456D01*
X133267079Y-129222400D01*
X133267079Y-127622400D01*
X133188494Y-127204759D01*
X133145000Y-127137167D01*
X133145000Y-127037187D01*
X133658406Y-127250372D01*
X134409897Y-127251027D01*
X135104435Y-126964050D01*
X135636283Y-126433130D01*
X135924472Y-125739094D01*
X135925127Y-124987603D01*
X135638150Y-124293065D01*
X135107230Y-123761217D01*
X134413194Y-123473028D01*
X133661703Y-123472373D01*
X132967165Y-123759350D01*
X132765915Y-123960249D01*
X132567230Y-123761217D01*
X131873194Y-123473028D01*
X131121703Y-123472373D01*
X130427165Y-123759350D01*
X129895317Y-124290270D01*
X129727382Y-124694703D01*
X129630072Y-124840337D01*
X129491000Y-125539500D01*
X129491000Y-127129172D01*
X129459452Y-127175344D01*
X129368921Y-127622400D01*
X129368921Y-129222400D01*
X129447506Y-129640041D01*
X129664964Y-129977981D01*
X129499932Y-130224969D01*
X129353248Y-130962400D01*
X129492546Y-131662700D01*
X129215017Y-131662700D01*
X129066494Y-131601028D01*
X128315003Y-131600373D01*
X127620465Y-131887350D01*
X127419215Y-132088249D01*
X127220530Y-131889217D01*
X126526494Y-131601028D01*
X125775003Y-131600373D01*
X125080465Y-131887350D01*
X124548617Y-132418270D01*
X124260428Y-133112306D01*
X124259773Y-133863797D01*
X124546750Y-134558335D01*
X125077670Y-135090183D01*
X125771706Y-135378372D01*
X126523197Y-135379027D01*
X127217735Y-135092050D01*
X127418985Y-134891151D01*
X127617670Y-135090183D01*
X127768406Y-135152774D01*
X129413976Y-136798344D01*
X129491000Y-136849810D01*
X129491000Y-137889873D01*
X129353248Y-138582400D01*
X129389418Y-138764241D01*
X128837894Y-138535228D01*
X128086403Y-138534573D01*
X127391865Y-138821550D01*
X127190615Y-139022449D01*
X126991930Y-138823417D01*
X126297894Y-138535228D01*
X125546403Y-138534573D01*
X124851865Y-138821550D01*
X124320017Y-139352470D01*
X124031828Y-140046506D01*
X124031173Y-140797997D01*
X124318150Y-141492535D01*
X124849070Y-142024383D01*
X125372428Y-142241700D01*
X124889965Y-142441050D01*
X124358117Y-142971970D01*
X124069928Y-143666006D01*
X124069273Y-144417497D01*
X124356250Y-145112035D01*
X124887170Y-145643883D01*
X125391525Y-145853310D01*
X124889965Y-146060550D01*
X124358117Y-146591470D01*
X124069928Y-147285506D01*
X124069273Y-148036997D01*
X124356250Y-148731535D01*
X124887170Y-149263383D01*
X125581206Y-149551572D01*
X126332697Y-149552227D01*
X127027235Y-149265250D01*
X127228485Y-149064351D01*
X127427170Y-149263383D01*
X128121206Y-149551572D01*
X128872697Y-149552227D01*
X129023540Y-149489900D01*
X129857500Y-149489900D01*
X130556663Y-149350828D01*
X131149384Y-148954784D01*
X132178376Y-147925792D01*
X132718347Y-147564995D01*
X133136068Y-146939831D01*
X133282752Y-146202400D01*
X133136068Y-145464969D01*
X132780217Y-144932400D01*
X133136068Y-144399831D01*
X133282752Y-143662400D01*
X133136068Y-142924969D01*
X132780217Y-142392400D01*
X133136068Y-141859831D01*
X133282752Y-141122400D01*
X133140928Y-140409400D01*
X137115072Y-140409400D01*
X136973248Y-141122400D01*
X137119932Y-141859831D01*
X137475783Y-142392400D01*
X137119932Y-142924969D01*
X136973248Y-143662400D01*
X137119932Y-144399831D01*
X137475783Y-144932400D01*
X137119932Y-145464969D01*
X136973248Y-146202400D01*
X137119932Y-146939831D01*
X137537653Y-147564995D01*
X138162817Y-147982716D01*
X138900248Y-148129400D01*
X138975752Y-148129400D01*
X139713183Y-147982716D01*
X140338347Y-147564995D01*
X140756068Y-146939831D01*
X140902752Y-146202400D01*
X140760928Y-145489400D01*
X142506972Y-145489400D01*
X143493956Y-146476384D01*
X144086677Y-146872428D01*
X144785840Y-147011500D01*
X146536783Y-147011500D01*
X146685306Y-147073172D01*
X147436797Y-147073827D01*
X148131335Y-146786850D01*
X148173000Y-146745258D01*
X148173000Y-146931232D01*
X146817232Y-148287000D01*
X138938000Y-148287000D01*
X138238837Y-148426072D01*
X137646116Y-148822116D01*
X136109232Y-150359000D01*
X135636000Y-150359000D01*
X135402000Y-150405545D01*
X135168000Y-150359000D01*
X134907917Y-150359000D01*
X134759394Y-150297328D01*
X134007903Y-150296673D01*
X133313365Y-150583650D01*
X132781517Y-151114570D01*
X132493328Y-151808606D01*
X132492673Y-152560097D01*
X132721128Y-153113000D01*
X127042456Y-153113000D01*
X127270672Y-152563394D01*
X127271327Y-151811903D01*
X126984350Y-151117365D01*
X126453430Y-150585517D01*
X125759394Y-150297328D01*
X125007903Y-150296673D01*
X124857060Y-150359000D01*
X123598287Y-150359000D01*
X123739000Y-149651589D01*
X123739000Y-149560411D01*
X123561868Y-148669907D01*
X123057437Y-147914974D01*
X122357358Y-147447196D01*
X122508097Y-147447327D01*
X123202635Y-147160350D01*
X123734483Y-146629430D01*
X124022672Y-145935394D01*
X124023327Y-145183903D01*
X123736350Y-144489365D01*
X123205430Y-143957517D01*
X123054694Y-143894926D01*
X118075884Y-138916116D01*
X118004824Y-138868635D01*
X117483163Y-138520072D01*
X116784000Y-138381000D01*
X116609228Y-138381000D01*
X116563056Y-138349452D01*
X116116000Y-138258921D01*
X114516000Y-138258921D01*
X114098359Y-138337506D01*
X113760419Y-138554964D01*
X113513431Y-138389932D01*
X112859933Y-138259943D01*
X113164463Y-138056463D01*
X113517152Y-137528626D01*
X113635808Y-136932097D01*
X120244673Y-136932097D01*
X120531650Y-137626635D01*
X121062570Y-138158483D01*
X121756606Y-138446672D01*
X122508097Y-138447327D01*
X123202635Y-138160350D01*
X123734483Y-137629430D01*
X124022672Y-136935394D01*
X124023327Y-136183903D01*
X123736350Y-135489365D01*
X123205430Y-134957517D01*
X122511394Y-134669328D01*
X121759903Y-134668673D01*
X121065365Y-134955650D01*
X120533517Y-135486570D01*
X120245328Y-136180606D01*
X120244673Y-136932097D01*
X113635808Y-136932097D01*
X113641000Y-136906000D01*
X113517152Y-136283374D01*
X113164463Y-135755537D01*
X112910463Y-135501537D01*
X112825175Y-135444550D01*
X113160347Y-135220595D01*
X113578068Y-134595431D01*
X113724752Y-133858000D01*
X113578068Y-133120569D01*
X113222217Y-132588000D01*
X113578068Y-132055431D01*
X113724752Y-131318000D01*
X113578068Y-130580569D01*
X113222217Y-130048000D01*
X113578068Y-129515431D01*
X113724752Y-128778000D01*
X113578068Y-128040569D01*
X113410418Y-127789663D01*
X113618548Y-127485056D01*
X113709079Y-127038000D01*
X113709079Y-125438000D01*
X113630494Y-125020359D01*
X113587000Y-124952767D01*
X113587000Y-123692768D01*
X118064768Y-119215000D01*
X119886083Y-119215000D01*
X120034606Y-119276672D01*
X120034606Y-119276672D01*
G37*
X120034606Y-119276672D02*
X120786097Y-119277327D01*
X120936940Y-119215000D01*
X137841230Y-119215000D01*
X138661561Y-120035331D01*
X138917736Y-120291954D01*
X139003647Y-120327628D01*
X138889000Y-120904000D01*
X138889000Y-121065232D01*
X137689884Y-119866116D01*
X137586274Y-119796886D01*
X137097163Y-119470072D01*
X136398000Y-119331000D01*
X127254000Y-119331000D01*
X126554837Y-119470072D01*
X125962116Y-119866116D01*
X124211232Y-121617000D01*
X119905917Y-121617000D01*
X119757394Y-121555328D01*
X119005903Y-121554673D01*
X118311365Y-121841650D01*
X118110115Y-122042549D01*
X117911430Y-121843517D01*
X117217394Y-121555328D01*
X116465903Y-121554673D01*
X115771365Y-121841650D01*
X115239517Y-122372570D01*
X114951328Y-123066606D01*
X114950673Y-123818097D01*
X115237650Y-124512635D01*
X115768570Y-125044483D01*
X116462606Y-125332672D01*
X117214097Y-125333327D01*
X117553000Y-125193295D01*
X117553000Y-125545473D01*
X117415248Y-126238000D01*
X117561932Y-126975431D01*
X117917783Y-127508000D01*
X117561932Y-128040569D01*
X117415248Y-128778000D01*
X117561932Y-129515431D01*
X117917783Y-130048000D01*
X117561932Y-130580569D01*
X117415248Y-131318000D01*
X117561932Y-132055431D01*
X117917783Y-132588000D01*
X117561932Y-133120569D01*
X117415248Y-133858000D01*
X117561932Y-134595431D01*
X117979653Y-135220595D01*
X118604817Y-135638316D01*
X119342248Y-135785000D01*
X119417752Y-135785000D01*
X120155183Y-135638316D01*
X120780347Y-135220595D01*
X121198068Y-134595431D01*
X121344752Y-133858000D01*
X121198068Y-133120569D01*
X120842217Y-132588000D01*
X121198068Y-132055431D01*
X121344752Y-131318000D01*
X121198068Y-130580569D01*
X120842217Y-130048000D01*
X121198068Y-129515431D01*
X121344752Y-128778000D01*
X121198068Y-128040569D01*
X120842217Y-127508000D01*
X121198068Y-126975431D01*
X121344752Y-126238000D01*
X121207000Y-125545473D01*
X121207000Y-125271000D01*
X124968000Y-125271000D01*
X125667163Y-125131928D01*
X126259884Y-124735884D01*
X128010768Y-122985000D01*
X135641232Y-122985000D01*
X137111000Y-124454768D01*
X137111000Y-127729873D01*
X136973248Y-128422400D01*
X137119932Y-129159831D01*
X137475783Y-129692400D01*
X137119932Y-130224969D01*
X136973248Y-130962400D01*
X137119932Y-131699831D01*
X137475783Y-132232400D01*
X137119932Y-132764969D01*
X136973248Y-133502400D01*
X137119932Y-134239831D01*
X137475783Y-134772400D01*
X137119932Y-135304969D01*
X136973248Y-136042400D01*
X137111000Y-136734927D01*
X137111000Y-136755400D01*
X133145000Y-136755400D01*
X133145000Y-136734927D01*
X133282752Y-136042400D01*
X133145000Y-135349873D01*
X133145000Y-134194927D01*
X133282752Y-133502400D01*
X133136068Y-132764969D01*
X132780217Y-132232400D01*
X133136068Y-131699831D01*
X133282752Y-130962400D01*
X133136068Y-130224969D01*
X132968418Y-129974063D01*
X133176548Y-129669456D01*
X133267079Y-129222400D01*
X133267079Y-127622400D01*
X133188494Y-127204759D01*
X133145000Y-127137167D01*
X133145000Y-127037187D01*
X133658406Y-127250372D01*
X134409897Y-127251027D01*
X135104435Y-126964050D01*
X135636283Y-126433130D01*
X135924472Y-125739094D01*
X135925127Y-124987603D01*
X135638150Y-124293065D01*
X135107230Y-123761217D01*
X134413194Y-123473028D01*
X133661703Y-123472373D01*
X132967165Y-123759350D01*
X132765915Y-123960249D01*
X132567230Y-123761217D01*
X131873194Y-123473028D01*
X131121703Y-123472373D01*
X130427165Y-123759350D01*
X129895317Y-124290270D01*
X129727382Y-124694703D01*
X129630072Y-124840337D01*
X129491000Y-125539500D01*
X129491000Y-127129172D01*
X129459452Y-127175344D01*
X129368921Y-127622400D01*
X129368921Y-129222400D01*
X129447506Y-129640041D01*
X129664964Y-129977981D01*
X129499932Y-130224969D01*
X129353248Y-130962400D01*
X129492546Y-131662700D01*
X129215017Y-131662700D01*
X129066494Y-131601028D01*
X128315003Y-131600373D01*
X127620465Y-131887350D01*
X127419215Y-132088249D01*
X127220530Y-131889217D01*
X126526494Y-131601028D01*
X125775003Y-131600373D01*
X125080465Y-131887350D01*
X124548617Y-132418270D01*
X124260428Y-133112306D01*
X124259773Y-133863797D01*
X124546750Y-134558335D01*
X125077670Y-135090183D01*
X125771706Y-135378372D01*
X126523197Y-135379027D01*
X127217735Y-135092050D01*
X127418985Y-134891151D01*
X127617670Y-135090183D01*
X127768406Y-135152774D01*
X129413976Y-136798344D01*
X129491000Y-136849810D01*
X129491000Y-137889873D01*
X129353248Y-138582400D01*
X129389418Y-138764241D01*
X128837894Y-138535228D01*
X128086403Y-138534573D01*
X127391865Y-138821550D01*
X127190615Y-139022449D01*
X126991930Y-138823417D01*
X126297894Y-138535228D01*
X125546403Y-138534573D01*
X124851865Y-138821550D01*
X124320017Y-139352470D01*
X124031828Y-140046506D01*
X124031173Y-140797997D01*
X124318150Y-141492535D01*
X124849070Y-142024383D01*
X125372428Y-142241700D01*
X124889965Y-142441050D01*
X124358117Y-142971970D01*
X124069928Y-143666006D01*
X124069273Y-144417497D01*
X124356250Y-145112035D01*
X124887170Y-145643883D01*
X125391525Y-145853310D01*
X124889965Y-146060550D01*
X124358117Y-146591470D01*
X124069928Y-147285506D01*
X124069273Y-148036997D01*
X124356250Y-148731535D01*
X124887170Y-149263383D01*
X125581206Y-149551572D01*
X126332697Y-149552227D01*
X127027235Y-149265250D01*
X127228485Y-149064351D01*
X127427170Y-149263383D01*
X128121206Y-149551572D01*
X128872697Y-149552227D01*
X129023540Y-149489900D01*
X129857500Y-149489900D01*
X130556663Y-149350828D01*
X131149384Y-148954784D01*
X132178376Y-147925792D01*
X132718347Y-147564995D01*
X133136068Y-146939831D01*
X133282752Y-146202400D01*
X133136068Y-145464969D01*
X132780217Y-144932400D01*
X133136068Y-144399831D01*
X133282752Y-143662400D01*
X133136068Y-142924969D01*
X132780217Y-142392400D01*
X133136068Y-141859831D01*
X133282752Y-141122400D01*
X133140928Y-140409400D01*
X137115072Y-140409400D01*
X136973248Y-141122400D01*
X137119932Y-141859831D01*
X137475783Y-142392400D01*
X137119932Y-142924969D01*
X136973248Y-143662400D01*
X137119932Y-144399831D01*
X137475783Y-144932400D01*
X137119932Y-145464969D01*
X136973248Y-146202400D01*
X137119932Y-146939831D01*
X137537653Y-147564995D01*
X138162817Y-147982716D01*
X138900248Y-148129400D01*
X138975752Y-148129400D01*
X139713183Y-147982716D01*
X140338347Y-147564995D01*
X140756068Y-146939831D01*
X140902752Y-146202400D01*
X140760928Y-145489400D01*
X142506972Y-145489400D01*
X143493956Y-146476384D01*
X144086677Y-146872428D01*
X144785840Y-147011500D01*
X146536783Y-147011500D01*
X146685306Y-147073172D01*
X147436797Y-147073827D01*
X148131335Y-146786850D01*
X148173000Y-146745258D01*
X148173000Y-146931232D01*
X146817232Y-148287000D01*
X138938000Y-148287000D01*
X138238837Y-148426072D01*
X137646116Y-148822116D01*
X136109232Y-150359000D01*
X135636000Y-150359000D01*
X135402000Y-150405545D01*
X135168000Y-150359000D01*
X134907917Y-150359000D01*
X134759394Y-150297328D01*
X134007903Y-150296673D01*
X133313365Y-150583650D01*
X132781517Y-151114570D01*
X132493328Y-151808606D01*
X132492673Y-152560097D01*
X132721128Y-153113000D01*
X127042456Y-153113000D01*
X127270672Y-152563394D01*
X127271327Y-151811903D01*
X126984350Y-151117365D01*
X126453430Y-150585517D01*
X125759394Y-150297328D01*
X125007903Y-150296673D01*
X124857060Y-150359000D01*
X123598287Y-150359000D01*
X123739000Y-149651589D01*
X123739000Y-149560411D01*
X123561868Y-148669907D01*
X123057437Y-147914974D01*
X122357358Y-147447196D01*
X122508097Y-147447327D01*
X123202635Y-147160350D01*
X123734483Y-146629430D01*
X124022672Y-145935394D01*
X124023327Y-145183903D01*
X123736350Y-144489365D01*
X123205430Y-143957517D01*
X123054694Y-143894926D01*
X118075884Y-138916116D01*
X118004824Y-138868635D01*
X117483163Y-138520072D01*
X116784000Y-138381000D01*
X116609228Y-138381000D01*
X116563056Y-138349452D01*
X116116000Y-138258921D01*
X114516000Y-138258921D01*
X114098359Y-138337506D01*
X113760419Y-138554964D01*
X113513431Y-138389932D01*
X112859933Y-138259943D01*
X113164463Y-138056463D01*
X113517152Y-137528626D01*
X113635808Y-136932097D01*
X120244673Y-136932097D01*
X120531650Y-137626635D01*
X121062570Y-138158483D01*
X121756606Y-138446672D01*
X122508097Y-138447327D01*
X123202635Y-138160350D01*
X123734483Y-137629430D01*
X124022672Y-136935394D01*
X124023327Y-136183903D01*
X123736350Y-135489365D01*
X123205430Y-134957517D01*
X122511394Y-134669328D01*
X121759903Y-134668673D01*
X121065365Y-134955650D01*
X120533517Y-135486570D01*
X120245328Y-136180606D01*
X120244673Y-136932097D01*
X113635808Y-136932097D01*
X113641000Y-136906000D01*
X113517152Y-136283374D01*
X113164463Y-135755537D01*
X112910463Y-135501537D01*
X112825175Y-135444550D01*
X113160347Y-135220595D01*
X113578068Y-134595431D01*
X113724752Y-133858000D01*
X113578068Y-133120569D01*
X113222217Y-132588000D01*
X113578068Y-132055431D01*
X113724752Y-131318000D01*
X113578068Y-130580569D01*
X113222217Y-130048000D01*
X113578068Y-129515431D01*
X113724752Y-128778000D01*
X113578068Y-128040569D01*
X113410418Y-127789663D01*
X113618548Y-127485056D01*
X113709079Y-127038000D01*
X113709079Y-125438000D01*
X113630494Y-125020359D01*
X113587000Y-124952767D01*
X113587000Y-123692768D01*
X118064768Y-119215000D01*
X119886083Y-119215000D01*
X120034606Y-119276672D01*
G36*
X167672725Y-146380493D02*
X167171365Y-146587650D01*
X166639517Y-147118570D01*
X166613404Y-147181457D01*
X166121026Y-146444563D01*
X165366093Y-145940132D01*
X164475589Y-145763000D01*
X164384411Y-145763000D01*
X163727000Y-145893767D01*
X163727000Y-143635917D01*
X163788672Y-143487394D01*
X163789274Y-142797000D01*
X164089232Y-142797000D01*
X167672725Y-146380493D01*
X167672725Y-146380493D01*
G37*
X167672725Y-146380493D02*
X167171365Y-146587650D01*
X166639517Y-147118570D01*
X166613404Y-147181457D01*
X166121026Y-146444563D01*
X165366093Y-145940132D01*
X164475589Y-145763000D01*
X164384411Y-145763000D01*
X163727000Y-145893767D01*
X163727000Y-143635917D01*
X163788672Y-143487394D01*
X163789274Y-142797000D01*
X164089232Y-142797000D01*
X167672725Y-146380493D01*
G36*
X151554200Y-125943968D02*
X151554200Y-130285983D01*
X151492528Y-130434506D01*
X151491873Y-131185997D01*
X151554200Y-131336840D01*
X151554200Y-133380054D01*
X151215294Y-133239328D01*
X150463803Y-133238673D01*
X149769265Y-133525650D01*
X149237417Y-134056570D01*
X148949228Y-134750606D01*
X148948573Y-135502097D01*
X149235550Y-136196635D01*
X149480310Y-136441822D01*
X148708116Y-137214016D01*
X148312072Y-137806737D01*
X148173000Y-138505900D01*
X148173000Y-143622955D01*
X148134130Y-143584017D01*
X147440094Y-143295828D01*
X146688603Y-143295173D01*
X146537760Y-143357500D01*
X145542608Y-143357500D01*
X144982622Y-142797514D01*
X144921210Y-142648885D01*
X144390290Y-142117037D01*
X143696254Y-141828848D01*
X142944763Y-141828193D01*
X142927321Y-141835400D01*
X140760928Y-141835400D01*
X140902752Y-141122400D01*
X140760928Y-140409400D01*
X141072651Y-140409400D01*
X141319046Y-140511712D01*
X142070537Y-140512367D01*
X142765075Y-140225390D01*
X142966325Y-140024491D01*
X143165010Y-140223523D01*
X143859046Y-140511712D01*
X144610537Y-140512367D01*
X145305075Y-140225390D01*
X145836923Y-139694470D01*
X146125112Y-139000434D01*
X146125767Y-138248943D01*
X145838790Y-137554405D01*
X145307870Y-137022557D01*
X144613834Y-136734368D01*
X143862343Y-136733713D01*
X143167805Y-137020690D01*
X142966555Y-137221589D01*
X142767870Y-137022557D01*
X142073834Y-136734368D01*
X141322343Y-136733713D01*
X141269856Y-136755400D01*
X140765000Y-136755400D01*
X140765000Y-136734927D01*
X140902752Y-136042400D01*
X140756068Y-135304969D01*
X140400217Y-134772400D01*
X140756068Y-134239831D01*
X140771748Y-134161000D01*
X143002000Y-134161000D01*
X143701163Y-134021928D01*
X144293884Y-133625884D01*
X145673084Y-132246684D01*
X145784037Y-132080631D01*
X145981683Y-131883330D01*
X146269872Y-131189294D01*
X146270527Y-130437803D01*
X146208200Y-130286960D01*
X146208200Y-129813568D01*
X147264006Y-128757762D01*
X147412635Y-128696350D01*
X147944483Y-128165430D01*
X148232672Y-127471394D01*
X148233327Y-126719903D01*
X147946350Y-126025365D01*
X147446858Y-125525000D01*
X151130000Y-125525000D01*
X151134364Y-125524132D01*
X151554200Y-125943968D01*
X151554200Y-125943968D01*
G37*
X151554200Y-125943968D02*
X151554200Y-130285983D01*
X151492528Y-130434506D01*
X151491873Y-131185997D01*
X151554200Y-131336840D01*
X151554200Y-133380054D01*
X151215294Y-133239328D01*
X150463803Y-133238673D01*
X149769265Y-133525650D01*
X149237417Y-134056570D01*
X148949228Y-134750606D01*
X148948573Y-135502097D01*
X149235550Y-136196635D01*
X149480310Y-136441822D01*
X148708116Y-137214016D01*
X148312072Y-137806737D01*
X148173000Y-138505900D01*
X148173000Y-143622955D01*
X148134130Y-143584017D01*
X147440094Y-143295828D01*
X146688603Y-143295173D01*
X146537760Y-143357500D01*
X145542608Y-143357500D01*
X144982622Y-142797514D01*
X144921210Y-142648885D01*
X144390290Y-142117037D01*
X143696254Y-141828848D01*
X142944763Y-141828193D01*
X142927321Y-141835400D01*
X140760928Y-141835400D01*
X140902752Y-141122400D01*
X140760928Y-140409400D01*
X141072651Y-140409400D01*
X141319046Y-140511712D01*
X142070537Y-140512367D01*
X142765075Y-140225390D01*
X142966325Y-140024491D01*
X143165010Y-140223523D01*
X143859046Y-140511712D01*
X144610537Y-140512367D01*
X145305075Y-140225390D01*
X145836923Y-139694470D01*
X146125112Y-139000434D01*
X146125767Y-138248943D01*
X145838790Y-137554405D01*
X145307870Y-137022557D01*
X144613834Y-136734368D01*
X143862343Y-136733713D01*
X143167805Y-137020690D01*
X142966555Y-137221589D01*
X142767870Y-137022557D01*
X142073834Y-136734368D01*
X141322343Y-136733713D01*
X141269856Y-136755400D01*
X140765000Y-136755400D01*
X140765000Y-136734927D01*
X140902752Y-136042400D01*
X140756068Y-135304969D01*
X140400217Y-134772400D01*
X140756068Y-134239831D01*
X140771748Y-134161000D01*
X143002000Y-134161000D01*
X143701163Y-134021928D01*
X144293884Y-133625884D01*
X145673084Y-132246684D01*
X145784037Y-132080631D01*
X145981683Y-131883330D01*
X146269872Y-131189294D01*
X146270527Y-130437803D01*
X146208200Y-130286960D01*
X146208200Y-129813568D01*
X147264006Y-128757762D01*
X147412635Y-128696350D01*
X147944483Y-128165430D01*
X148232672Y-127471394D01*
X148233327Y-126719903D01*
X147946350Y-126025365D01*
X147446858Y-125525000D01*
X151130000Y-125525000D01*
X151134364Y-125524132D01*
X151554200Y-125943968D01*
G36*
X174182569Y-136818068D02*
X174920000Y-136964752D01*
X175657431Y-136818068D01*
X175911719Y-136648158D01*
X176168116Y-137031884D01*
X177548116Y-138411884D01*
X178140837Y-138807928D01*
X178840000Y-138947000D01*
X181383313Y-138947000D01*
X181281328Y-139192606D01*
X181280673Y-139944097D01*
X181567650Y-140638635D01*
X181721746Y-140793000D01*
X180692527Y-140793000D01*
X180000000Y-140655248D01*
X179262569Y-140801932D01*
X178730000Y-141157783D01*
X178197431Y-140801932D01*
X177460000Y-140655248D01*
X176722569Y-140801932D01*
X176190000Y-141157783D01*
X175657431Y-140801932D01*
X174920000Y-140655248D01*
X174182569Y-140801932D01*
X173650000Y-141157783D01*
X173117431Y-140801932D01*
X172380000Y-140655248D01*
X171642569Y-140801932D01*
X171017405Y-141219653D01*
X170947717Y-141323949D01*
X169312719Y-139688951D01*
X169744097Y-139689327D01*
X170438635Y-139402350D01*
X170970483Y-138871430D01*
X171258672Y-138177394D01*
X171259327Y-137425903D01*
X171119295Y-137087000D01*
X172120000Y-137087000D01*
X172819163Y-136947928D01*
X172969463Y-136847501D01*
X173117431Y-136818068D01*
X173650000Y-136462217D01*
X174182569Y-136818068D01*
X174182569Y-136818068D01*
G37*
X174182569Y-136818068D02*
X174920000Y-136964752D01*
X175657431Y-136818068D01*
X175911719Y-136648158D01*
X176168116Y-137031884D01*
X177548116Y-138411884D01*
X178140837Y-138807928D01*
X178840000Y-138947000D01*
X181383313Y-138947000D01*
X181281328Y-139192606D01*
X181280673Y-139944097D01*
X181567650Y-140638635D01*
X181721746Y-140793000D01*
X180692527Y-140793000D01*
X180000000Y-140655248D01*
X179262569Y-140801932D01*
X178730000Y-141157783D01*
X178197431Y-140801932D01*
X177460000Y-140655248D01*
X176722569Y-140801932D01*
X176190000Y-141157783D01*
X175657431Y-140801932D01*
X174920000Y-140655248D01*
X174182569Y-140801932D01*
X173650000Y-141157783D01*
X173117431Y-140801932D01*
X172380000Y-140655248D01*
X171642569Y-140801932D01*
X171017405Y-141219653D01*
X170947717Y-141323949D01*
X169312719Y-139688951D01*
X169744097Y-139689327D01*
X170438635Y-139402350D01*
X170970483Y-138871430D01*
X171258672Y-138177394D01*
X171259327Y-137425903D01*
X171119295Y-137087000D01*
X172120000Y-137087000D01*
X172819163Y-136947928D01*
X172969463Y-136847501D01*
X173117431Y-136818068D01*
X173650000Y-136462217D01*
X174182569Y-136818068D01*
G36*
X75174146Y-117610312D02*
X75553000Y-117610642D01*
X75553000Y-121703232D01*
X67248116Y-130008116D01*
X66852072Y-130600837D01*
X66713000Y-131300000D01*
X66713000Y-133511784D01*
X66377394Y-133372428D01*
X65625903Y-133371773D01*
X65287000Y-133511805D01*
X65287000Y-129576768D01*
X74303424Y-120560344D01*
X74699468Y-119967623D01*
X74838540Y-119268460D01*
X74838540Y-117470956D01*
X75174146Y-117610312D01*
X75174146Y-117610312D01*
G37*
X75174146Y-117610312D02*
X75553000Y-117610642D01*
X75553000Y-121703232D01*
X67248116Y-130008116D01*
X66852072Y-130600837D01*
X66713000Y-131300000D01*
X66713000Y-133511784D01*
X66377394Y-133372428D01*
X65625903Y-133371773D01*
X65287000Y-133511805D01*
X65287000Y-129576768D01*
X74303424Y-120560344D01*
X74699468Y-119967623D01*
X74838540Y-119268460D01*
X74838540Y-117470956D01*
X75174146Y-117610312D01*
G36*
X123636311Y-112134159D02*
X124359200Y-112277951D01*
X124360945Y-112277604D01*
X124369200Y-112279246D01*
X125092089Y-112135454D01*
X125158152Y-112091312D01*
X125211272Y-112358363D01*
X125550707Y-112866363D01*
X125607316Y-112951084D01*
X126724116Y-114067884D01*
X127316837Y-114463928D01*
X128016000Y-114603000D01*
X142494000Y-114603000D01*
X143193163Y-114463928D01*
X143759647Y-114085415D01*
X144355232Y-114681000D01*
X142647472Y-116388760D01*
X142234116Y-116664956D01*
X141957920Y-117078312D01*
X141414852Y-117621380D01*
X140990264Y-117196050D01*
X140989498Y-117195732D01*
X139889882Y-116096116D01*
X139870178Y-116082950D01*
X139297161Y-115700072D01*
X138597998Y-115561000D01*
X120937917Y-115561000D01*
X120789394Y-115499328D01*
X120037903Y-115498673D01*
X119887060Y-115561000D01*
X117308000Y-115561000D01*
X116608837Y-115700072D01*
X116035820Y-116082950D01*
X116016116Y-116096116D01*
X110468116Y-121644116D01*
X110301000Y-121894222D01*
X110301000Y-121082768D01*
X112332006Y-119051762D01*
X112480635Y-118990350D01*
X113012483Y-118459430D01*
X113300672Y-117765394D01*
X113301327Y-117013903D01*
X113014350Y-116319365D01*
X112483430Y-115787517D01*
X111789394Y-115499328D01*
X111037903Y-115498673D01*
X110343365Y-115785650D01*
X109811517Y-116316570D01*
X109748926Y-116467306D01*
X107182116Y-119034116D01*
X106786072Y-119626837D01*
X106647000Y-120326000D01*
X106647000Y-128292083D01*
X106585328Y-128440606D01*
X106584673Y-129192097D01*
X106871650Y-129886635D01*
X107402570Y-130418483D01*
X108096606Y-130706672D01*
X108263415Y-130706817D01*
X106983000Y-131987232D01*
X106983000Y-130810000D01*
X106843928Y-130110837D01*
X106447884Y-129518116D01*
X97101319Y-120171551D01*
X97728635Y-119912350D01*
X97929885Y-119711451D01*
X98128570Y-119910483D01*
X98822606Y-120198672D01*
X99574097Y-120199327D01*
X100268635Y-119912350D01*
X100469885Y-119711451D01*
X100668570Y-119910483D01*
X101362606Y-120198672D01*
X102114097Y-120199327D01*
X102808635Y-119912350D01*
X103009885Y-119711451D01*
X103208570Y-119910483D01*
X103902606Y-120198672D01*
X104654097Y-120199327D01*
X105348635Y-119912350D01*
X105880483Y-119381430D01*
X106168672Y-118687394D01*
X106169186Y-118098138D01*
X106314993Y-118158682D01*
X107041818Y-118159316D01*
X107713560Y-117881758D01*
X108227952Y-117368264D01*
X108228270Y-117367498D01*
X110257884Y-115337884D01*
X110653928Y-114745163D01*
X110793000Y-114046000D01*
X110793000Y-112234573D01*
X110907200Y-112257699D01*
X111557387Y-112257699D01*
X111659200Y-112277951D01*
X111761013Y-112257699D01*
X112431200Y-112257699D01*
X112848841Y-112179114D01*
X113202757Y-111951376D01*
X113476311Y-112134159D01*
X114199200Y-112277951D01*
X114200945Y-112277604D01*
X114209200Y-112279246D01*
X114932089Y-112135454D01*
X115475169Y-111772580D01*
X116016311Y-112134159D01*
X116739200Y-112277951D01*
X116740945Y-112277604D01*
X116749200Y-112279246D01*
X117472089Y-112135454D01*
X118015169Y-111772580D01*
X118556311Y-112134159D01*
X119279200Y-112277951D01*
X119280945Y-112277604D01*
X119289200Y-112279246D01*
X120012089Y-112135454D01*
X120555169Y-111772580D01*
X121096311Y-112134159D01*
X121819200Y-112277951D01*
X121820945Y-112277604D01*
X121829200Y-112279246D01*
X122552089Y-112135454D01*
X123095169Y-111772580D01*
X123636311Y-112134159D01*
X123636311Y-112134159D01*
G37*
X123636311Y-112134159D02*
X124359200Y-112277951D01*
X124360945Y-112277604D01*
X124369200Y-112279246D01*
X125092089Y-112135454D01*
X125158152Y-112091312D01*
X125211272Y-112358363D01*
X125550707Y-112866363D01*
X125607316Y-112951084D01*
X126724116Y-114067884D01*
X127316837Y-114463928D01*
X128016000Y-114603000D01*
X142494000Y-114603000D01*
X143193163Y-114463928D01*
X143759647Y-114085415D01*
X144355232Y-114681000D01*
X142647472Y-116388760D01*
X142234116Y-116664956D01*
X141957920Y-117078312D01*
X141414852Y-117621380D01*
X140990264Y-117196050D01*
X140989498Y-117195732D01*
X139889882Y-116096116D01*
X139870178Y-116082950D01*
X139297161Y-115700072D01*
X138597998Y-115561000D01*
X120937917Y-115561000D01*
X120789394Y-115499328D01*
X120037903Y-115498673D01*
X119887060Y-115561000D01*
X117308000Y-115561000D01*
X116608837Y-115700072D01*
X116035820Y-116082950D01*
X116016116Y-116096116D01*
X110468116Y-121644116D01*
X110301000Y-121894222D01*
X110301000Y-121082768D01*
X112332006Y-119051762D01*
X112480635Y-118990350D01*
X113012483Y-118459430D01*
X113300672Y-117765394D01*
X113301327Y-117013903D01*
X113014350Y-116319365D01*
X112483430Y-115787517D01*
X111789394Y-115499328D01*
X111037903Y-115498673D01*
X110343365Y-115785650D01*
X109811517Y-116316570D01*
X109748926Y-116467306D01*
X107182116Y-119034116D01*
X106786072Y-119626837D01*
X106647000Y-120326000D01*
X106647000Y-128292083D01*
X106585328Y-128440606D01*
X106584673Y-129192097D01*
X106871650Y-129886635D01*
X107402570Y-130418483D01*
X108096606Y-130706672D01*
X108263415Y-130706817D01*
X106983000Y-131987232D01*
X106983000Y-130810000D01*
X106843928Y-130110837D01*
X106447884Y-129518116D01*
X97101319Y-120171551D01*
X97728635Y-119912350D01*
X97929885Y-119711451D01*
X98128570Y-119910483D01*
X98822606Y-120198672D01*
X99574097Y-120199327D01*
X100268635Y-119912350D01*
X100469885Y-119711451D01*
X100668570Y-119910483D01*
X101362606Y-120198672D01*
X102114097Y-120199327D01*
X102808635Y-119912350D01*
X103009885Y-119711451D01*
X103208570Y-119910483D01*
X103902606Y-120198672D01*
X104654097Y-120199327D01*
X105348635Y-119912350D01*
X105880483Y-119381430D01*
X106168672Y-118687394D01*
X106169186Y-118098138D01*
X106314993Y-118158682D01*
X107041818Y-118159316D01*
X107713560Y-117881758D01*
X108227952Y-117368264D01*
X108228270Y-117367498D01*
X110257884Y-115337884D01*
X110653928Y-114745163D01*
X110793000Y-114046000D01*
X110793000Y-112234573D01*
X110907200Y-112257699D01*
X111557387Y-112257699D01*
X111659200Y-112277951D01*
X111761013Y-112257699D01*
X112431200Y-112257699D01*
X112848841Y-112179114D01*
X113202757Y-111951376D01*
X113476311Y-112134159D01*
X114199200Y-112277951D01*
X114200945Y-112277604D01*
X114209200Y-112279246D01*
X114932089Y-112135454D01*
X115475169Y-111772580D01*
X116016311Y-112134159D01*
X116739200Y-112277951D01*
X116740945Y-112277604D01*
X116749200Y-112279246D01*
X117472089Y-112135454D01*
X118015169Y-111772580D01*
X118556311Y-112134159D01*
X119279200Y-112277951D01*
X119280945Y-112277604D01*
X119289200Y-112279246D01*
X120012089Y-112135454D01*
X120555169Y-111772580D01*
X121096311Y-112134159D01*
X121819200Y-112277951D01*
X121820945Y-112277604D01*
X121829200Y-112279246D01*
X122552089Y-112135454D01*
X123095169Y-111772580D01*
X123636311Y-112134159D01*
G36*
X85426619Y-116712387D02*
X84899517Y-117238570D01*
X84611328Y-117932606D01*
X84610673Y-118684097D01*
X84877968Y-119331000D01*
X82290768Y-119331000D01*
X80540300Y-117580532D01*
X80284264Y-117324048D01*
X79613007Y-117045318D01*
X79439486Y-117045167D01*
X79692023Y-116793070D01*
X79754614Y-116642334D01*
X80015948Y-116381000D01*
X85095232Y-116381000D01*
X85426619Y-116712387D01*
X85426619Y-116712387D01*
G37*
X85426619Y-116712387D02*
X84899517Y-117238570D01*
X84611328Y-117932606D01*
X84610673Y-118684097D01*
X84877968Y-119331000D01*
X82290768Y-119331000D01*
X80540300Y-117580532D01*
X80284264Y-117324048D01*
X79613007Y-117045318D01*
X79439486Y-117045167D01*
X79692023Y-116793070D01*
X79754614Y-116642334D01*
X80015948Y-116381000D01*
X85095232Y-116381000D01*
X85426619Y-116712387D01*
G36*
X150720242Y-88593560D02*
X151233736Y-89107952D01*
X151234502Y-89108270D01*
X158858116Y-96731884D01*
X159450837Y-97127928D01*
X160150000Y-97267000D01*
X160953232Y-97267000D01*
X162003000Y-98316768D01*
X162003000Y-104549232D01*
X158001884Y-100548116D01*
X157409162Y-100152072D01*
X156710000Y-100013000D01*
X156010838Y-100152072D01*
X155418116Y-100548116D01*
X155022072Y-101140838D01*
X154959950Y-101453148D01*
X152619949Y-98817964D01*
X152587008Y-95581506D01*
X152587316Y-95228182D01*
X152309758Y-94556440D01*
X151796264Y-94042048D01*
X151125007Y-93763318D01*
X150398182Y-93762684D01*
X149726440Y-94040242D01*
X149212048Y-94553736D01*
X148933318Y-95224993D01*
X148932684Y-95951818D01*
X148936687Y-95961506D01*
X148973095Y-99538595D01*
X149033422Y-99826534D01*
X149073626Y-100117964D01*
X149106098Y-100173412D01*
X149119275Y-100236306D01*
X149285203Y-100479245D01*
X149433869Y-100733102D01*
X158399498Y-110829716D01*
X158140620Y-110936682D01*
X157626228Y-111450176D01*
X157625910Y-111450942D01*
X155318189Y-113758663D01*
X155219758Y-113520440D01*
X154743215Y-113043064D01*
X154828993Y-113078682D01*
X155555818Y-113079316D01*
X156227560Y-112801758D01*
X156741952Y-112288264D01*
X157020682Y-111617007D01*
X157021316Y-110890182D01*
X156743758Y-110218440D01*
X156230264Y-109704048D01*
X156229498Y-109703730D01*
X152930439Y-106404671D01*
X152674264Y-106148048D01*
X152003007Y-105869318D01*
X151306000Y-105868710D01*
X151306000Y-105572091D01*
X151432682Y-105267007D01*
X151433316Y-104540182D01*
X151155758Y-103868440D01*
X150642264Y-103354048D01*
X149971007Y-103075318D01*
X149244182Y-103074684D01*
X148689800Y-103303750D01*
X148689800Y-93316017D01*
X148751472Y-93167494D01*
X148752127Y-92416003D01*
X148465150Y-91721465D01*
X148264251Y-91520215D01*
X148463283Y-91321530D01*
X148751472Y-90627494D01*
X148752127Y-89876003D01*
X148581957Y-89464160D01*
X148914423Y-89398028D01*
X149507144Y-89001984D01*
X150484970Y-88024158D01*
X150720242Y-88593560D01*
X150720242Y-88593560D01*
G37*
X150720242Y-88593560D02*
X151233736Y-89107952D01*
X151234502Y-89108270D01*
X158858116Y-96731884D01*
X159450837Y-97127928D01*
X160150000Y-97267000D01*
X160953232Y-97267000D01*
X162003000Y-98316768D01*
X162003000Y-104549232D01*
X158001884Y-100548116D01*
X157409162Y-100152072D01*
X156710000Y-100013000D01*
X156010838Y-100152072D01*
X155418116Y-100548116D01*
X155022072Y-101140838D01*
X154959950Y-101453148D01*
X152619949Y-98817964D01*
X152587008Y-95581506D01*
X152587316Y-95228182D01*
X152309758Y-94556440D01*
X151796264Y-94042048D01*
X151125007Y-93763318D01*
X150398182Y-93762684D01*
X149726440Y-94040242D01*
X149212048Y-94553736D01*
X148933318Y-95224993D01*
X148932684Y-95951818D01*
X148936687Y-95961506D01*
X148973095Y-99538595D01*
X149033422Y-99826534D01*
X149073626Y-100117964D01*
X149106098Y-100173412D01*
X149119275Y-100236306D01*
X149285203Y-100479245D01*
X149433869Y-100733102D01*
X158399498Y-110829716D01*
X158140620Y-110936682D01*
X157626228Y-111450176D01*
X157625910Y-111450942D01*
X155318189Y-113758663D01*
X155219758Y-113520440D01*
X154743215Y-113043064D01*
X154828993Y-113078682D01*
X155555818Y-113079316D01*
X156227560Y-112801758D01*
X156741952Y-112288264D01*
X157020682Y-111617007D01*
X157021316Y-110890182D01*
X156743758Y-110218440D01*
X156230264Y-109704048D01*
X156229498Y-109703730D01*
X152930439Y-106404671D01*
X152674264Y-106148048D01*
X152003007Y-105869318D01*
X151306000Y-105868710D01*
X151306000Y-105572091D01*
X151432682Y-105267007D01*
X151433316Y-104540182D01*
X151155758Y-103868440D01*
X150642264Y-103354048D01*
X149971007Y-103075318D01*
X149244182Y-103074684D01*
X148689800Y-103303750D01*
X148689800Y-93316017D01*
X148751472Y-93167494D01*
X148752127Y-92416003D01*
X148465150Y-91721465D01*
X148264251Y-91520215D01*
X148463283Y-91321530D01*
X148751472Y-90627494D01*
X148752127Y-89876003D01*
X148581957Y-89464160D01*
X148914423Y-89398028D01*
X149507144Y-89001984D01*
X150484970Y-88024158D01*
X150720242Y-88593560D01*
G36*
X173585328Y-67868606D02*
X173584673Y-68620097D01*
X173724705Y-68959000D01*
X172292000Y-68959000D01*
X171592838Y-69098071D01*
X171000116Y-69494116D01*
X168915232Y-71579000D01*
X158106760Y-71579000D01*
X157407598Y-71718071D01*
X156814876Y-72114116D01*
X154278036Y-74650956D01*
X153881992Y-75243677D01*
X153742920Y-75942840D01*
X153742920Y-79598672D01*
X153551307Y-79790285D01*
X153457928Y-79320837D01*
X153061884Y-78728116D01*
X151441884Y-77108116D01*
X151263315Y-76988800D01*
X150849163Y-76712072D01*
X150150000Y-76573000D01*
X143610000Y-76573000D01*
X142910837Y-76712072D01*
X142496685Y-76988800D01*
X142318116Y-77108116D01*
X141908523Y-77517709D01*
X142013730Y-76988800D01*
X141869455Y-76263481D01*
X141505511Y-75718800D01*
X141869455Y-75174119D01*
X142013730Y-74448800D01*
X141869455Y-73723481D01*
X141859779Y-73709000D01*
X144780000Y-73709000D01*
X145479163Y-73569928D01*
X146071884Y-73173884D01*
X151712768Y-67533000D01*
X173724684Y-67533000D01*
X173585328Y-67868606D01*
X173585328Y-67868606D01*
G37*
X173585328Y-67868606D02*
X173584673Y-68620097D01*
X173724705Y-68959000D01*
X172292000Y-68959000D01*
X171592838Y-69098071D01*
X171000116Y-69494116D01*
X168915232Y-71579000D01*
X158106760Y-71579000D01*
X157407598Y-71718071D01*
X156814876Y-72114116D01*
X154278036Y-74650956D01*
X153881992Y-75243677D01*
X153742920Y-75942840D01*
X153742920Y-79598672D01*
X153551307Y-79790285D01*
X153457928Y-79320837D01*
X153061884Y-78728116D01*
X151441884Y-77108116D01*
X151263315Y-76988800D01*
X150849163Y-76712072D01*
X150150000Y-76573000D01*
X143610000Y-76573000D01*
X142910837Y-76712072D01*
X142496685Y-76988800D01*
X142318116Y-77108116D01*
X141908523Y-77517709D01*
X142013730Y-76988800D01*
X141869455Y-76263481D01*
X141505511Y-75718800D01*
X141869455Y-75174119D01*
X142013730Y-74448800D01*
X141869455Y-73723481D01*
X141859779Y-73709000D01*
X144780000Y-73709000D01*
X145479163Y-73569928D01*
X146071884Y-73173884D01*
X151712768Y-67533000D01*
X173724684Y-67533000D01*
X173585328Y-67868606D01*
M02*
