G04 #@! TF.FileFunction,Copper,L2,Bot,Signal*
%FSLAX46Y46*%
G04 Gerber Fmt 4.6, Leading zero omitted, Abs format (unit mm)*
G04 Created by KiCad (PCBNEW 4.0.7) date 05/29/18 17:51:41*
%MOMM*%
%LPD*%
G01*
G04 APERTURE LIST*
%ADD10C,0.100000*%
%ADD11O,1.524000X2.199640*%
%ADD12O,1.524000X2.197100*%
%ADD13O,1.998980X1.539240*%
%ADD14O,1.998980X1.536700*%
%ADD15R,1.700000X1.700000*%
%ADD16O,1.700000X1.700000*%
%ADD17R,1.524000X2.199640*%
%ADD18C,1.524000*%
%ADD19R,2.400000X2.400000*%
%ADD20O,2.400000X2.400000*%
%ADD21R,1.600000X1.600000*%
%ADD22O,1.600000X1.600000*%
%ADD23C,0.600000*%
%ADD24C,1.000000*%
G04 APERTURE END LIST*
D10*
D11*
X71019200Y-61748800D03*
X73559200Y-61748800D03*
X76099200Y-61748800D03*
X78639200Y-61748800D03*
X81179200Y-61748800D03*
X83719200Y-61748800D03*
X86259200Y-61748800D03*
X88799200Y-61748800D03*
X93879200Y-61748800D03*
X96419200Y-61748800D03*
X98959200Y-61748800D03*
X101499200Y-61748800D03*
X104039200Y-61748800D03*
X106579200Y-61748800D03*
X109119200Y-61748800D03*
X111659200Y-61748800D03*
X116739200Y-61748800D03*
X119279200Y-61748800D03*
X121819200Y-61748800D03*
D12*
X124359200Y-61748800D03*
X126899200Y-61748800D03*
X129439200Y-61748800D03*
X131979200Y-61748800D03*
X134519200Y-61748800D03*
D13*
X136810280Y-66828800D03*
X136810280Y-69368800D03*
X136810280Y-71908800D03*
X136810280Y-74448800D03*
X136810280Y-76988800D03*
X136810280Y-79528800D03*
X136810280Y-82068800D03*
X136810280Y-84608800D03*
X136810280Y-87148800D03*
X136810280Y-89688800D03*
X136810280Y-92228800D03*
X136810280Y-94768800D03*
X136810280Y-97308800D03*
X136810280Y-99848800D03*
X136810280Y-102388800D03*
X136810280Y-104928800D03*
X136810280Y-107468800D03*
X136810280Y-110008800D03*
D14*
X139845580Y-66828800D03*
X139845580Y-69368800D03*
X139845580Y-71908800D03*
X139845580Y-74448800D03*
X139845580Y-76988800D03*
X139845580Y-79528800D03*
X139845580Y-82068800D03*
X139845580Y-84608800D03*
X139845580Y-87148800D03*
X139845580Y-89688800D03*
X139845580Y-92228800D03*
X139845580Y-94768800D03*
X139845580Y-97308800D03*
X139845580Y-99848800D03*
X139845580Y-102388800D03*
X139845580Y-104928800D03*
X139845580Y-107468800D03*
X139845580Y-110008800D03*
D12*
X129439200Y-110008800D03*
X126899200Y-110008800D03*
X124359200Y-110008800D03*
X121819200Y-110008800D03*
X119279200Y-110008800D03*
X116739200Y-110008800D03*
X114199200Y-110008800D03*
X111659200Y-110008800D03*
X106579200Y-110008800D03*
X104039200Y-110008800D03*
X101499200Y-110008800D03*
X98959200Y-110008800D03*
X96419200Y-110008800D03*
X93879200Y-110008800D03*
X91339200Y-110008800D03*
X88799200Y-110008800D03*
X84735200Y-110008800D03*
X82195200Y-110008800D03*
X79655200Y-110008800D03*
X77115200Y-110008800D03*
X74575200Y-110008800D03*
X72035200Y-110008800D03*
X69495200Y-110008800D03*
X66955200Y-110008800D03*
X64415200Y-110008800D03*
X61875200Y-110008800D03*
D15*
X61870000Y-109970000D03*
D16*
X64410000Y-109970000D03*
X66950000Y-109970000D03*
X69490000Y-109970000D03*
X72030000Y-109970000D03*
X74570000Y-109970000D03*
X77110000Y-109970000D03*
X79650000Y-109970000D03*
X82190000Y-109970000D03*
X84730000Y-109970000D03*
D17*
X88809200Y-109998800D03*
D11*
X91349200Y-109998800D03*
X93889200Y-109998800D03*
X96429200Y-109998800D03*
X98969200Y-109998800D03*
X101509200Y-109998800D03*
X104049200Y-109998800D03*
X106589200Y-109998800D03*
D17*
X111669200Y-110008800D03*
D11*
X114209200Y-110008800D03*
X116749200Y-110008800D03*
X119289200Y-110008800D03*
X121829200Y-110008800D03*
X124369200Y-110008800D03*
X126909200Y-110008800D03*
X129449200Y-110008800D03*
D15*
X137079200Y-66898800D03*
D16*
X139619200Y-66898800D03*
X137079200Y-69438800D03*
X139619200Y-69438800D03*
X137079200Y-71978800D03*
X139619200Y-71978800D03*
X137079200Y-74518800D03*
X139619200Y-74518800D03*
X137079200Y-77058800D03*
X139619200Y-77058800D03*
X137079200Y-79598800D03*
X139619200Y-79598800D03*
X137079200Y-82138800D03*
X139619200Y-82138800D03*
X137079200Y-84678800D03*
X139619200Y-84678800D03*
X137079200Y-87218800D03*
X139619200Y-87218800D03*
X137079200Y-89758800D03*
X139619200Y-89758800D03*
X137079200Y-92298800D03*
X139619200Y-92298800D03*
X137079200Y-94838800D03*
X139619200Y-94838800D03*
X137079200Y-97378800D03*
X139619200Y-97378800D03*
X137079200Y-99918800D03*
X139619200Y-99918800D03*
X137079200Y-102458800D03*
X139619200Y-102458800D03*
X137079200Y-104998800D03*
X139619200Y-104998800D03*
X137079200Y-107538800D03*
X139619200Y-107538800D03*
X137079200Y-110078800D03*
X139619200Y-110078800D03*
D17*
X93879200Y-61748800D03*
D11*
X96419200Y-61748800D03*
X98959200Y-61748800D03*
X101499200Y-61748800D03*
X104039200Y-61748800D03*
X106579200Y-61748800D03*
X109119200Y-61748800D03*
X111659200Y-61748800D03*
D17*
X116739200Y-61748800D03*
D11*
X119279200Y-61748800D03*
X121819200Y-61748800D03*
X124359200Y-61748800D03*
X126899200Y-61748800D03*
X129439200Y-61748800D03*
X131979200Y-61748800D03*
X134519200Y-61748800D03*
D17*
X71019200Y-61748800D03*
D11*
X73559200Y-61748800D03*
X76099200Y-61748800D03*
X78639200Y-61748800D03*
X81179200Y-61748800D03*
X83719200Y-61748800D03*
X86259200Y-61748800D03*
X88799200Y-61748800D03*
D18*
X146862800Y-85170100D03*
X146862800Y-87710100D03*
X146862800Y-90250100D03*
X146862800Y-92790100D03*
X175560000Y-60540000D03*
X175560000Y-63080000D03*
X175560000Y-65620000D03*
X175560000Y-68160000D03*
X175560000Y-70700000D03*
X175560000Y-73240000D03*
X86500000Y-118310000D03*
X89040000Y-118310000D03*
X91580000Y-118310000D03*
X94120000Y-118310000D03*
X96660000Y-118310000D03*
X99200000Y-118310000D03*
X101740000Y-118310000D03*
X104280000Y-118310000D03*
D19*
X161890000Y-148090000D03*
D20*
X164430000Y-148090000D03*
D19*
X70520000Y-151550000D03*
D20*
X67980000Y-151550000D03*
D19*
X121412000Y-152146000D03*
D20*
X121412000Y-149606000D03*
D18*
X209690000Y-81960000D03*
X209690000Y-87040000D03*
X209690000Y-92120000D03*
X209740000Y-97280000D03*
X209740000Y-102360000D03*
X209740000Y-107440000D03*
X209800000Y-112810000D03*
X209800000Y-117890000D03*
X209800000Y-122970000D03*
X209850000Y-128230000D03*
X209850000Y-133310000D03*
X209850000Y-138390000D03*
X161900000Y-134110000D03*
X161900000Y-143110000D03*
X162010000Y-122370000D03*
X162010000Y-131370000D03*
X177240000Y-148190000D03*
X168240000Y-148190000D03*
X187990000Y-135110000D03*
X187990000Y-144110000D03*
X83040000Y-151730000D03*
X74040000Y-151730000D03*
X74220000Y-138860000D03*
X74220000Y-147860000D03*
X82788000Y-128738000D03*
X91788000Y-128738000D03*
X95012000Y-155996000D03*
X86012000Y-155996000D03*
X86090000Y-151090000D03*
X95090000Y-151090000D03*
X94194000Y-147336000D03*
X94194000Y-138336000D03*
X100878000Y-147304000D03*
X100878000Y-156304000D03*
X92186000Y-142708000D03*
X101186000Y-142708000D03*
X101616000Y-134660000D03*
X92616000Y-134660000D03*
X108474000Y-128818000D03*
X99474000Y-128818000D03*
X120412000Y-117388000D03*
X111412000Y-117388000D03*
X134382000Y-152186000D03*
X125382000Y-152186000D03*
X109204000Y-151598000D03*
X118204000Y-151598000D03*
X109204000Y-156678000D03*
X118204000Y-156678000D03*
X122134000Y-145558000D03*
X122134000Y-136558000D03*
D21*
X161290000Y-115189000D03*
D22*
X179070000Y-107569000D03*
X163830000Y-115189000D03*
X176530000Y-107569000D03*
X166370000Y-115189000D03*
X173990000Y-107569000D03*
X168910000Y-115189000D03*
X171450000Y-107569000D03*
X171450000Y-115189000D03*
X168910000Y-107569000D03*
X173990000Y-115189000D03*
X166370000Y-107569000D03*
X176530000Y-115189000D03*
X163830000Y-107569000D03*
X179070000Y-115189000D03*
X161290000Y-107569000D03*
D18*
X55231540Y-115721640D03*
X57771540Y-115721640D03*
X60311540Y-115721640D03*
X62851540Y-115721640D03*
X65391540Y-115721640D03*
X67931540Y-115721640D03*
X70471540Y-115721640D03*
X73011540Y-115721640D03*
X75551540Y-115721640D03*
X78091540Y-115721640D03*
D21*
X131318000Y-128422400D03*
D22*
X138938000Y-146202400D03*
X131318000Y-130962400D03*
X138938000Y-143662400D03*
X131318000Y-133502400D03*
X138938000Y-141122400D03*
X131318000Y-136042400D03*
X138938000Y-138582400D03*
X131318000Y-138582400D03*
X138938000Y-136042400D03*
X131318000Y-141122400D03*
X138938000Y-133502400D03*
X131318000Y-143662400D03*
X138938000Y-130962400D03*
X131318000Y-146202400D03*
X138938000Y-128422400D03*
D18*
X131495800Y-125361700D03*
X134035800Y-125361700D03*
X128689100Y-133489700D03*
X126149100Y-133489700D03*
X128460500Y-140423900D03*
X125920500Y-140423900D03*
X128498600Y-144043400D03*
X125958600Y-144043400D03*
X128498600Y-147662900D03*
X125958600Y-147662900D03*
X167015160Y-121899680D03*
X167015160Y-119359680D03*
X180512720Y-123936760D03*
X180512720Y-126476760D03*
X141696440Y-138623040D03*
X144236440Y-138623040D03*
X156083000Y-149326600D03*
X153543000Y-149326600D03*
X153377900Y-135128000D03*
X150837900Y-135128000D03*
X183170000Y-139570000D03*
X183170000Y-142110000D03*
X169370000Y-137800000D03*
X169370000Y-135260000D03*
X83167540Y-147136000D03*
X80627540Y-147136000D03*
X85420520Y-133079640D03*
X87960520Y-133079640D03*
X86614000Y-147066000D03*
X89154000Y-147066000D03*
X99568000Y-138684000D03*
X102108000Y-138684000D03*
X116840000Y-123444000D03*
X119380000Y-123444000D03*
X114554000Y-136906000D03*
X112014000Y-136906000D03*
X118061740Y-145272760D03*
X118061740Y-147812760D03*
X153381200Y-130811900D03*
X144381200Y-130811900D03*
X147062700Y-145184500D03*
X156062700Y-145184500D03*
X144520280Y-117956840D03*
X144520280Y-126956840D03*
X143318860Y-143717520D03*
X143318860Y-152717520D03*
X184656100Y-127625600D03*
X184656100Y-118625600D03*
X189160000Y-131330000D03*
X180160000Y-131330000D03*
X161260000Y-154330000D03*
X170260000Y-154330000D03*
X166049200Y-130706500D03*
X175049200Y-130706500D03*
D21*
X177535840Y-119146320D03*
D22*
X169915840Y-126766320D03*
X174995840Y-119146320D03*
X172455840Y-126766320D03*
X172455840Y-119146320D03*
X174995840Y-126766320D03*
X169915840Y-119146320D03*
X177535840Y-126766320D03*
D21*
X180000000Y-135000000D03*
D22*
X172380000Y-142620000D03*
X177460000Y-135000000D03*
X174920000Y-142620000D03*
X174920000Y-135000000D03*
X177460000Y-142620000D03*
X172380000Y-135000000D03*
X180000000Y-142620000D03*
D21*
X80637700Y-136168280D03*
D22*
X88257700Y-143788280D03*
X80637700Y-138708280D03*
X88257700Y-141248280D03*
X80637700Y-141248280D03*
X88257700Y-138708280D03*
X80637700Y-143788280D03*
X88257700Y-136168280D03*
D21*
X111760000Y-126238000D03*
D22*
X119380000Y-133858000D03*
X111760000Y-128778000D03*
X119380000Y-131318000D03*
X111760000Y-131318000D03*
X119380000Y-128778000D03*
X111760000Y-133858000D03*
X119380000Y-126238000D03*
D21*
X115316000Y-140208000D03*
D22*
X107696000Y-147828000D03*
X112776000Y-140208000D03*
X110236000Y-147828000D03*
X110236000Y-140208000D03*
X112776000Y-147828000D03*
X107696000Y-140208000D03*
X115316000Y-147828000D03*
D18*
X55840000Y-135261100D03*
X58380000Y-135261100D03*
X60920000Y-135261100D03*
X63460000Y-135261100D03*
X66000000Y-135261100D03*
X68540000Y-135261100D03*
D21*
X180319680Y-154614880D03*
D22*
X187939680Y-146994880D03*
X182859680Y-154614880D03*
X185399680Y-146994880D03*
X185399680Y-154614880D03*
X182859680Y-146994880D03*
X187939680Y-154614880D03*
X180319680Y-146994880D03*
D18*
X209850000Y-143770000D03*
X209850000Y-148850000D03*
X209850000Y-153930000D03*
D15*
X55320000Y-54820000D03*
D16*
X57860000Y-54820000D03*
X60400000Y-54820000D03*
X62940000Y-54820000D03*
D23*
X85600000Y-76070000D03*
X79250000Y-68710000D03*
X74853800Y-75209400D03*
X54315360Y-138247120D03*
X57891680Y-138247120D03*
X183134000Y-151638000D03*
X163068000Y-151892000D03*
X141599920Y-129473960D03*
X141823440Y-132379720D03*
X153670000Y-62318900D03*
X111506000Y-52920900D03*
X66725800Y-56388000D03*
X73583800Y-56388000D03*
X111683800Y-56134000D03*
X152577800Y-67564000D03*
X149085300Y-83299300D03*
X152107900Y-86855300D03*
X143891000Y-80818798D03*
X149367240Y-81026000D03*
X153502360Y-85384640D03*
X161437320Y-93543120D03*
X161300195Y-97815365D03*
X148112802Y-95778320D03*
X148336000Y-103886000D03*
X153670000Y-114554000D03*
X156464000Y-117348000D03*
X157226000Y-119126000D03*
X158242000Y-122936000D03*
X158496000Y-134112000D03*
X159512000Y-137668000D03*
X182880000Y-150368000D03*
X130926840Y-115503960D03*
X142214600Y-115727480D03*
X146349720Y-111927640D03*
X143835120Y-108742480D03*
X141935200Y-113548160D03*
X190246000Y-152146000D03*
X193294000Y-149098000D03*
X80700000Y-113920000D03*
X82220000Y-116971642D03*
X175768000Y-145288000D03*
X105410000Y-156718000D03*
X105410000Y-152654000D03*
X81788000Y-157988000D03*
X80518000Y-154745998D03*
X151130000Y-154940000D03*
X155702000Y-153416000D03*
X143510000Y-123698000D03*
X139700000Y-124460000D03*
X97536000Y-153416000D03*
X93472000Y-153416000D03*
X183220000Y-133749998D03*
X186730000Y-140860000D03*
X190230000Y-142000000D03*
X165768020Y-112151160D03*
X159174180Y-112486440D03*
X189374815Y-121013185D03*
X186690000Y-99314000D03*
X166116000Y-97536000D03*
X159258000Y-100584000D03*
X154432000Y-100076000D03*
X84328000Y-93980000D03*
X90932000Y-93726000D03*
X115570000Y-77216000D03*
X170688000Y-99314000D03*
X182118000Y-100838000D03*
X183642000Y-120904000D03*
X188214000Y-149098000D03*
X191480002Y-148590000D03*
X192278000Y-152654000D03*
X189738000Y-155448000D03*
X188214000Y-156718000D03*
X147320000Y-156464000D03*
X135503885Y-155315885D03*
X123952000Y-149352000D03*
X116586000Y-142240000D03*
X118618000Y-140208000D03*
X186436000Y-150876000D03*
X151638000Y-120904000D03*
X143002000Y-122428000D03*
X62230000Y-122936000D03*
X90720595Y-136863405D03*
X141224000Y-118618000D03*
X147828000Y-125222000D03*
X148082000Y-137414000D03*
X151638000Y-139192000D03*
X154178000Y-140970000D03*
X157480000Y-140716000D03*
X171196000Y-148844000D03*
X172974000Y-153162000D03*
X105156000Y-132842000D03*
X79248000Y-118872000D03*
X67056000Y-118618000D03*
X71820000Y-102530000D03*
X62210000Y-89790000D03*
X148220000Y-98290000D03*
X162275520Y-109915960D03*
X157358080Y-109804200D03*
D24*
X78639200Y-61748800D02*
X78888800Y-61748800D01*
X78888800Y-61748800D02*
X79500000Y-62360000D01*
X91580000Y-118310000D02*
X91580000Y-117600000D01*
X91580000Y-117600000D02*
X87120000Y-113140000D01*
X87120000Y-113140000D02*
X87120000Y-77590000D01*
X87120000Y-77590000D02*
X85600000Y-76070000D01*
X79250000Y-68710000D02*
X79500000Y-68460000D01*
X79500000Y-68460000D02*
X79500000Y-62360000D01*
X175560000Y-70700000D02*
X160812760Y-70700000D01*
X155569920Y-80355440D02*
X155569920Y-75942840D01*
X148215260Y-87710100D02*
X155569920Y-80355440D01*
X148215260Y-87710100D02*
X146862800Y-87710100D01*
X155569920Y-75942840D02*
X160696280Y-70816480D01*
X160812760Y-70700000D02*
X160696280Y-70816480D01*
X68540000Y-135261100D02*
X68540000Y-136316080D01*
X74853800Y-79364840D02*
X74853800Y-75209400D01*
X53086000Y-101132640D02*
X74853800Y-79364840D01*
X53086000Y-137017760D02*
X53086000Y-101132640D01*
X54315360Y-138247120D02*
X53086000Y-137017760D01*
X66608960Y-138247120D02*
X57891680Y-138247120D01*
X68540000Y-136316080D02*
X66608960Y-138247120D01*
X118061740Y-147812760D02*
X118061740Y-151455740D01*
X118061740Y-151455740D02*
X118204000Y-151598000D01*
X115316000Y-147828000D02*
X118046500Y-147828000D01*
X118046500Y-147828000D02*
X118061740Y-147812760D01*
X183134000Y-151638000D02*
X182880000Y-151892000D01*
X182880000Y-151892000D02*
X163068000Y-151892000D01*
X138938000Y-138582400D02*
X131318000Y-138582400D01*
X68540000Y-135261100D02*
X68540000Y-127210000D01*
X78091540Y-117658460D02*
X78091540Y-115721640D01*
X68540000Y-127210000D02*
X78091540Y-117658460D01*
X89040000Y-118310000D02*
X89040000Y-117870000D01*
X89040000Y-117870000D02*
X86891640Y-115721640D01*
X86891640Y-115721640D02*
X78091540Y-115721640D01*
X139599200Y-110008800D02*
X141860400Y-110008800D01*
X142214600Y-92358300D02*
X146862800Y-87710100D01*
X142214600Y-109654600D02*
X142214600Y-92358300D01*
X141860400Y-110008800D02*
X142214600Y-109654600D01*
X144520280Y-117956840D02*
X144520280Y-112277520D01*
X142251560Y-110008800D02*
X139599200Y-110008800D01*
X144520280Y-112277520D02*
X142251560Y-110008800D01*
X141696440Y-138623040D02*
X141696440Y-132506720D01*
X141376400Y-121100720D02*
X144520280Y-117956840D01*
X141376400Y-129250440D02*
X141376400Y-121100720D01*
X141599920Y-129473960D02*
X141376400Y-129250440D01*
X141696440Y-132506720D02*
X141823440Y-132379720D01*
X138938000Y-138582400D02*
X138938000Y-136042400D01*
X138938000Y-138582400D02*
X141655800Y-138582400D01*
X141655800Y-138582400D02*
X141696440Y-138623040D01*
X131318000Y-136042400D02*
X131318000Y-138582400D01*
X130705860Y-135506460D02*
X130705860Y-134393940D01*
X130705860Y-134393940D02*
X129801620Y-133489700D01*
X131318000Y-136042400D02*
X131241800Y-136042400D01*
X131241800Y-136042400D02*
X130705860Y-135506460D01*
X130705860Y-135506460D02*
X128689100Y-133489700D01*
X131318000Y-136042400D02*
X131318000Y-133502400D01*
X128689100Y-133489700D02*
X129801620Y-133489700D01*
X129801620Y-133489700D02*
X131305300Y-133489700D01*
X131305300Y-133489700D02*
X131318000Y-133502400D01*
X121412000Y-152146000D02*
X118752000Y-152146000D01*
X118752000Y-152146000D02*
X118204000Y-151598000D01*
X125382000Y-152186000D02*
X121452000Y-152186000D01*
X121452000Y-152186000D02*
X121412000Y-152146000D01*
X209690000Y-81960000D02*
X201760000Y-81960000D01*
X195520000Y-75380000D02*
X195491600Y-75380000D01*
X195520000Y-75720000D02*
X195520000Y-75380000D01*
X201760000Y-81960000D02*
X195520000Y-75720000D01*
X116739200Y-61748800D02*
X116739200Y-56577700D01*
X195491600Y-69596500D02*
X195491600Y-75380000D01*
X195491600Y-75380000D02*
X195880000Y-76080000D01*
X178181000Y-52285900D02*
X195491600Y-69596500D01*
X121031000Y-52285900D02*
X178181000Y-52285900D01*
X116739200Y-56577700D02*
X121031000Y-52285900D01*
X195467450Y-87332550D02*
X209397450Y-87332550D01*
X209397450Y-87332550D02*
X209690000Y-87040000D01*
X119279200Y-57085700D02*
X122555000Y-53809900D01*
X122555000Y-53809900D02*
X177419000Y-53809900D01*
X177419000Y-53809900D02*
X192405000Y-68795900D01*
X192405000Y-68795900D02*
X192405000Y-84270100D01*
X192405000Y-84270100D02*
X195467450Y-87332550D01*
X195467450Y-87332550D02*
X195491600Y-87356700D01*
X119279200Y-57085700D02*
X119279200Y-61748800D01*
X209373300Y-92436700D02*
X195491600Y-92436700D01*
X121819200Y-58355700D02*
X125095000Y-55079900D01*
X125095000Y-55079900D02*
X175895000Y-55079900D01*
X175895000Y-55079900D02*
X190881000Y-70065900D01*
X190881000Y-70065900D02*
X190881000Y-87826100D01*
X190881000Y-87826100D02*
X195491600Y-92436700D01*
X121819200Y-58355700D02*
X121819200Y-61748800D01*
X209373300Y-92436700D02*
X209690000Y-92120000D01*
X195379840Y-97424740D02*
X209595260Y-97424740D01*
X209595260Y-97424740D02*
X209740000Y-97280000D01*
X124359200Y-61748800D02*
X124359200Y-59117700D01*
X189103000Y-91147900D02*
X195379840Y-97424740D01*
X189103000Y-71081900D02*
X189103000Y-91147900D01*
X174879000Y-56857900D02*
X189103000Y-71081900D01*
X126619000Y-56857900D02*
X174879000Y-56857900D01*
X124359200Y-59117700D02*
X126619000Y-56857900D01*
X195379840Y-97424740D02*
X195379840Y-97666560D01*
X175560000Y-63080000D02*
X160812760Y-63080000D01*
X154547580Y-63196480D02*
X153670000Y-62318900D01*
X111506000Y-52920900D02*
X73914000Y-52920900D01*
X73914000Y-52920900D02*
X63500000Y-63334900D01*
X63500000Y-63334900D02*
X63500000Y-69176900D01*
X63500000Y-69176900D02*
X65532000Y-71208900D01*
X65532000Y-71208900D02*
X125730000Y-71208900D01*
X125730000Y-71208900D02*
X127570100Y-69368800D01*
X127570100Y-69368800D02*
X137059200Y-69368800D01*
X160696280Y-63196480D02*
X154547580Y-63196480D01*
X160812760Y-63080000D02*
X160696280Y-63196480D01*
X175560000Y-68160000D02*
X159812960Y-68160000D01*
X159812960Y-68160000D02*
X159696480Y-68276480D01*
X160696280Y-68276480D02*
X159696480Y-68276480D01*
X159696480Y-68276480D02*
X153290280Y-68276480D01*
X128675000Y-71908800D02*
X137059200Y-71908800D01*
X126923800Y-73660000D02*
X128675000Y-71908800D01*
X64947800Y-73660000D02*
X126923800Y-73660000D01*
X61391800Y-70104000D02*
X64947800Y-73660000D01*
X61391800Y-61722000D02*
X61391800Y-70104000D01*
X66725800Y-56388000D02*
X61391800Y-61722000D01*
X111429800Y-56388000D02*
X73583800Y-56388000D01*
X111683800Y-56134000D02*
X111429800Y-56388000D01*
X153290280Y-68276480D02*
X152577800Y-67564000D01*
X175560000Y-60540000D02*
X160130000Y-60540000D01*
X160130000Y-60540000D02*
X160013520Y-60656480D01*
X160696280Y-60656480D02*
X160013520Y-60656480D01*
X160013520Y-60656480D02*
X152436820Y-60656480D01*
X143724500Y-69368800D02*
X139599200Y-69368800D01*
X152436820Y-60656480D02*
X143724500Y-69368800D01*
X139659200Y-69428800D02*
X139599200Y-69368800D01*
X139899200Y-69668800D02*
X139599200Y-69368800D01*
X175560000Y-65620000D02*
X160812760Y-65620000D01*
X151022040Y-65736480D02*
X144849720Y-71908800D01*
X144849720Y-71908800D02*
X139599200Y-71908800D01*
X160696280Y-65736480D02*
X151022040Y-65736480D01*
X160812760Y-65620000D02*
X160696280Y-65736480D01*
X139619200Y-71978800D02*
X139599200Y-71908800D01*
X163830000Y-107569000D02*
X163830000Y-98577400D01*
X147854800Y-82068800D02*
X139599200Y-82068800D01*
X149085300Y-83299300D02*
X147854800Y-82068800D01*
X163830000Y-98577400D02*
X152107900Y-86855300D01*
X161290000Y-107569000D02*
X161290000Y-97825560D01*
X149160038Y-80818798D02*
X143891000Y-80818798D01*
X149367240Y-81026000D02*
X149160038Y-80818798D01*
X153502360Y-85608160D02*
X153502360Y-85384640D01*
X161437320Y-93543120D02*
X153502360Y-85608160D01*
X161290000Y-97825560D02*
X161300195Y-97815365D01*
X161290000Y-115189000D02*
X161290000Y-111333280D01*
X149534880Y-97200398D02*
X148112802Y-95778320D01*
X149534880Y-99578160D02*
X149534880Y-97200398D01*
X161290000Y-111333280D02*
X149534880Y-99578160D01*
X148336000Y-109220000D02*
X148336000Y-103886000D01*
X153670000Y-114554000D02*
X148336000Y-109220000D01*
X156464000Y-118364000D02*
X156464000Y-117348000D01*
X157226000Y-119126000D02*
X156464000Y-118364000D01*
X158242000Y-133858000D02*
X158242000Y-122936000D01*
X158496000Y-134112000D02*
X158242000Y-133858000D01*
X160020000Y-138176000D02*
X159512000Y-137668000D01*
X163068000Y-138176000D02*
X160020000Y-138176000D01*
X175006000Y-150114000D02*
X163068000Y-138176000D01*
X182626000Y-150114000D02*
X175006000Y-150114000D01*
X182880000Y-150368000D02*
X182626000Y-150114000D01*
X63460000Y-135261100D02*
X63460000Y-127540000D01*
X73011540Y-117988460D02*
X73011540Y-115721640D01*
X63460000Y-127540000D02*
X73011540Y-117988460D01*
X146862800Y-92790100D02*
X146862800Y-111414560D01*
X141991080Y-115503960D02*
X130926840Y-115503960D01*
X142214600Y-115727480D02*
X141991080Y-115503960D01*
X146862800Y-111414560D02*
X146349720Y-111927640D01*
X60920000Y-135261100D02*
X60920000Y-126840000D01*
X70471540Y-117288460D02*
X70471540Y-115721640D01*
X60920000Y-126840000D02*
X70471540Y-117288460D01*
X70471540Y-115721640D02*
X70471540Y-115511540D01*
X70471540Y-115511540D02*
X68230000Y-113270000D01*
X68230000Y-113270000D02*
X67676400Y-113270000D01*
X67676400Y-113270000D02*
X64415200Y-110008800D01*
X146862800Y-90250100D02*
X146681100Y-90250100D01*
X146681100Y-90250100D02*
X143835120Y-93096080D01*
X143835120Y-93096080D02*
X143835120Y-108742480D01*
X141935200Y-113548160D02*
X141823440Y-113659920D01*
X141823440Y-113659920D02*
X130550320Y-113659920D01*
X130550320Y-113659920D02*
X126899200Y-110008800D01*
X101740000Y-118310000D02*
X101740000Y-112789600D01*
X101740000Y-112789600D02*
X98959200Y-110008800D01*
X99200000Y-118310000D02*
X99200000Y-112789600D01*
X99200000Y-112789600D02*
X96419200Y-110008800D01*
X96660000Y-118310000D02*
X96660000Y-112789600D01*
X96660000Y-112789600D02*
X93879200Y-110008800D01*
X94120000Y-118310000D02*
X94120000Y-112789600D01*
X94120000Y-112789600D02*
X91339200Y-110008800D01*
X190246000Y-152146000D02*
X193294000Y-149098000D01*
X86500000Y-118310000D02*
X83558358Y-118310000D01*
X77733180Y-113540000D02*
X75551540Y-115721640D01*
X80320000Y-113540000D02*
X77733180Y-113540000D01*
X80700000Y-113920000D02*
X80320000Y-113540000D01*
X83558358Y-118310000D02*
X82220000Y-116971642D01*
X75551540Y-115721640D02*
X75551540Y-118028460D01*
X66000000Y-127580000D02*
X66000000Y-135261100D01*
X75551540Y-118028460D02*
X66000000Y-127580000D01*
X131318000Y-128422400D02*
X131318000Y-125539500D01*
X131318000Y-125539500D02*
X131495800Y-125361700D01*
X131318000Y-141122400D02*
X129159000Y-141122400D01*
X129159000Y-141122400D02*
X128460500Y-140423900D01*
X131318000Y-143662400D02*
X128879600Y-143662400D01*
X128879600Y-143662400D02*
X128498600Y-144043400D01*
X128498600Y-147662900D02*
X129857500Y-147662900D01*
X129857500Y-147662900D02*
X131318000Y-146202400D01*
X164904000Y-137864000D02*
X164904000Y-135832000D01*
X164465000Y-136271000D02*
X164465000Y-137425000D01*
X164592000Y-136906000D02*
X164094000Y-136906000D01*
X164592000Y-137298000D02*
X164592000Y-136906000D01*
X164465000Y-137425000D02*
X164592000Y-137298000D01*
X165608000Y-135260000D02*
X165476000Y-135260000D01*
X165476000Y-135260000D02*
X164904000Y-135832000D01*
X164904000Y-135832000D02*
X164465000Y-136271000D01*
X164465000Y-136271000D02*
X164094000Y-136642000D01*
X164094000Y-135646000D02*
X164094000Y-136642000D01*
X164094000Y-136642000D02*
X164094000Y-136906000D01*
X164094000Y-136906000D02*
X164094000Y-137054000D01*
X164094000Y-137054000D02*
X164084000Y-137044000D01*
X164084000Y-137044000D02*
X164084000Y-136906000D01*
X164084000Y-136906000D02*
X164084000Y-137044000D01*
X172074000Y-145034000D02*
X164904000Y-137864000D01*
X164904000Y-137864000D02*
X164084000Y-137044000D01*
X175514000Y-145034000D02*
X172074000Y-145034000D01*
X175768000Y-145288000D02*
X175514000Y-145034000D01*
X164084000Y-137044000D02*
X163390000Y-136350000D01*
X105664000Y-156972000D02*
X105664000Y-157988000D01*
X105664000Y-157988000D02*
X105410000Y-158242000D01*
X105156000Y-156972000D02*
X105664000Y-156972000D01*
X105664000Y-156972000D02*
X106934000Y-158242000D01*
X112014000Y-136906000D02*
X108458000Y-136906000D01*
X105410000Y-156718000D02*
X105156000Y-156972000D01*
X105156000Y-156972000D02*
X103886000Y-158242000D01*
X105410000Y-139954000D02*
X105410000Y-152654000D01*
X108458000Y-136906000D02*
X105410000Y-139954000D01*
X111760000Y-133858000D02*
X111760000Y-136652000D01*
X111760000Y-136652000D02*
X112014000Y-136906000D01*
X80637700Y-143788280D02*
X80637700Y-147125840D01*
X80637700Y-147125840D02*
X79756000Y-148007540D01*
X82042000Y-158242000D02*
X103886000Y-158242000D01*
X81788000Y-157988000D02*
X82042000Y-158242000D01*
X79756000Y-153983998D02*
X80518000Y-154745998D01*
X79756000Y-148007540D02*
X79756000Y-153983998D01*
X103886000Y-158242000D02*
X105410000Y-158242000D01*
X105410000Y-158242000D02*
X106934000Y-158242000D01*
X106934000Y-158242000D02*
X147828000Y-158242000D01*
X147828000Y-158242000D02*
X151130000Y-154940000D01*
X155702000Y-153416000D02*
X156083000Y-153035000D01*
X156083000Y-153035000D02*
X156083000Y-149326600D01*
X156062700Y-137977300D02*
X157690000Y-136350000D01*
X157690000Y-136350000D02*
X157190000Y-136350000D01*
X156062700Y-134280000D02*
X156062700Y-134932700D01*
X156062700Y-134932700D02*
X157190000Y-136060000D01*
X157190000Y-136060000D02*
X157190000Y-136350000D01*
X169370000Y-135260000D02*
X165608000Y-135260000D01*
X165608000Y-135260000D02*
X164480000Y-135260000D01*
X156020000Y-135790000D02*
X156062700Y-135747300D01*
X156020000Y-136307300D02*
X156020000Y-135790000D01*
X156062700Y-136350000D02*
X156020000Y-136307300D01*
X163390000Y-136350000D02*
X156062700Y-136350000D01*
X164480000Y-135260000D02*
X164094000Y-135646000D01*
X164094000Y-135646000D02*
X163390000Y-136350000D01*
X169370000Y-135260000D02*
X172120000Y-135260000D01*
X172120000Y-135260000D02*
X172380000Y-135000000D01*
X167015160Y-119359680D02*
X167015160Y-119174260D01*
X167015160Y-119174260D02*
X168479470Y-117709950D01*
X167015160Y-119174260D02*
X167723820Y-118465600D01*
X167723820Y-118465600D02*
X169235120Y-118465600D01*
X166370000Y-115189000D02*
X166370000Y-115600480D01*
X166370000Y-115600480D02*
X168479470Y-117709950D01*
X168479470Y-117709950D02*
X169235120Y-118465600D01*
X169235120Y-118465600D02*
X169915840Y-119146320D01*
X169915840Y-119146320D02*
X167228520Y-119146320D01*
X167228520Y-119146320D02*
X167015160Y-119359680D01*
X156062700Y-145184500D02*
X156062700Y-137977300D01*
X156062700Y-137977300D02*
X156062700Y-135747300D01*
X156062700Y-135747300D02*
X156062700Y-134280000D01*
X156062700Y-134280000D02*
X156062700Y-122727700D01*
X156062700Y-122727700D02*
X160286700Y-118503700D01*
X160286700Y-118503700D02*
X163055300Y-118503700D01*
X163055300Y-118503700D02*
X166370000Y-115189000D01*
X156062700Y-145184500D02*
X156062700Y-149306300D01*
X156062700Y-149306300D02*
X156083000Y-149326600D01*
X134382000Y-152186000D02*
X135168000Y-152186000D01*
X135636000Y-152654000D02*
X135636000Y-152186000D01*
X135168000Y-152186000D02*
X135636000Y-152654000D01*
X135636000Y-152186000D02*
X136866000Y-152186000D01*
X135612000Y-153416000D02*
X134382000Y-152186000D01*
X135636000Y-153416000D02*
X135612000Y-153416000D01*
X136866000Y-152186000D02*
X135636000Y-153416000D01*
X138938000Y-123698000D02*
X139700000Y-124460000D01*
X119380000Y-123444000D02*
X124968000Y-123444000D01*
X138938000Y-123698000D02*
X138938000Y-125222000D01*
X136398000Y-121158000D02*
X138938000Y-123698000D01*
X127254000Y-121158000D02*
X136398000Y-121158000D01*
X124968000Y-123444000D02*
X127254000Y-121158000D01*
X119380000Y-126238000D02*
X119380000Y-123444000D01*
X151638000Y-123698000D02*
X153381200Y-121954800D01*
X151130000Y-123698000D02*
X151638000Y-123698000D01*
X151638000Y-123698000D02*
X151892000Y-123698000D01*
X151892000Y-123698000D02*
X153381200Y-125187200D01*
X138938000Y-128422400D02*
X138938000Y-125222000D01*
X153162000Y-123444000D02*
X153381200Y-123444000D01*
X153162000Y-123478800D02*
X153162000Y-123444000D01*
X153381200Y-123698000D02*
X153162000Y-123478800D01*
X143510000Y-123698000D02*
X151130000Y-123698000D01*
X138938000Y-125222000D02*
X139700000Y-124460000D01*
X151130000Y-123698000D02*
X153381200Y-123698000D01*
X97536000Y-153416000D02*
X97536000Y-153670000D01*
X138938000Y-150114000D02*
X150000000Y-150114000D01*
X134112000Y-154940000D02*
X138938000Y-150114000D01*
X98806000Y-154940000D02*
X134112000Y-154940000D01*
X97536000Y-153670000D02*
X98806000Y-154940000D01*
X87960520Y-133079640D02*
X87960520Y-135871100D01*
X87960520Y-135871100D02*
X97536000Y-145446580D01*
X97536000Y-145446580D02*
X97536000Y-153416000D01*
X149860000Y-148844000D02*
X149860000Y-149098000D01*
X149860000Y-149098000D02*
X148844000Y-150114000D01*
X149098000Y-150114000D02*
X149098000Y-149606000D01*
X149098000Y-149606000D02*
X149860000Y-148844000D01*
X149860000Y-148844000D02*
X150000000Y-148704000D01*
X150000000Y-151070000D02*
X149800000Y-151070000D01*
X149800000Y-151070000D02*
X148844000Y-150114000D01*
X149098000Y-150368000D02*
X149098000Y-150114000D01*
X148844000Y-150114000D02*
X149098000Y-150368000D01*
X83040000Y-151730000D02*
X83150000Y-151730000D01*
X83150000Y-151730000D02*
X84836000Y-153416000D01*
X84836000Y-153416000D02*
X93472000Y-153416000D01*
X149098000Y-150114000D02*
X150000000Y-150114000D01*
X180512720Y-126476760D02*
X180512720Y-127972720D01*
X183220000Y-130680000D02*
X183220000Y-133749998D01*
X180512720Y-127972720D02*
X183220000Y-130680000D01*
X187939680Y-154614880D02*
X187939680Y-151690320D01*
X185480000Y-142110000D02*
X183170000Y-142110000D01*
X186730000Y-140860000D02*
X185480000Y-142110000D01*
X190230000Y-149400000D02*
X190230000Y-142000000D01*
X187939680Y-151690320D02*
X190230000Y-149400000D01*
X183170000Y-142110000D02*
X180510000Y-142110000D01*
X180510000Y-142110000D02*
X180000000Y-142620000D01*
X170260000Y-154330000D02*
X171590000Y-154330000D01*
X184934560Y-157620000D02*
X187939680Y-154614880D01*
X174880000Y-157620000D02*
X184934560Y-157620000D01*
X171590000Y-154330000D02*
X174880000Y-157620000D01*
X170260000Y-154330000D02*
X165400000Y-154330000D01*
X150000000Y-138505900D02*
X153377900Y-135128000D01*
X150000000Y-148704000D02*
X150000000Y-138505900D01*
X150000000Y-151070000D02*
X150000000Y-150114000D01*
X150000000Y-150114000D02*
X150000000Y-148704000D01*
X155180000Y-156250000D02*
X150000000Y-151070000D01*
X163480000Y-156250000D02*
X155180000Y-156250000D01*
X165400000Y-154330000D02*
X163480000Y-156250000D01*
X180512720Y-126476760D02*
X177825400Y-126476760D01*
X177825400Y-126476760D02*
X177535840Y-126766320D01*
X168910000Y-107569000D02*
X168910000Y-109009180D01*
X168910000Y-109009180D02*
X165768020Y-112151160D01*
X159174180Y-112486440D02*
X153381200Y-118279420D01*
X153381200Y-118279420D02*
X153381200Y-121954800D01*
X153381200Y-121954800D02*
X153381200Y-123444000D01*
X153381200Y-123444000D02*
X153381200Y-125187200D01*
X153381200Y-125187200D02*
X153381200Y-130811900D01*
X153381200Y-130811900D02*
X153381200Y-135156700D01*
X153381200Y-135156700D02*
X153619200Y-134918700D01*
X153619200Y-134918700D02*
X153619200Y-134150100D01*
X95090000Y-151090000D02*
X95090000Y-155918000D01*
X95090000Y-155918000D02*
X95012000Y-155996000D01*
X95090000Y-151090000D02*
X95090000Y-148232000D01*
X95090000Y-148232000D02*
X94194000Y-147336000D01*
X88257700Y-143788280D02*
X88257700Y-146169700D01*
X88257700Y-146169700D02*
X89424000Y-147336000D01*
X89424000Y-147336000D02*
X94194000Y-147336000D01*
X101616000Y-134660000D02*
X106894000Y-134660000D01*
X110236000Y-131318000D02*
X111760000Y-131318000D01*
X106894000Y-134660000D02*
X110236000Y-131318000D01*
X101616000Y-134660000D02*
X101616000Y-138192000D01*
X101616000Y-138192000D02*
X102108000Y-138684000D01*
X144520280Y-126956840D02*
X144520280Y-130672820D01*
X144520280Y-130672820D02*
X144381200Y-130811900D01*
X138938000Y-130962400D02*
X144230700Y-130962400D01*
X144230700Y-130962400D02*
X144381200Y-130811900D01*
X138938000Y-143662400D02*
X143263740Y-143662400D01*
X143263740Y-143662400D02*
X144785840Y-145184500D01*
X144785840Y-145184500D02*
X147062700Y-145184500D01*
X161900000Y-143110000D02*
X161900000Y-148080000D01*
X161900000Y-148080000D02*
X161260000Y-148720000D01*
X161260000Y-148720000D02*
X161260000Y-154330000D01*
X70520000Y-151550000D02*
X73860000Y-151550000D01*
X73860000Y-151550000D02*
X74220000Y-151190000D01*
X74220000Y-151190000D02*
X74220000Y-147860000D01*
X209353440Y-102746560D02*
X195379840Y-102746560D01*
X171450000Y-105765600D02*
X174469040Y-102746560D01*
X174469040Y-102746560D02*
X195379840Y-102746560D01*
X171450000Y-105765600D02*
X171450000Y-107569000D01*
X209353440Y-102746560D02*
X209740000Y-102360000D01*
X209353440Y-107826560D02*
X195379840Y-107826560D01*
X194710998Y-107826560D02*
X195379840Y-107826560D01*
X173990000Y-105283000D02*
X175276438Y-103996562D01*
X175276438Y-103996562D02*
X190881000Y-103996562D01*
X190881000Y-103996562D02*
X194710998Y-107826560D01*
X173990000Y-105283000D02*
X173990000Y-107569000D01*
X209353440Y-107826560D02*
X209740000Y-107440000D01*
X195368850Y-113091150D02*
X209518850Y-113091150D01*
X209518850Y-113091150D02*
X209800000Y-112810000D01*
X176530000Y-107569000D02*
X176530000Y-106095800D01*
X187662300Y-105384600D02*
X195368850Y-113091150D01*
X195368850Y-113091150D02*
X195402700Y-113125000D01*
X177241200Y-105384600D02*
X187662300Y-105384600D01*
X176530000Y-106095800D02*
X177241200Y-105384600D01*
X209485000Y-118205000D02*
X195402700Y-118205000D01*
X186893200Y-107569000D02*
X192824100Y-113499900D01*
X192824100Y-113499900D02*
X192824100Y-115626400D01*
X192824100Y-115626400D02*
X195402700Y-118205000D01*
X186893200Y-107569000D02*
X179070000Y-107569000D01*
X209485000Y-118205000D02*
X209800000Y-117890000D01*
X209490060Y-122660060D02*
X195359940Y-122660060D01*
X195402700Y-122702820D02*
X195359940Y-122660060D01*
X173990000Y-113959640D02*
X176049940Y-111899700D01*
X176049940Y-111899700D02*
X184599580Y-111899700D01*
X184599580Y-111899700D02*
X195402700Y-122702820D01*
X173990000Y-113959640D02*
X173990000Y-115189000D01*
X209490060Y-122660060D02*
X209800000Y-122970000D01*
X209511800Y-128568200D02*
X195323960Y-128568200D01*
X176530000Y-113815182D02*
X176797022Y-113548160D01*
X176797022Y-113548160D02*
X183677560Y-113548160D01*
X183677560Y-113548160D02*
X192506600Y-122377200D01*
X192506600Y-122377200D02*
X192506600Y-125750840D01*
X192506600Y-125750840D02*
X195323960Y-128568200D01*
X176530000Y-113815182D02*
X176530000Y-115189000D01*
X209511800Y-128568200D02*
X209850000Y-128230000D01*
X195323960Y-131600000D02*
X195420000Y-131600000D01*
X195323960Y-131569960D02*
X190246000Y-126492000D01*
X190246000Y-126492000D02*
X190246000Y-121884370D01*
X190246000Y-121884370D02*
X189374815Y-121013185D01*
X186690000Y-99314000D02*
X184912000Y-97536000D01*
X184912000Y-97536000D02*
X166116000Y-97536000D01*
X159258000Y-100584000D02*
X158750000Y-100076000D01*
X158750000Y-100076000D02*
X154432000Y-100076000D01*
X195323960Y-131600000D02*
X195323960Y-131569960D01*
X197130000Y-133310000D02*
X209850000Y-133310000D01*
X195420000Y-131600000D02*
X197130000Y-133310000D01*
X209500000Y-138040000D02*
X195340000Y-138040000D01*
X55118000Y-108204000D02*
X55118000Y-116078000D01*
X62230000Y-100838000D02*
X55118000Y-108204000D01*
X77470000Y-100838000D02*
X62230000Y-100838000D01*
X84328000Y-93980000D02*
X77470000Y-100838000D01*
X99060000Y-93726000D02*
X90932000Y-93726000D01*
X115570000Y-77216000D02*
X99060000Y-93726000D01*
X180594000Y-99314000D02*
X170688000Y-99314000D01*
X182118000Y-100838000D02*
X180594000Y-99314000D01*
X186182000Y-123444000D02*
X183642000Y-120904000D01*
X186182000Y-125222000D02*
X186182000Y-123444000D01*
X192278000Y-131318000D02*
X186182000Y-125222000D01*
X192278000Y-135128000D02*
X192278000Y-131318000D01*
X195323960Y-138173960D02*
X192278000Y-135128000D01*
X195340000Y-138040000D02*
X195323960Y-138173960D01*
X209500000Y-138040000D02*
X209850000Y-138390000D01*
X209850000Y-143770000D02*
X195694900Y-143770000D01*
X182168800Y-148844000D02*
X180319680Y-146994880D01*
X187960000Y-148844000D02*
X182168800Y-148844000D01*
X188214000Y-149098000D02*
X187960000Y-148844000D01*
X191480002Y-147863998D02*
X191480002Y-148590000D01*
X195104000Y-144240000D02*
X191480002Y-147863998D01*
X195224900Y-144240000D02*
X195104000Y-144240000D01*
X195694900Y-143770000D02*
X195224900Y-144240000D01*
X209850000Y-148850000D02*
X196082000Y-148850000D01*
X196082000Y-148850000D02*
X195224900Y-149707100D01*
X195224900Y-149320000D02*
X195224900Y-149707100D01*
X195224900Y-149707100D02*
X192278000Y-152654000D01*
X189738000Y-155448000D02*
X188468000Y-156718000D01*
X188468000Y-156718000D02*
X188214000Y-156718000D01*
X147320000Y-156464000D02*
X146304000Y-155448000D01*
X146304000Y-155448000D02*
X135636000Y-155448000D01*
X135636000Y-155448000D02*
X135503885Y-155315885D01*
X123952000Y-149352000D02*
X124206000Y-149098000D01*
X124206000Y-149098000D02*
X124206000Y-144272000D01*
X124206000Y-144272000D02*
X119380000Y-139446000D01*
X112776000Y-140208000D02*
X112776000Y-140716000D01*
X112776000Y-140716000D02*
X114300000Y-142240000D01*
X114300000Y-142240000D02*
X116586000Y-142240000D01*
X118618000Y-140208000D02*
X119380000Y-139446000D01*
X119380000Y-139446000D02*
X122134000Y-136692000D01*
X122134000Y-136692000D02*
X122134000Y-136558000D01*
X209850000Y-153930000D02*
X195490000Y-153930000D01*
X195490000Y-153930000D02*
X195360000Y-154060000D01*
X186436000Y-150876000D02*
X182859680Y-154452320D01*
X182859680Y-154452320D02*
X182859680Y-154614880D01*
X182859680Y-154614880D02*
X182859680Y-154452320D01*
X189160000Y-131330000D02*
X188360500Y-131330000D01*
X188360500Y-131330000D02*
X184656100Y-127625600D01*
X184656100Y-127625600D02*
X184656100Y-124343800D01*
X175409860Y-121272300D02*
X169915840Y-126766320D01*
X181584600Y-121272300D02*
X175409860Y-121272300D01*
X184656100Y-124343800D02*
X181584600Y-121272300D01*
X177535840Y-119146320D02*
X184135380Y-119146320D01*
X184135380Y-119146320D02*
X184656100Y-118625600D01*
X177535840Y-119146320D02*
X174995840Y-119146320D01*
X166049200Y-130706500D02*
X170776500Y-130706500D01*
X170776500Y-130706500D02*
X174920000Y-134850000D01*
X174920000Y-134850000D02*
X174920000Y-135000000D01*
X162010000Y-131370000D02*
X162010000Y-134000000D01*
X162010000Y-134000000D02*
X161900000Y-134110000D01*
X166049200Y-130706500D02*
X162673500Y-130706500D01*
X162673500Y-130706500D02*
X162010000Y-131370000D01*
X174995840Y-126766320D02*
X174995840Y-130653140D01*
X174995840Y-130653140D02*
X175049200Y-130706500D01*
X177460000Y-135000000D02*
X177460000Y-135740000D01*
X177460000Y-135740000D02*
X178840000Y-137120000D01*
X178840000Y-137120000D02*
X185090000Y-137120000D01*
X185090000Y-137120000D02*
X187990000Y-140020000D01*
X187990000Y-140020000D02*
X187990000Y-144110000D01*
X177240000Y-148190000D02*
X177240000Y-146120000D01*
X178880000Y-144480000D02*
X187620000Y-144480000D01*
X177240000Y-146120000D02*
X178880000Y-144480000D01*
X187620000Y-144480000D02*
X187990000Y-144110000D01*
X60311540Y-115721640D02*
X60311540Y-121017540D01*
X150876000Y-120142000D02*
X151638000Y-120904000D01*
X145288000Y-120142000D02*
X150876000Y-120142000D01*
X143002000Y-122428000D02*
X145288000Y-120142000D01*
X60311540Y-121017540D02*
X62230000Y-122936000D01*
X180000000Y-135000000D02*
X187880000Y-135000000D01*
X187880000Y-135000000D02*
X187990000Y-135110000D01*
X91788000Y-128738000D02*
X88098000Y-128738000D01*
X72644000Y-137284000D02*
X74220000Y-138860000D01*
X72644000Y-130810000D02*
X72644000Y-137284000D01*
X77724000Y-125730000D02*
X72644000Y-130810000D01*
X85090000Y-125730000D02*
X77724000Y-125730000D01*
X88098000Y-128738000D02*
X85090000Y-125730000D01*
X74220000Y-138860000D02*
X80485980Y-138860000D01*
X80485980Y-138860000D02*
X80637700Y-138708280D01*
X94194000Y-138336000D02*
X94194000Y-136438000D01*
X85114000Y-131064000D02*
X82788000Y-128738000D01*
X93472000Y-131064000D02*
X85114000Y-131064000D01*
X95504000Y-133096000D02*
X93472000Y-131064000D01*
X95504000Y-135128000D02*
X95504000Y-133096000D01*
X94194000Y-136438000D02*
X95504000Y-135128000D01*
X82788000Y-128738000D02*
X78780000Y-128738000D01*
X75970280Y-136168280D02*
X80637700Y-136168280D01*
X74676000Y-134874000D02*
X75970280Y-136168280D01*
X74676000Y-132842000D02*
X74676000Y-134874000D01*
X78780000Y-128738000D02*
X74676000Y-132842000D01*
X86012000Y-155996000D02*
X66588000Y-155996000D01*
X55840000Y-145248000D02*
X55840000Y-135261100D01*
X66588000Y-155996000D02*
X55840000Y-145248000D01*
X101186000Y-142708000D02*
X101186000Y-146996000D01*
X101186000Y-146996000D02*
X100878000Y-147304000D01*
X88257700Y-138708280D02*
X88257700Y-138779700D01*
X88257700Y-138779700D02*
X92186000Y-142708000D01*
X92616000Y-134660000D02*
X92616000Y-134968000D01*
X92616000Y-134968000D02*
X90720595Y-136863405D01*
X108474000Y-128818000D02*
X108474000Y-120326000D01*
X108474000Y-120326000D02*
X111412000Y-117388000D01*
X111760000Y-128778000D02*
X108514000Y-128778000D01*
X108514000Y-128778000D02*
X108474000Y-128818000D01*
X180319680Y-154614880D02*
X174426880Y-154614880D01*
X139994000Y-117388000D02*
X120412000Y-117388000D01*
X141224000Y-118618000D02*
X139994000Y-117388000D01*
X147828000Y-137160000D02*
X147828000Y-125222000D01*
X148082000Y-137414000D02*
X147828000Y-137160000D01*
X152400000Y-139192000D02*
X151638000Y-139192000D01*
X154178000Y-140970000D02*
X152400000Y-139192000D01*
X163322000Y-140716000D02*
X157480000Y-140716000D01*
X170942000Y-148336000D02*
X163322000Y-140716000D01*
X170942000Y-148590000D02*
X170942000Y-148336000D01*
X171196000Y-148844000D02*
X170942000Y-148590000D01*
X174426880Y-154614880D02*
X172974000Y-153162000D01*
X111760000Y-126238000D02*
X111760000Y-122936000D01*
X117308000Y-117388000D02*
X120412000Y-117388000D01*
X111760000Y-122936000D02*
X117308000Y-117388000D01*
X62851540Y-115721640D02*
X62851540Y-116699540D01*
X105156000Y-130810000D02*
X105156000Y-132842000D01*
X95504000Y-121158000D02*
X105156000Y-130810000D01*
X81534000Y-121158000D02*
X95504000Y-121158000D01*
X79248000Y-118872000D02*
X81534000Y-121158000D01*
X64770000Y-118618000D02*
X67056000Y-118618000D01*
X62851540Y-116699540D02*
X64770000Y-118618000D01*
X115316000Y-140208000D02*
X116784000Y-140208000D01*
X116784000Y-140208000D02*
X122134000Y-145558000D01*
X172455840Y-119146320D02*
X172455840Y-118567200D01*
X172455840Y-118567200D02*
X174010320Y-117012720D01*
X174010320Y-117012720D02*
X177246280Y-117012720D01*
X177246280Y-117012720D02*
X179070000Y-115189000D01*
X104280000Y-118310000D02*
X104280000Y-112789600D01*
X104280000Y-112789600D02*
X101499200Y-110008800D01*
X55320000Y-54820000D02*
X55170000Y-54820000D01*
X55170000Y-54820000D02*
X54250000Y-55740000D01*
X54250000Y-55740000D02*
X54250000Y-55870000D01*
X77115200Y-110008800D02*
X77115200Y-107825200D01*
X77115200Y-107825200D02*
X71820000Y-102530000D01*
X53450000Y-56670000D02*
X54250000Y-55870000D01*
X54250000Y-55870000D02*
X55360000Y-54760000D01*
X53450000Y-81030000D02*
X53450000Y-56670000D01*
X62210000Y-89790000D02*
X53450000Y-81030000D01*
X148193760Y-98316240D02*
X148193760Y-98380000D01*
X148220000Y-98290000D02*
X148193760Y-98316240D01*
X163830000Y-115189000D02*
X163830000Y-111470440D01*
X163830000Y-111470440D02*
X162275520Y-109915960D01*
X148193760Y-100639880D02*
X148193760Y-98380000D01*
X148193760Y-98380000D02*
X148193760Y-98348800D01*
X148193760Y-98348800D02*
X148193760Y-98181160D01*
X157358080Y-109804200D02*
X148193760Y-100639880D01*
M02*
