M48
;DRILL file {KiCad 4.0.7} date 06/05/18 15:50:19
;FORMAT={-:-/ absolute / metric / decimal}
FMAT,2
METRIC,TZ
T1C0.400
T2C0.762
T3C0.800
T4C1.000
T5C1.001
T6C1.200
%
G90
G05
M71
T1
X52.578Y-136.906
X60.198Y-122.174
X74.93Y-76.2
X79.248Y-118.872
X81.28Y-116.84
X84.328Y-93.98
X85.6Y-76.07
X97.536Y-153.416
X103.632Y-125.984
X103.886Y-121.158
X104.14Y-151.892
X104.14Y-156.718
X105.156Y-132.842
X106.68Y-116.332
X111.684Y-56.134
X117.856Y-52.832
X139.954Y-118.744
X141.6Y-129.474
X142.494Y-112.776
X142.748Y-122.936
X143.764Y-124.968
X144.526Y-108.204
X147.066Y-111.252
X148.59Y-153.924
X149.26Y-84.27
X149.5Y-81.08
X149.606Y-104.902
X150.76Y-95.59
X151.638Y-74.168
X151.638Y-107.696
X151.638Y-120.904
X152.27Y-87.56
X153.67Y-114.554
X155.194Y-111.252
X155.448Y-114.046
X155.702Y-70.866
X155.956Y-154.178
X156.71Y-101.84
X157.48Y-110.998
X157.988Y-138.938
X158.75Y-144.272
X159.174Y-112.486
X159.34Y-123.58
X159.512Y-133.858
X159.512Y-137.922
X163.83Y-58.166
X164.846Y-151.638
X165.768Y-112.151
X166.116Y-145.542
X171.958Y-91.44
X175.514Y-156.718
X175.768Y-144.78
X175.768Y-150.114
X177.292Y-152.4
X182.118Y-97.79
X182.626Y-86.868
X183.642Y-120.904
X185.928Y-152.4
X186.944Y-132.588
X188.86Y-124.17
X189.708Y-141.478
X190.754Y-152.4
T2
X55.232Y-115.722
X55.84Y-135.261
X57.772Y-115.722
X58.38Y-135.261
X60.312Y-115.722
X60.92Y-135.261
X62.852Y-115.722
X63.46Y-135.261
X65.392Y-115.722
X66.Y-135.261
X67.932Y-115.722
X68.54Y-135.261
X70.472Y-115.722
X73.012Y-115.722
X74.04Y-151.73
X74.22Y-138.86
X74.22Y-147.86
X75.552Y-115.722
X78.092Y-115.722
X80.628Y-147.136
X82.788Y-128.738
X83.04Y-151.73
X83.168Y-147.136
X85.421Y-133.08
X86.012Y-155.996
X86.09Y-151.09
X86.5Y-118.31
X86.614Y-147.066
X87.961Y-133.08
X89.04Y-118.31
X89.154Y-147.066
X91.58Y-118.31
X91.788Y-128.738
X92.186Y-142.708
X92.616Y-134.66
X94.12Y-118.31
X94.194Y-138.336
X94.194Y-147.336
X95.012Y-155.996
X95.09Y-151.09
X96.66Y-118.31
X99.2Y-118.31
X99.474Y-128.818
X99.568Y-138.684
X100.878Y-147.304
X100.878Y-156.304
X101.186Y-142.708
X101.616Y-134.66
X101.74Y-118.31
X102.108Y-138.684
X104.28Y-118.31
X104.902Y-137.414
X104.902Y-139.954
X108.474Y-128.818
X109.204Y-151.598
X109.204Y-156.678
X111.412Y-117.388
X116.84Y-123.444
X118.062Y-145.273
X118.062Y-147.813
X118.204Y-151.598
X118.204Y-156.678
X119.38Y-123.444
X120.412Y-117.388
X122.134Y-136.558
X122.134Y-145.558
X125.382Y-152.186
X125.92Y-140.424
X125.959Y-144.043
X125.959Y-147.663
X126.149Y-133.49
X128.46Y-140.424
X128.499Y-144.043
X128.499Y-147.663
X128.689Y-133.49
X131.496Y-125.362
X134.036Y-125.362
X134.382Y-152.186
X141.696Y-138.623
X143.319Y-143.718
X143.319Y-152.718
X144.236Y-138.623
X144.381Y-130.812
X146.344Y-118.094
X146.344Y-127.094
X146.863Y-85.17
X146.863Y-87.71
X146.863Y-90.25
X146.863Y-92.79
X147.063Y-145.184
X150.838Y-135.128
X153.378Y-135.128
X153.381Y-130.812
X153.543Y-149.327
X156.063Y-145.184
X156.083Y-149.327
X161.26Y-154.33
X161.9Y-134.11
X161.9Y-143.11
X162.01Y-122.37
X162.01Y-131.37
X166.049Y-130.707
X167.015Y-119.36
X167.015Y-121.9
X168.24Y-148.19
X169.37Y-135.26
X169.37Y-137.8
X170.26Y-154.33
X175.049Y-130.707
X175.474Y-60.626
X175.474Y-63.166
X175.474Y-65.706
X175.474Y-68.246
X175.474Y-70.786
X175.474Y-73.326
X177.24Y-148.19
X180.16Y-131.33
X180.513Y-123.937
X180.513Y-126.477
X183.17Y-139.57
X183.17Y-142.11
X184.656Y-118.626
X184.656Y-127.626
X187.99Y-135.11
X187.99Y-144.11
X189.16Y-131.33
X209.69Y-81.96
X209.69Y-87.04
X209.69Y-92.12
X209.74Y-97.28
X209.74Y-102.36
X209.74Y-107.44
X209.8Y-112.81
X209.8Y-117.89
X209.8Y-122.97
X209.85Y-128.23
X209.85Y-133.31
X209.85Y-138.39
X209.85Y-143.77
X209.85Y-148.85
X209.85Y-153.93
T3
X80.638Y-136.168
X80.638Y-138.708
X80.638Y-141.248
X80.638Y-143.788
X88.258Y-136.168
X88.258Y-138.708
X88.258Y-141.248
X88.258Y-143.788
X107.696Y-140.208
X107.696Y-147.828
X110.236Y-140.208
X110.236Y-147.828
X111.76Y-126.238
X111.76Y-128.778
X111.76Y-131.318
X111.76Y-133.858
X112.776Y-140.208
X112.776Y-147.828
X115.316Y-140.208
X115.316Y-147.828
X119.38Y-126.238
X119.38Y-128.778
X119.38Y-131.318
X119.38Y-133.858
X131.318Y-128.422
X131.318Y-130.962
X131.318Y-133.502
X131.318Y-136.042
X131.318Y-138.582
X131.318Y-141.122
X131.318Y-143.662
X131.318Y-146.202
X138.938Y-128.422
X138.938Y-130.962
X138.938Y-133.502
X138.938Y-136.042
X138.938Y-138.582
X138.938Y-141.122
X138.938Y-143.662
X138.938Y-146.202
X161.29Y-107.569
X161.29Y-115.189
X163.83Y-107.569
X163.83Y-115.189
X166.37Y-107.569
X166.37Y-115.189
X168.91Y-107.569
X168.91Y-115.189
X169.916Y-119.146
X169.916Y-126.766
X171.45Y-107.569
X171.45Y-115.189
X172.38Y-135.
X172.38Y-142.62
X172.456Y-119.146
X172.456Y-126.766
X173.99Y-107.569
X173.99Y-115.189
X174.92Y-135.
X174.92Y-142.62
X174.996Y-119.146
X174.996Y-126.766
X176.53Y-107.569
X176.53Y-115.189
X177.46Y-135.
X177.46Y-142.62
X177.536Y-119.146
X177.536Y-126.766
X179.07Y-107.569
X179.07Y-115.189
X180.Y-135.
X180.Y-142.62
X180.32Y-146.995
X180.32Y-154.615
X182.86Y-146.995
X182.86Y-154.615
X185.4Y-146.995
X185.4Y-154.615
X187.94Y-146.995
X187.94Y-154.615
T4
X54.102Y-53.34
X56.642Y-53.34
X59.182Y-53.34
X61.722Y-53.34
X61.87Y-109.97
X64.262Y-53.34
X64.41Y-109.97
X66.95Y-109.97
X69.49Y-109.97
X72.03Y-109.97
X74.57Y-109.97
X77.11Y-109.97
X79.65Y-109.97
X82.19Y-109.97
X84.73Y-109.97
X137.079Y-66.899
X137.079Y-69.439
X137.079Y-71.979
X137.079Y-74.519
X137.079Y-77.059
X137.079Y-79.599
X137.079Y-82.139
X137.079Y-84.679
X137.079Y-87.219
X137.079Y-89.759
X137.079Y-92.299
X137.079Y-94.839
X137.079Y-97.379
X137.079Y-99.919
X137.079Y-102.459
X137.079Y-104.999
X137.079Y-107.539
X137.079Y-110.079
X139.619Y-66.899
X139.619Y-69.439
X139.619Y-71.979
X139.619Y-74.519
X139.619Y-77.059
X139.619Y-79.599
X139.619Y-82.139
X139.619Y-84.679
X139.619Y-87.219
X139.619Y-89.759
X139.619Y-92.299
X139.619Y-94.839
X139.619Y-97.379
X139.619Y-99.919
X139.619Y-102.459
X139.619Y-104.999
X139.619Y-107.539
X139.619Y-110.079
T5
X61.875Y-110.009
X64.415Y-110.009
X66.955Y-110.009
X69.495Y-110.009
X71.019Y-61.749
X71.019Y-61.749
X72.035Y-110.009
X73.559Y-61.749
X73.559Y-61.749
X74.575Y-110.009
X76.099Y-61.749
X76.099Y-61.749
X77.115Y-110.009
X78.639Y-61.749
X78.639Y-61.749
X79.655Y-110.009
X81.179Y-61.749
X81.179Y-61.749
X82.195Y-110.009
X83.719Y-61.749
X83.719Y-61.749
X84.735Y-110.009
X86.259Y-61.749
X86.259Y-61.749
X88.799Y-61.749
X88.799Y-61.749
X88.799Y-110.009
X88.809Y-109.999
X91.339Y-110.009
X91.349Y-109.999
X93.879Y-61.749
X93.879Y-61.749
X93.879Y-110.009
X93.889Y-109.999
X96.419Y-61.749
X96.419Y-61.749
X96.419Y-110.009
X96.429Y-109.999
X98.959Y-61.749
X98.959Y-61.749
X98.959Y-110.009
X98.969Y-109.999
X101.499Y-61.749
X101.499Y-61.749
X101.499Y-110.009
X101.509Y-109.999
X104.039Y-61.749
X104.039Y-61.749
X104.039Y-110.009
X104.049Y-109.999
X106.579Y-61.749
X106.579Y-61.749
X106.579Y-110.009
X106.589Y-109.999
X109.119Y-61.749
X109.119Y-61.749
X111.659Y-61.749
X111.659Y-61.749
X111.659Y-110.009
X111.669Y-110.009
X114.199Y-110.009
X114.209Y-110.009
X116.739Y-61.749
X116.739Y-61.749
X116.739Y-110.009
X116.749Y-110.009
X119.279Y-61.749
X119.279Y-61.749
X119.279Y-110.009
X119.289Y-110.009
X121.819Y-61.749
X121.819Y-61.749
X121.819Y-110.009
X121.829Y-110.009
X124.359Y-61.749
X124.359Y-61.749
X124.359Y-110.009
X124.369Y-110.009
X126.899Y-61.749
X126.899Y-61.749
X126.899Y-110.009
X126.909Y-110.009
X129.439Y-61.749
X129.439Y-61.749
X129.439Y-110.009
X129.449Y-110.009
X131.979Y-61.749
X131.979Y-61.749
X134.519Y-61.749
X134.519Y-61.749
X137.059Y-66.829
X137.059Y-69.369
X137.059Y-71.909
X137.059Y-74.449
X137.059Y-76.989
X137.059Y-79.529
X137.059Y-82.069
X137.059Y-84.609
X137.059Y-87.149
X137.059Y-89.689
X137.059Y-92.229
X137.059Y-94.769
X137.059Y-97.309
X137.059Y-99.849
X137.059Y-102.389
X137.059Y-104.929
X137.059Y-107.469
X137.059Y-110.009
X139.599Y-66.829
X139.599Y-69.369
X139.599Y-71.909
X139.599Y-74.449
X139.599Y-76.989
X139.599Y-79.529
X139.599Y-82.069
X139.599Y-84.609
X139.599Y-87.149
X139.599Y-89.689
X139.599Y-92.229
X139.599Y-94.769
X139.599Y-97.309
X139.599Y-99.849
X139.599Y-102.389
X139.599Y-104.929
X139.599Y-107.469
X139.599Y-110.009
T6
X67.98Y-151.55
X70.52Y-151.55
X121.412Y-149.606
X121.412Y-152.146
X161.89Y-148.09
X164.43Y-148.09
T0
M30
