G04 #@! TF.FileFunction,Legend,Top*
%FSLAX46Y46*%
G04 Gerber Fmt 4.6, Leading zero omitted, Abs format (unit mm)*
G04 Created by KiCad (PCBNEW 4.0.7) date 06/05/18 15:50:16*
%MOMM*%
%LPD*%
G01*
G04 APERTURE LIST*
%ADD10C,0.100000*%
%ADD11C,0.150000*%
%ADD12C,0.120000*%
%ADD13C,0.304800*%
%ADD14C,0.203200*%
G04 APERTURE END LIST*
D10*
D11*
X145592800Y-80810100D02*
X145592800Y-104810100D01*
X145592800Y-104810100D02*
X187592800Y-104810100D01*
X187592800Y-104810100D02*
X187592800Y-80810100D01*
X187592800Y-80810100D02*
X145592800Y-80810100D01*
X53231540Y-114721640D02*
X53231540Y-131993640D01*
X53231540Y-131993640D02*
X81171540Y-131993640D01*
X53231540Y-114721640D02*
X81171540Y-114721640D01*
X81171540Y-114721640D02*
X81171540Y-131993640D01*
D12*
X86060000Y-111300000D02*
X86060000Y-108640000D01*
X63140000Y-111300000D02*
X86060000Y-111300000D01*
X63140000Y-108640000D02*
X86060000Y-108640000D01*
X63140000Y-111300000D02*
X63140000Y-108640000D01*
X61870000Y-111300000D02*
X60540000Y-111300000D01*
X60540000Y-111300000D02*
X60540000Y-109970000D01*
D13*
X90079200Y-108728800D02*
X90079200Y-111268800D01*
X87539200Y-108728800D02*
X107859200Y-108728800D01*
X107859200Y-108728800D02*
X107859200Y-111268800D01*
X107859200Y-111268800D02*
X87539200Y-111268800D01*
X87539200Y-111268800D02*
X87539200Y-108728800D01*
X112939200Y-108738800D02*
X112939200Y-111278800D01*
X110399200Y-108738800D02*
X130719200Y-108738800D01*
X130719200Y-108738800D02*
X130719200Y-111278800D01*
X130719200Y-111278800D02*
X110399200Y-111278800D01*
X110399200Y-111278800D02*
X110399200Y-108738800D01*
D12*
X135749200Y-111408800D02*
X140949200Y-111408800D01*
X135749200Y-68168800D02*
X135749200Y-111408800D01*
X140949200Y-65568800D02*
X140949200Y-111408800D01*
X135749200Y-68168800D02*
X138349200Y-68168800D01*
X138349200Y-68168800D02*
X138349200Y-65568800D01*
X138349200Y-65568800D02*
X140949200Y-65568800D01*
X135749200Y-66898800D02*
X135749200Y-65568800D01*
X135749200Y-65568800D02*
X137079200Y-65568800D01*
D13*
X95149200Y-60478800D02*
X95149200Y-63018800D01*
X92609200Y-60478800D02*
X112929200Y-60478800D01*
X112929200Y-60478800D02*
X112929200Y-63018800D01*
X112929200Y-63018800D02*
X92609200Y-63018800D01*
X92609200Y-63018800D02*
X92609200Y-60478800D01*
X118009200Y-60478800D02*
X118009200Y-63018800D01*
X115469200Y-60478800D02*
X135789200Y-60478800D01*
X135789200Y-60478800D02*
X135789200Y-63018800D01*
X135789200Y-63018800D02*
X115469200Y-63018800D01*
X115469200Y-63018800D02*
X115469200Y-60478800D01*
X72289200Y-60478800D02*
X72289200Y-63018800D01*
X69749200Y-60478800D02*
X90069200Y-60478800D01*
X90069200Y-60478800D02*
X90069200Y-63018800D01*
X90069200Y-63018800D02*
X69749200Y-63018800D01*
X69749200Y-63018800D02*
X69749200Y-60478800D01*
D11*
X83930000Y-124030000D02*
X106070000Y-124020000D01*
X83930000Y-113310000D02*
X106070000Y-113300000D01*
X106070000Y-113310000D02*
X106070000Y-124010000D01*
X83930000Y-113310000D02*
X83930000Y-124010000D01*
D12*
X163287000Y-149470000D02*
X163287000Y-150359000D01*
X163287000Y-149914500D02*
X163879667Y-149470000D01*
X163879667Y-149470000D02*
X163879667Y-150359000D01*
X163879667Y-150359000D02*
X163287000Y-149914500D01*
X163255408Y-149323840D02*
G75*
G02X163285242Y-146890000I-1365408J1233840D01*
G01*
X69123000Y-150170000D02*
X69123000Y-149281000D01*
X69123000Y-149725500D02*
X68530333Y-150170000D01*
X68530333Y-150170000D02*
X68530333Y-149281000D01*
X68530333Y-149281000D02*
X69123000Y-149725500D01*
X69154592Y-150316160D02*
G75*
G02X69124758Y-152750000I1365408J-1233840D01*
G01*
X122792000Y-150749000D02*
X123681000Y-150749000D01*
X123236500Y-150749000D02*
X122792000Y-150156333D01*
X122792000Y-150156333D02*
X123681000Y-150156333D01*
X123681000Y-150156333D02*
X123236500Y-150749000D01*
X122645840Y-150780592D02*
G75*
G02X120212000Y-150750758I-1233840J-1365408D01*
G01*
D11*
X213690000Y-94960000D02*
X205690000Y-94960000D01*
X205690000Y-94960000D02*
X205690000Y-79960000D01*
X205690000Y-79960000D02*
X213690000Y-79960000D01*
X213740000Y-110280000D02*
X205740000Y-110280000D01*
X205740000Y-110280000D02*
X205740000Y-95280000D01*
X205740000Y-95280000D02*
X213740000Y-95280000D01*
X213800000Y-125810000D02*
X205800000Y-125810000D01*
X205800000Y-125810000D02*
X205800000Y-110810000D01*
X205800000Y-110810000D02*
X213800000Y-110810000D01*
X213850000Y-141230000D02*
X205850000Y-141230000D01*
X205850000Y-141230000D02*
X205850000Y-126230000D01*
X205850000Y-126230000D02*
X213850000Y-126230000D01*
X164400000Y-143110000D02*
X164400000Y-144110000D01*
X164400000Y-144110000D02*
X159400000Y-144110000D01*
X159400000Y-144110000D02*
X159400000Y-143110000D01*
X164400000Y-133110000D02*
X159400000Y-133110000D01*
X159400000Y-133110000D02*
X159400000Y-143110000D01*
X164400000Y-143110000D02*
X164400000Y-133110000D01*
X164510000Y-131370000D02*
X164510000Y-132370000D01*
X164510000Y-132370000D02*
X159510000Y-132370000D01*
X159510000Y-132370000D02*
X159510000Y-131370000D01*
X164510000Y-121370000D02*
X159510000Y-121370000D01*
X159510000Y-121370000D02*
X159510000Y-131370000D01*
X164510000Y-131370000D02*
X164510000Y-121370000D01*
X168240000Y-150690000D02*
X167240000Y-150690000D01*
X167240000Y-150690000D02*
X167240000Y-145690000D01*
X167240000Y-145690000D02*
X168240000Y-145690000D01*
X178240000Y-150690000D02*
X178240000Y-145690000D01*
X178240000Y-145690000D02*
X168240000Y-145690000D01*
X168240000Y-150690000D02*
X178240000Y-150690000D01*
X190490000Y-144110000D02*
X190490000Y-145110000D01*
X190490000Y-145110000D02*
X185490000Y-145110000D01*
X185490000Y-145110000D02*
X185490000Y-144110000D01*
X190490000Y-134110000D02*
X185490000Y-134110000D01*
X185490000Y-134110000D02*
X185490000Y-144110000D01*
X190490000Y-144110000D02*
X190490000Y-134110000D01*
X74040000Y-154230000D02*
X73040000Y-154230000D01*
X73040000Y-154230000D02*
X73040000Y-149230000D01*
X73040000Y-149230000D02*
X74040000Y-149230000D01*
X84040000Y-154230000D02*
X84040000Y-149230000D01*
X84040000Y-149230000D02*
X74040000Y-149230000D01*
X74040000Y-154230000D02*
X84040000Y-154230000D01*
X76720000Y-147860000D02*
X76720000Y-148860000D01*
X76720000Y-148860000D02*
X71720000Y-148860000D01*
X71720000Y-148860000D02*
X71720000Y-147860000D01*
X76720000Y-137860000D02*
X71720000Y-137860000D01*
X71720000Y-137860000D02*
X71720000Y-147860000D01*
X76720000Y-147860000D02*
X76720000Y-137860000D01*
X91788000Y-126238000D02*
X92788000Y-126238000D01*
X92788000Y-126238000D02*
X92788000Y-131238000D01*
X92788000Y-131238000D02*
X91788000Y-131238000D01*
X81788000Y-126238000D02*
X81788000Y-131238000D01*
X81788000Y-131238000D02*
X91788000Y-131238000D01*
X91788000Y-126238000D02*
X81788000Y-126238000D01*
X86012000Y-158496000D02*
X85012000Y-158496000D01*
X85012000Y-158496000D02*
X85012000Y-153496000D01*
X85012000Y-153496000D02*
X86012000Y-153496000D01*
X96012000Y-158496000D02*
X96012000Y-153496000D01*
X96012000Y-153496000D02*
X86012000Y-153496000D01*
X86012000Y-158496000D02*
X96012000Y-158496000D01*
X95090000Y-148590000D02*
X96090000Y-148590000D01*
X96090000Y-148590000D02*
X96090000Y-153590000D01*
X96090000Y-153590000D02*
X95090000Y-153590000D01*
X85090000Y-148590000D02*
X85090000Y-153590000D01*
X85090000Y-153590000D02*
X95090000Y-153590000D01*
X95090000Y-148590000D02*
X85090000Y-148590000D01*
X91694000Y-138336000D02*
X91694000Y-137336000D01*
X91694000Y-137336000D02*
X96694000Y-137336000D01*
X96694000Y-137336000D02*
X96694000Y-138336000D01*
X91694000Y-148336000D02*
X96694000Y-148336000D01*
X96694000Y-148336000D02*
X96694000Y-138336000D01*
X91694000Y-138336000D02*
X91694000Y-148336000D01*
X103378000Y-156304000D02*
X103378000Y-157304000D01*
X103378000Y-157304000D02*
X98378000Y-157304000D01*
X98378000Y-157304000D02*
X98378000Y-156304000D01*
X103378000Y-146304000D02*
X98378000Y-146304000D01*
X98378000Y-146304000D02*
X98378000Y-156304000D01*
X103378000Y-156304000D02*
X103378000Y-146304000D01*
X101186000Y-140208000D02*
X102186000Y-140208000D01*
X102186000Y-140208000D02*
X102186000Y-145208000D01*
X102186000Y-145208000D02*
X101186000Y-145208000D01*
X91186000Y-140208000D02*
X91186000Y-145208000D01*
X91186000Y-145208000D02*
X101186000Y-145208000D01*
X101186000Y-140208000D02*
X91186000Y-140208000D01*
X92616000Y-137160000D02*
X91616000Y-137160000D01*
X91616000Y-137160000D02*
X91616000Y-132160000D01*
X91616000Y-132160000D02*
X92616000Y-132160000D01*
X102616000Y-137160000D02*
X102616000Y-132160000D01*
X102616000Y-132160000D02*
X92616000Y-132160000D01*
X92616000Y-137160000D02*
X102616000Y-137160000D01*
X99474000Y-131318000D02*
X98474000Y-131318000D01*
X98474000Y-131318000D02*
X98474000Y-126318000D01*
X98474000Y-126318000D02*
X99474000Y-126318000D01*
X109474000Y-131318000D02*
X109474000Y-126318000D01*
X109474000Y-126318000D02*
X99474000Y-126318000D01*
X99474000Y-131318000D02*
X109474000Y-131318000D01*
X111412000Y-119888000D02*
X110412000Y-119888000D01*
X110412000Y-119888000D02*
X110412000Y-114888000D01*
X110412000Y-114888000D02*
X111412000Y-114888000D01*
X121412000Y-119888000D02*
X121412000Y-114888000D01*
X121412000Y-114888000D02*
X111412000Y-114888000D01*
X111412000Y-119888000D02*
X121412000Y-119888000D01*
X125382000Y-154686000D02*
X124382000Y-154686000D01*
X124382000Y-154686000D02*
X124382000Y-149686000D01*
X124382000Y-149686000D02*
X125382000Y-149686000D01*
X135382000Y-154686000D02*
X135382000Y-149686000D01*
X135382000Y-149686000D02*
X125382000Y-149686000D01*
X125382000Y-154686000D02*
X135382000Y-154686000D01*
X118204000Y-149098000D02*
X119204000Y-149098000D01*
X119204000Y-149098000D02*
X119204000Y-154098000D01*
X119204000Y-154098000D02*
X118204000Y-154098000D01*
X108204000Y-149098000D02*
X108204000Y-154098000D01*
X108204000Y-154098000D02*
X118204000Y-154098000D01*
X118204000Y-149098000D02*
X108204000Y-149098000D01*
X118204000Y-154178000D02*
X119204000Y-154178000D01*
X119204000Y-154178000D02*
X119204000Y-159178000D01*
X119204000Y-159178000D02*
X118204000Y-159178000D01*
X108204000Y-154178000D02*
X108204000Y-159178000D01*
X108204000Y-159178000D02*
X118204000Y-159178000D01*
X118204000Y-154178000D02*
X108204000Y-154178000D01*
X119634000Y-136558000D02*
X119634000Y-135558000D01*
X119634000Y-135558000D02*
X124634000Y-135558000D01*
X124634000Y-135558000D02*
X124634000Y-136558000D01*
X119634000Y-146558000D02*
X124634000Y-146558000D01*
X124634000Y-146558000D02*
X124634000Y-136558000D01*
X119634000Y-136558000D02*
X119634000Y-146558000D01*
D12*
X159960000Y-110379000D02*
G75*
G02X159960000Y-112379000I0J-1000000D01*
G01*
X159960000Y-112379000D02*
X159960000Y-114029000D01*
X159960000Y-114029000D02*
X180400000Y-114029000D01*
X180400000Y-114029000D02*
X180400000Y-108729000D01*
X180400000Y-108729000D02*
X159960000Y-108729000D01*
X159960000Y-108729000D02*
X159960000Y-110379000D01*
X136128000Y-127092400D02*
G75*
G02X134128000Y-127092400I-1000000J0D01*
G01*
X134128000Y-127092400D02*
X132478000Y-127092400D01*
X132478000Y-127092400D02*
X132478000Y-147532400D01*
X132478000Y-147532400D02*
X137778000Y-147532400D01*
X137778000Y-147532400D02*
X137778000Y-127092400D01*
X137778000Y-127092400D02*
X136128000Y-127092400D01*
D11*
X130225800Y-124091700D02*
X135305800Y-124091700D01*
X135305800Y-124091700D02*
X135305800Y-126631700D01*
X135305800Y-126631700D02*
X130225800Y-126631700D01*
X130225800Y-126631700D02*
X130225800Y-124091700D01*
X129959100Y-134759700D02*
X124879100Y-134759700D01*
X124879100Y-134759700D02*
X124879100Y-132219700D01*
X124879100Y-132219700D02*
X129959100Y-132219700D01*
X129959100Y-132219700D02*
X129959100Y-134759700D01*
X129730500Y-141693900D02*
X124650500Y-141693900D01*
X124650500Y-141693900D02*
X124650500Y-139153900D01*
X124650500Y-139153900D02*
X129730500Y-139153900D01*
X129730500Y-139153900D02*
X129730500Y-141693900D01*
X129768600Y-145313400D02*
X124688600Y-145313400D01*
X124688600Y-145313400D02*
X124688600Y-142773400D01*
X124688600Y-142773400D02*
X129768600Y-142773400D01*
X129768600Y-142773400D02*
X129768600Y-145313400D01*
X129768600Y-148932900D02*
X124688600Y-148932900D01*
X124688600Y-148932900D02*
X124688600Y-146392900D01*
X124688600Y-146392900D02*
X129768600Y-146392900D01*
X129768600Y-146392900D02*
X129768600Y-148932900D01*
X165745160Y-123169680D02*
X165745160Y-118089680D01*
X165745160Y-118089680D02*
X168285160Y-118089680D01*
X168285160Y-118089680D02*
X168285160Y-123169680D01*
X168285160Y-123169680D02*
X165745160Y-123169680D01*
X181782720Y-122666760D02*
X181782720Y-127746760D01*
X181782720Y-127746760D02*
X179242720Y-127746760D01*
X179242720Y-127746760D02*
X179242720Y-122666760D01*
X179242720Y-122666760D02*
X181782720Y-122666760D01*
X140426440Y-137353040D02*
X145506440Y-137353040D01*
X145506440Y-137353040D02*
X145506440Y-139893040D01*
X145506440Y-139893040D02*
X140426440Y-139893040D01*
X140426440Y-139893040D02*
X140426440Y-137353040D01*
X157353000Y-150596600D02*
X152273000Y-150596600D01*
X152273000Y-150596600D02*
X152273000Y-148056600D01*
X152273000Y-148056600D02*
X157353000Y-148056600D01*
X157353000Y-148056600D02*
X157353000Y-150596600D01*
X154647900Y-136398000D02*
X149567900Y-136398000D01*
X149567900Y-136398000D02*
X149567900Y-133858000D01*
X149567900Y-133858000D02*
X154647900Y-133858000D01*
X154647900Y-133858000D02*
X154647900Y-136398000D01*
X184440000Y-138300000D02*
X184440000Y-143380000D01*
X184440000Y-143380000D02*
X181900000Y-143380000D01*
X181900000Y-143380000D02*
X181900000Y-138300000D01*
X181900000Y-138300000D02*
X184440000Y-138300000D01*
X168100000Y-139070000D02*
X168100000Y-133990000D01*
X168100000Y-133990000D02*
X170640000Y-133990000D01*
X170640000Y-133990000D02*
X170640000Y-139070000D01*
X170640000Y-139070000D02*
X168100000Y-139070000D01*
X84437540Y-148406000D02*
X79357540Y-148406000D01*
X79357540Y-148406000D02*
X79357540Y-145866000D01*
X79357540Y-145866000D02*
X84437540Y-145866000D01*
X84437540Y-145866000D02*
X84437540Y-148406000D01*
X84150520Y-131809640D02*
X89230520Y-131809640D01*
X89230520Y-131809640D02*
X89230520Y-134349640D01*
X89230520Y-134349640D02*
X84150520Y-134349640D01*
X84150520Y-134349640D02*
X84150520Y-131809640D01*
X85344000Y-145796000D02*
X90424000Y-145796000D01*
X90424000Y-145796000D02*
X90424000Y-148336000D01*
X90424000Y-148336000D02*
X85344000Y-148336000D01*
X85344000Y-148336000D02*
X85344000Y-145796000D01*
X98298000Y-137414000D02*
X103378000Y-137414000D01*
X103378000Y-137414000D02*
X103378000Y-139954000D01*
X103378000Y-139954000D02*
X98298000Y-139954000D01*
X98298000Y-139954000D02*
X98298000Y-137414000D01*
X115570000Y-122174000D02*
X120650000Y-122174000D01*
X120650000Y-122174000D02*
X120650000Y-124714000D01*
X120650000Y-124714000D02*
X115570000Y-124714000D01*
X115570000Y-124714000D02*
X115570000Y-122174000D01*
X106172000Y-136144000D02*
X106172000Y-141224000D01*
X106172000Y-141224000D02*
X103632000Y-141224000D01*
X103632000Y-141224000D02*
X103632000Y-136144000D01*
X103632000Y-136144000D02*
X106172000Y-136144000D01*
X119331740Y-144002760D02*
X119331740Y-149082760D01*
X119331740Y-149082760D02*
X116791740Y-149082760D01*
X116791740Y-149082760D02*
X116791740Y-144002760D01*
X116791740Y-144002760D02*
X119331740Y-144002760D01*
X144381200Y-133311900D02*
X143381200Y-133311900D01*
X143381200Y-133311900D02*
X143381200Y-128311900D01*
X143381200Y-128311900D02*
X144381200Y-128311900D01*
X154381200Y-133311900D02*
X154381200Y-128311900D01*
X154381200Y-128311900D02*
X144381200Y-128311900D01*
X144381200Y-133311900D02*
X154381200Y-133311900D01*
X156062700Y-142684500D02*
X157062700Y-142684500D01*
X157062700Y-142684500D02*
X157062700Y-147684500D01*
X157062700Y-147684500D02*
X156062700Y-147684500D01*
X146062700Y-142684500D02*
X146062700Y-147684500D01*
X146062700Y-147684500D02*
X156062700Y-147684500D01*
X156062700Y-142684500D02*
X146062700Y-142684500D01*
X148844000Y-127094000D02*
X148844000Y-128094000D01*
X148844000Y-128094000D02*
X143844000Y-128094000D01*
X143844000Y-128094000D02*
X143844000Y-127094000D01*
X148844000Y-117094000D02*
X143844000Y-117094000D01*
X143844000Y-117094000D02*
X143844000Y-127094000D01*
X148844000Y-127094000D02*
X148844000Y-117094000D01*
X145818860Y-152717520D02*
X145818860Y-153717520D01*
X145818860Y-153717520D02*
X140818860Y-153717520D01*
X140818860Y-153717520D02*
X140818860Y-152717520D01*
X145818860Y-142717520D02*
X140818860Y-142717520D01*
X140818860Y-142717520D02*
X140818860Y-152717520D01*
X145818860Y-152717520D02*
X145818860Y-142717520D01*
X182156100Y-118625600D02*
X182156100Y-117625600D01*
X182156100Y-117625600D02*
X187156100Y-117625600D01*
X187156100Y-117625600D02*
X187156100Y-118625600D01*
X182156100Y-128625600D02*
X187156100Y-128625600D01*
X187156100Y-128625600D02*
X187156100Y-118625600D01*
X182156100Y-118625600D02*
X182156100Y-128625600D01*
X180160000Y-133830000D02*
X179160000Y-133830000D01*
X179160000Y-133830000D02*
X179160000Y-128830000D01*
X179160000Y-128830000D02*
X180160000Y-128830000D01*
X190160000Y-133830000D02*
X190160000Y-128830000D01*
X190160000Y-128830000D02*
X180160000Y-128830000D01*
X180160000Y-133830000D02*
X190160000Y-133830000D01*
X170260000Y-151830000D02*
X171260000Y-151830000D01*
X171260000Y-151830000D02*
X171260000Y-156830000D01*
X171260000Y-156830000D02*
X170260000Y-156830000D01*
X160260000Y-151830000D02*
X160260000Y-156830000D01*
X160260000Y-156830000D02*
X170260000Y-156830000D01*
X170260000Y-151830000D02*
X160260000Y-151830000D01*
X175049200Y-128206500D02*
X176049200Y-128206500D01*
X176049200Y-128206500D02*
X176049200Y-133206500D01*
X176049200Y-133206500D02*
X175049200Y-133206500D01*
X165049200Y-128206500D02*
X165049200Y-133206500D01*
X165049200Y-133206500D02*
X175049200Y-133206500D01*
X175049200Y-128206500D02*
X165049200Y-128206500D01*
D12*
X178865840Y-123956320D02*
G75*
G02X178865840Y-121956320I0J1000000D01*
G01*
X178865840Y-121956320D02*
X178865840Y-120306320D01*
X178865840Y-120306320D02*
X168585840Y-120306320D01*
X168585840Y-120306320D02*
X168585840Y-125606320D01*
X168585840Y-125606320D02*
X178865840Y-125606320D01*
X178865840Y-125606320D02*
X178865840Y-123956320D01*
X181330000Y-139810000D02*
G75*
G02X181330000Y-137810000I0J1000000D01*
G01*
X181330000Y-137810000D02*
X181330000Y-136160000D01*
X181330000Y-136160000D02*
X171050000Y-136160000D01*
X171050000Y-136160000D02*
X171050000Y-141460000D01*
X171050000Y-141460000D02*
X181330000Y-141460000D01*
X181330000Y-141460000D02*
X181330000Y-139810000D01*
X85447700Y-134838280D02*
G75*
G02X83447700Y-134838280I-1000000J0D01*
G01*
X83447700Y-134838280D02*
X81797700Y-134838280D01*
X81797700Y-134838280D02*
X81797700Y-145118280D01*
X81797700Y-145118280D02*
X87097700Y-145118280D01*
X87097700Y-145118280D02*
X87097700Y-134838280D01*
X87097700Y-134838280D02*
X85447700Y-134838280D01*
X116570000Y-124908000D02*
G75*
G02X114570000Y-124908000I-1000000J0D01*
G01*
X114570000Y-124908000D02*
X112920000Y-124908000D01*
X112920000Y-124908000D02*
X112920000Y-135188000D01*
X112920000Y-135188000D02*
X118220000Y-135188000D01*
X118220000Y-135188000D02*
X118220000Y-124908000D01*
X118220000Y-124908000D02*
X116570000Y-124908000D01*
X116646000Y-145018000D02*
G75*
G02X116646000Y-143018000I0J1000000D01*
G01*
X116646000Y-143018000D02*
X116646000Y-141368000D01*
X116646000Y-141368000D02*
X106366000Y-141368000D01*
X106366000Y-141368000D02*
X106366000Y-146668000D01*
X106366000Y-146668000D02*
X116646000Y-146668000D01*
X116646000Y-146668000D02*
X116646000Y-145018000D01*
D11*
X53340000Y-133261100D02*
X71374000Y-133261100D01*
X71374000Y-133261100D02*
X71374000Y-147231100D01*
X71374000Y-147231100D02*
X53340000Y-147231100D01*
X53340000Y-147231100D02*
X53340000Y-133261100D01*
D12*
X178989680Y-149804880D02*
G75*
G02X178989680Y-151804880I0J-1000000D01*
G01*
X178989680Y-151804880D02*
X178989680Y-153454880D01*
X178989680Y-153454880D02*
X189269680Y-153454880D01*
X189269680Y-153454880D02*
X189269680Y-148154880D01*
X189269680Y-148154880D02*
X178989680Y-148154880D01*
X178989680Y-148154880D02*
X178989680Y-149804880D01*
D11*
X213850000Y-156770000D02*
X205850000Y-156770000D01*
X205850000Y-156770000D02*
X205850000Y-141770000D01*
X205850000Y-141770000D02*
X213850000Y-141770000D01*
X172974000Y-55626000D02*
X172974000Y-79626000D01*
X172974000Y-79626000D02*
X214974000Y-79626000D01*
X214974000Y-79626000D02*
X214974000Y-55626000D01*
X214974000Y-55626000D02*
X172974000Y-55626000D01*
D12*
X65592000Y-54670000D02*
X65592000Y-52010000D01*
X55372000Y-54670000D02*
X65592000Y-54670000D01*
X55372000Y-52010000D02*
X65592000Y-52010000D01*
X55372000Y-54670000D02*
X55372000Y-52010000D01*
X54102000Y-54670000D02*
X52772000Y-54670000D01*
X52772000Y-54670000D02*
X52772000Y-53340000D01*
D11*
X165830895Y-92762481D02*
X165830895Y-93572005D01*
X165878514Y-93667243D01*
X165926133Y-93714862D01*
X166021371Y-93762481D01*
X166211848Y-93762481D01*
X166307086Y-93714862D01*
X166354705Y-93667243D01*
X166402324Y-93572005D01*
X166402324Y-92762481D01*
X166830895Y-92857719D02*
X166878514Y-92810100D01*
X166973752Y-92762481D01*
X167211848Y-92762481D01*
X167307086Y-92810100D01*
X167354705Y-92857719D01*
X167402324Y-92952957D01*
X167402324Y-93048195D01*
X167354705Y-93191052D01*
X166783276Y-93762481D01*
X167402324Y-93762481D01*
X68469635Y-133174021D02*
X68469635Y-133983545D01*
X68517254Y-134078783D01*
X68564873Y-134126402D01*
X68660111Y-134174021D01*
X68850588Y-134174021D01*
X68945826Y-134126402D01*
X68993445Y-134078783D01*
X69041064Y-133983545D01*
X69041064Y-133174021D01*
X69993445Y-133174021D02*
X69517254Y-133174021D01*
X69469635Y-133650211D01*
X69517254Y-133602592D01*
X69612492Y-133554973D01*
X69850588Y-133554973D01*
X69945826Y-133602592D01*
X69993445Y-133650211D01*
X70041064Y-133745450D01*
X70041064Y-133983545D01*
X69993445Y-134078783D01*
X69945826Y-134126402D01*
X69850588Y-134174021D01*
X69612492Y-134174021D01*
X69517254Y-134126402D01*
X69469635Y-134078783D01*
X58992381Y-110303333D02*
X59706667Y-110303333D01*
X59849524Y-110350953D01*
X59944762Y-110446191D01*
X59992381Y-110589048D01*
X59992381Y-110684286D01*
X59087619Y-109874762D02*
X59040000Y-109827143D01*
X58992381Y-109731905D01*
X58992381Y-109493809D01*
X59040000Y-109398571D01*
X59087619Y-109350952D01*
X59182857Y-109303333D01*
X59278095Y-109303333D01*
X59420952Y-109350952D01*
X59992381Y-109922381D01*
X59992381Y-109303333D01*
D14*
X97360533Y-107283419D02*
X97360533Y-108009133D01*
X97312153Y-108154276D01*
X97215391Y-108251038D01*
X97070248Y-108299419D01*
X96973486Y-108299419D01*
X97747581Y-107283419D02*
X98376533Y-107283419D01*
X98037867Y-107670467D01*
X98183009Y-107670467D01*
X98279771Y-107718848D01*
X98328152Y-107767229D01*
X98376533Y-107863990D01*
X98376533Y-108105895D01*
X98328152Y-108202657D01*
X98279771Y-108251038D01*
X98183009Y-108299419D01*
X97892724Y-108299419D01*
X97795962Y-108251038D01*
X97747581Y-108202657D01*
X120220533Y-107293419D02*
X120220533Y-108019133D01*
X120172153Y-108164276D01*
X120075391Y-108261038D01*
X119930248Y-108309419D01*
X119833486Y-108309419D01*
X121139771Y-107632086D02*
X121139771Y-108309419D01*
X120897867Y-107245038D02*
X120655962Y-107970752D01*
X121284914Y-107970752D01*
D11*
X138015867Y-64021181D02*
X138015867Y-64735467D01*
X137968247Y-64878324D01*
X137873009Y-64973562D01*
X137730152Y-65021181D01*
X137634914Y-65021181D01*
X138968248Y-64021181D02*
X138492057Y-64021181D01*
X138444438Y-64497371D01*
X138492057Y-64449752D01*
X138587295Y-64402133D01*
X138825391Y-64402133D01*
X138920629Y-64449752D01*
X138968248Y-64497371D01*
X139015867Y-64592610D01*
X139015867Y-64830705D01*
X138968248Y-64925943D01*
X138920629Y-64973562D01*
X138825391Y-65021181D01*
X138587295Y-65021181D01*
X138492057Y-64973562D01*
X138444438Y-64925943D01*
D14*
X102430533Y-59033419D02*
X102430533Y-59759133D01*
X102382153Y-59904276D01*
X102285391Y-60001038D01*
X102140248Y-60049419D01*
X102043486Y-60049419D01*
X102817581Y-59033419D02*
X103494914Y-59033419D01*
X103059486Y-60049419D01*
X125290533Y-59033419D02*
X125290533Y-59759133D01*
X125242153Y-59904276D01*
X125145391Y-60001038D01*
X125000248Y-60049419D01*
X124903486Y-60049419D01*
X125919486Y-59468848D02*
X125822724Y-59420467D01*
X125774343Y-59372086D01*
X125725962Y-59275324D01*
X125725962Y-59226943D01*
X125774343Y-59130181D01*
X125822724Y-59081800D01*
X125919486Y-59033419D01*
X126113009Y-59033419D01*
X126209771Y-59081800D01*
X126258152Y-59130181D01*
X126306533Y-59226943D01*
X126306533Y-59275324D01*
X126258152Y-59372086D01*
X126209771Y-59420467D01*
X126113009Y-59468848D01*
X125919486Y-59468848D01*
X125822724Y-59517229D01*
X125774343Y-59565610D01*
X125725962Y-59662371D01*
X125725962Y-59855895D01*
X125774343Y-59952657D01*
X125822724Y-60001038D01*
X125919486Y-60049419D01*
X126113009Y-60049419D01*
X126209771Y-60001038D01*
X126258152Y-59952657D01*
X126306533Y-59855895D01*
X126306533Y-59662371D01*
X126258152Y-59565610D01*
X126209771Y-59517229D01*
X126113009Y-59468848D01*
X79570533Y-59033419D02*
X79570533Y-59759133D01*
X79522153Y-59904276D01*
X79425391Y-60001038D01*
X79280248Y-60049419D01*
X79183486Y-60049419D01*
X80489771Y-59033419D02*
X80296248Y-59033419D01*
X80199486Y-59081800D01*
X80151105Y-59130181D01*
X80054343Y-59275324D01*
X80005962Y-59468848D01*
X80005962Y-59855895D01*
X80054343Y-59952657D01*
X80102724Y-60001038D01*
X80199486Y-60049419D01*
X80393009Y-60049419D01*
X80489771Y-60001038D01*
X80538152Y-59952657D01*
X80586533Y-59855895D01*
X80586533Y-59613990D01*
X80538152Y-59517229D01*
X80489771Y-59468848D01*
X80393009Y-59420467D01*
X80199486Y-59420467D01*
X80102724Y-59468848D01*
X80054343Y-59517229D01*
X80005962Y-59613990D01*
D11*
X94038095Y-114762381D02*
X94038095Y-115571905D01*
X94085714Y-115667143D01*
X94133333Y-115714762D01*
X94228571Y-115762381D01*
X94419048Y-115762381D01*
X94514286Y-115714762D01*
X94561905Y-115667143D01*
X94609524Y-115571905D01*
X94609524Y-114762381D01*
X95609524Y-115762381D02*
X95038095Y-115762381D01*
X95323809Y-115762381D02*
X95323809Y-114762381D01*
X95228571Y-114905238D01*
X95133333Y-115000476D01*
X95038095Y-115048095D01*
X162421905Y-145682381D02*
X162421905Y-144682381D01*
X162660000Y-144682381D01*
X162802858Y-144730000D01*
X162898096Y-144825238D01*
X162945715Y-144920476D01*
X162993334Y-145110952D01*
X162993334Y-145253810D01*
X162945715Y-145444286D01*
X162898096Y-145539524D01*
X162802858Y-145634762D01*
X162660000Y-145682381D01*
X162421905Y-145682381D01*
X163326667Y-144682381D02*
X163945715Y-144682381D01*
X163612381Y-145063333D01*
X163755239Y-145063333D01*
X163850477Y-145110952D01*
X163898096Y-145158571D01*
X163945715Y-145253810D01*
X163945715Y-145491905D01*
X163898096Y-145587143D01*
X163850477Y-145634762D01*
X163755239Y-145682381D01*
X163469524Y-145682381D01*
X163374286Y-145634762D01*
X163326667Y-145587143D01*
X68511905Y-154862381D02*
X68511905Y-153862381D01*
X68750000Y-153862381D01*
X68892858Y-153910000D01*
X68988096Y-154005238D01*
X69035715Y-154100476D01*
X69083334Y-154290952D01*
X69083334Y-154433810D01*
X69035715Y-154624286D01*
X68988096Y-154719524D01*
X68892858Y-154814762D01*
X68750000Y-154862381D01*
X68511905Y-154862381D01*
X69940477Y-154195714D02*
X69940477Y-154862381D01*
X69702381Y-153814762D02*
X69464286Y-154529048D01*
X70083334Y-154529048D01*
X119004381Y-151614095D02*
X118004381Y-151614095D01*
X118004381Y-151376000D01*
X118052000Y-151233142D01*
X118147238Y-151137904D01*
X118242476Y-151090285D01*
X118432952Y-151042666D01*
X118575810Y-151042666D01*
X118766286Y-151090285D01*
X118861524Y-151137904D01*
X118956762Y-151233142D01*
X119004381Y-151376000D01*
X119004381Y-151614095D01*
X118004381Y-150137904D02*
X118004381Y-150614095D01*
X118480571Y-150661714D01*
X118432952Y-150614095D01*
X118385333Y-150518857D01*
X118385333Y-150280761D01*
X118432952Y-150185523D01*
X118480571Y-150137904D01*
X118575810Y-150090285D01*
X118813905Y-150090285D01*
X118909143Y-150137904D01*
X118956762Y-150185523D01*
X119004381Y-150280761D01*
X119004381Y-150518857D01*
X118956762Y-150614095D01*
X118909143Y-150661714D01*
X214920381Y-77499333D02*
X215634667Y-77499333D01*
X215777524Y-77546953D01*
X215872762Y-77642191D01*
X215920381Y-77785048D01*
X215920381Y-77880286D01*
X215920381Y-76975524D02*
X215920381Y-76785048D01*
X215872762Y-76689809D01*
X215825143Y-76642190D01*
X215682286Y-76546952D01*
X215491810Y-76499333D01*
X215110857Y-76499333D01*
X215015619Y-76546952D01*
X214968000Y-76594571D01*
X214920381Y-76689809D01*
X214920381Y-76880286D01*
X214968000Y-76975524D01*
X215015619Y-77023143D01*
X215110857Y-77070762D01*
X215348952Y-77070762D01*
X215444190Y-77023143D01*
X215491810Y-76975524D01*
X215539429Y-76880286D01*
X215539429Y-76689809D01*
X215491810Y-76594571D01*
X215444190Y-76546952D01*
X215348952Y-76499333D01*
X214970381Y-93295523D02*
X215684667Y-93295523D01*
X215827524Y-93343143D01*
X215922762Y-93438381D01*
X215970381Y-93581238D01*
X215970381Y-93676476D01*
X215970381Y-92295523D02*
X215970381Y-92866952D01*
X215970381Y-92581238D02*
X214970381Y-92581238D01*
X215113238Y-92676476D01*
X215208476Y-92771714D01*
X215256095Y-92866952D01*
X214970381Y-91676476D02*
X214970381Y-91581237D01*
X215018000Y-91485999D01*
X215065619Y-91438380D01*
X215160857Y-91390761D01*
X215351333Y-91343142D01*
X215589429Y-91343142D01*
X215779905Y-91390761D01*
X215875143Y-91438380D01*
X215922762Y-91485999D01*
X215970381Y-91581237D01*
X215970381Y-91676476D01*
X215922762Y-91771714D01*
X215875143Y-91819333D01*
X215779905Y-91866952D01*
X215589429Y-91914571D01*
X215351333Y-91914571D01*
X215160857Y-91866952D01*
X215065619Y-91819333D01*
X215018000Y-91771714D01*
X214970381Y-91676476D01*
X215030381Y-108825523D02*
X215744667Y-108825523D01*
X215887524Y-108873143D01*
X215982762Y-108968381D01*
X216030381Y-109111238D01*
X216030381Y-109206476D01*
X216030381Y-107825523D02*
X216030381Y-108396952D01*
X216030381Y-108111238D02*
X215030381Y-108111238D01*
X215173238Y-108206476D01*
X215268476Y-108301714D01*
X215316095Y-108396952D01*
X216030381Y-106873142D02*
X216030381Y-107444571D01*
X216030381Y-107158857D02*
X215030381Y-107158857D01*
X215173238Y-107254095D01*
X215268476Y-107349333D01*
X215316095Y-107444571D01*
X215080381Y-124245523D02*
X215794667Y-124245523D01*
X215937524Y-124293143D01*
X216032762Y-124388381D01*
X216080381Y-124531238D01*
X216080381Y-124626476D01*
X216080381Y-123245523D02*
X216080381Y-123816952D01*
X216080381Y-123531238D02*
X215080381Y-123531238D01*
X215223238Y-123626476D01*
X215318476Y-123721714D01*
X215366095Y-123816952D01*
X215175619Y-122864571D02*
X215128000Y-122816952D01*
X215080381Y-122721714D01*
X215080381Y-122483618D01*
X215128000Y-122388380D01*
X215175619Y-122340761D01*
X215270857Y-122293142D01*
X215366095Y-122293142D01*
X215508952Y-122340761D01*
X216080381Y-122912190D01*
X216080381Y-122293142D01*
X165852381Y-138776666D02*
X165376190Y-139110000D01*
X165852381Y-139348095D02*
X164852381Y-139348095D01*
X164852381Y-138967142D01*
X164900000Y-138871904D01*
X164947619Y-138824285D01*
X165042857Y-138776666D01*
X165185714Y-138776666D01*
X165280952Y-138824285D01*
X165328571Y-138871904D01*
X165376190Y-138967142D01*
X165376190Y-139348095D01*
X164852381Y-137871904D02*
X164852381Y-138348095D01*
X165328571Y-138395714D01*
X165280952Y-138348095D01*
X165233333Y-138252857D01*
X165233333Y-138014761D01*
X165280952Y-137919523D01*
X165328571Y-137871904D01*
X165423810Y-137824285D01*
X165661905Y-137824285D01*
X165757143Y-137871904D01*
X165804762Y-137919523D01*
X165852381Y-138014761D01*
X165852381Y-138252857D01*
X165804762Y-138348095D01*
X165757143Y-138395714D01*
X165962381Y-127036666D02*
X165486190Y-127370000D01*
X165962381Y-127608095D02*
X164962381Y-127608095D01*
X164962381Y-127227142D01*
X165010000Y-127131904D01*
X165057619Y-127084285D01*
X165152857Y-127036666D01*
X165295714Y-127036666D01*
X165390952Y-127084285D01*
X165438571Y-127131904D01*
X165486190Y-127227142D01*
X165486190Y-127608095D01*
X164962381Y-126179523D02*
X164962381Y-126370000D01*
X165010000Y-126465238D01*
X165057619Y-126512857D01*
X165200476Y-126608095D01*
X165390952Y-126655714D01*
X165771905Y-126655714D01*
X165867143Y-126608095D01*
X165914762Y-126560476D01*
X165962381Y-126465238D01*
X165962381Y-126274761D01*
X165914762Y-126179523D01*
X165867143Y-126131904D01*
X165771905Y-126084285D01*
X165533810Y-126084285D01*
X165438571Y-126131904D01*
X165390952Y-126179523D01*
X165343333Y-126274761D01*
X165343333Y-126465238D01*
X165390952Y-126560476D01*
X165438571Y-126608095D01*
X165533810Y-126655714D01*
X172573334Y-152142381D02*
X172240000Y-151666190D01*
X172001905Y-152142381D02*
X172001905Y-151142381D01*
X172382858Y-151142381D01*
X172478096Y-151190000D01*
X172525715Y-151237619D01*
X172573334Y-151332857D01*
X172573334Y-151475714D01*
X172525715Y-151570952D01*
X172478096Y-151618571D01*
X172382858Y-151666190D01*
X172001905Y-151666190D01*
X172906667Y-151142381D02*
X173573334Y-151142381D01*
X173144762Y-152142381D01*
X191942381Y-139776666D02*
X191466190Y-140110000D01*
X191942381Y-140348095D02*
X190942381Y-140348095D01*
X190942381Y-139967142D01*
X190990000Y-139871904D01*
X191037619Y-139824285D01*
X191132857Y-139776666D01*
X191275714Y-139776666D01*
X191370952Y-139824285D01*
X191418571Y-139871904D01*
X191466190Y-139967142D01*
X191466190Y-140348095D01*
X191370952Y-139205238D02*
X191323333Y-139300476D01*
X191275714Y-139348095D01*
X191180476Y-139395714D01*
X191132857Y-139395714D01*
X191037619Y-139348095D01*
X190990000Y-139300476D01*
X190942381Y-139205238D01*
X190942381Y-139014761D01*
X190990000Y-138919523D01*
X191037619Y-138871904D01*
X191132857Y-138824285D01*
X191180476Y-138824285D01*
X191275714Y-138871904D01*
X191323333Y-138919523D01*
X191370952Y-139014761D01*
X191370952Y-139205238D01*
X191418571Y-139300476D01*
X191466190Y-139348095D01*
X191561429Y-139395714D01*
X191751905Y-139395714D01*
X191847143Y-139348095D01*
X191894762Y-139300476D01*
X191942381Y-139205238D01*
X191942381Y-139014761D01*
X191894762Y-138919523D01*
X191847143Y-138871904D01*
X191751905Y-138824285D01*
X191561429Y-138824285D01*
X191466190Y-138871904D01*
X191418571Y-138919523D01*
X191370952Y-139014761D01*
X78373334Y-155682381D02*
X78040000Y-155206190D01*
X77801905Y-155682381D02*
X77801905Y-154682381D01*
X78182858Y-154682381D01*
X78278096Y-154730000D01*
X78325715Y-154777619D01*
X78373334Y-154872857D01*
X78373334Y-155015714D01*
X78325715Y-155110952D01*
X78278096Y-155158571D01*
X78182858Y-155206190D01*
X77801905Y-155206190D01*
X78849524Y-155682381D02*
X79040000Y-155682381D01*
X79135239Y-155634762D01*
X79182858Y-155587143D01*
X79278096Y-155444286D01*
X79325715Y-155253810D01*
X79325715Y-154872857D01*
X79278096Y-154777619D01*
X79230477Y-154730000D01*
X79135239Y-154682381D01*
X78944762Y-154682381D01*
X78849524Y-154730000D01*
X78801905Y-154777619D01*
X78754286Y-154872857D01*
X78754286Y-155110952D01*
X78801905Y-155206190D01*
X78849524Y-155253810D01*
X78944762Y-155301429D01*
X79135239Y-155301429D01*
X79230477Y-155253810D01*
X79278096Y-155206190D01*
X79325715Y-155110952D01*
X78172381Y-144002857D02*
X77696190Y-144336191D01*
X78172381Y-144574286D02*
X77172381Y-144574286D01*
X77172381Y-144193333D01*
X77220000Y-144098095D01*
X77267619Y-144050476D01*
X77362857Y-144002857D01*
X77505714Y-144002857D01*
X77600952Y-144050476D01*
X77648571Y-144098095D01*
X77696190Y-144193333D01*
X77696190Y-144574286D01*
X78172381Y-143050476D02*
X78172381Y-143621905D01*
X78172381Y-143336191D02*
X77172381Y-143336191D01*
X77315238Y-143431429D01*
X77410476Y-143526667D01*
X77458095Y-143621905D01*
X77172381Y-142431429D02*
X77172381Y-142336190D01*
X77220000Y-142240952D01*
X77267619Y-142193333D01*
X77362857Y-142145714D01*
X77553333Y-142098095D01*
X77791429Y-142098095D01*
X77981905Y-142145714D01*
X78077143Y-142193333D01*
X78124762Y-142240952D01*
X78172381Y-142336190D01*
X78172381Y-142431429D01*
X78124762Y-142526667D01*
X78077143Y-142574286D01*
X77981905Y-142621905D01*
X77791429Y-142669524D01*
X77553333Y-142669524D01*
X77362857Y-142621905D01*
X77267619Y-142574286D01*
X77220000Y-142526667D01*
X77172381Y-142431429D01*
X86645143Y-125690381D02*
X86311809Y-125214190D01*
X86073714Y-125690381D02*
X86073714Y-124690381D01*
X86454667Y-124690381D01*
X86549905Y-124738000D01*
X86597524Y-124785619D01*
X86645143Y-124880857D01*
X86645143Y-125023714D01*
X86597524Y-125118952D01*
X86549905Y-125166571D01*
X86454667Y-125214190D01*
X86073714Y-125214190D01*
X87597524Y-125690381D02*
X87026095Y-125690381D01*
X87311809Y-125690381D02*
X87311809Y-124690381D01*
X87216571Y-124833238D01*
X87121333Y-124928476D01*
X87026095Y-124976095D01*
X88549905Y-125690381D02*
X87978476Y-125690381D01*
X88264190Y-125690381D02*
X88264190Y-124690381D01*
X88168952Y-124833238D01*
X88073714Y-124928476D01*
X87978476Y-124976095D01*
X89869143Y-159948381D02*
X89535809Y-159472190D01*
X89297714Y-159948381D02*
X89297714Y-158948381D01*
X89678667Y-158948381D01*
X89773905Y-158996000D01*
X89821524Y-159043619D01*
X89869143Y-159138857D01*
X89869143Y-159281714D01*
X89821524Y-159376952D01*
X89773905Y-159424571D01*
X89678667Y-159472190D01*
X89297714Y-159472190D01*
X90821524Y-159948381D02*
X90250095Y-159948381D01*
X90535809Y-159948381D02*
X90535809Y-158948381D01*
X90440571Y-159091238D01*
X90345333Y-159186476D01*
X90250095Y-159234095D01*
X91202476Y-159043619D02*
X91250095Y-158996000D01*
X91345333Y-158948381D01*
X91583429Y-158948381D01*
X91678667Y-158996000D01*
X91726286Y-159043619D01*
X91773905Y-159138857D01*
X91773905Y-159234095D01*
X91726286Y-159376952D01*
X91154857Y-159948381D01*
X91773905Y-159948381D01*
X89947143Y-148042381D02*
X89613809Y-147566190D01*
X89375714Y-148042381D02*
X89375714Y-147042381D01*
X89756667Y-147042381D01*
X89851905Y-147090000D01*
X89899524Y-147137619D01*
X89947143Y-147232857D01*
X89947143Y-147375714D01*
X89899524Y-147470952D01*
X89851905Y-147518571D01*
X89756667Y-147566190D01*
X89375714Y-147566190D01*
X90899524Y-148042381D02*
X90328095Y-148042381D01*
X90613809Y-148042381D02*
X90613809Y-147042381D01*
X90518571Y-147185238D01*
X90423333Y-147280476D01*
X90328095Y-147328095D01*
X91232857Y-147042381D02*
X91851905Y-147042381D01*
X91518571Y-147423333D01*
X91661429Y-147423333D01*
X91756667Y-147470952D01*
X91804286Y-147518571D01*
X91851905Y-147613810D01*
X91851905Y-147851905D01*
X91804286Y-147947143D01*
X91756667Y-147994762D01*
X91661429Y-148042381D01*
X91375714Y-148042381D01*
X91280476Y-147994762D01*
X91232857Y-147947143D01*
X91146381Y-143478857D02*
X90670190Y-143812191D01*
X91146381Y-144050286D02*
X90146381Y-144050286D01*
X90146381Y-143669333D01*
X90194000Y-143574095D01*
X90241619Y-143526476D01*
X90336857Y-143478857D01*
X90479714Y-143478857D01*
X90574952Y-143526476D01*
X90622571Y-143574095D01*
X90670190Y-143669333D01*
X90670190Y-144050286D01*
X91146381Y-142526476D02*
X91146381Y-143097905D01*
X91146381Y-142812191D02*
X90146381Y-142812191D01*
X90289238Y-142907429D01*
X90384476Y-143002667D01*
X90432095Y-143097905D01*
X90479714Y-141669333D02*
X91146381Y-141669333D01*
X90098762Y-141907429D02*
X90813048Y-142145524D01*
X90813048Y-141526476D01*
X104830381Y-152446857D02*
X104354190Y-152780191D01*
X104830381Y-153018286D02*
X103830381Y-153018286D01*
X103830381Y-152637333D01*
X103878000Y-152542095D01*
X103925619Y-152494476D01*
X104020857Y-152446857D01*
X104163714Y-152446857D01*
X104258952Y-152494476D01*
X104306571Y-152542095D01*
X104354190Y-152637333D01*
X104354190Y-153018286D01*
X104830381Y-151494476D02*
X104830381Y-152065905D01*
X104830381Y-151780191D02*
X103830381Y-151780191D01*
X103973238Y-151875429D01*
X104068476Y-151970667D01*
X104116095Y-152065905D01*
X103830381Y-150589714D02*
X103830381Y-151065905D01*
X104306571Y-151113524D01*
X104258952Y-151065905D01*
X104211333Y-150970667D01*
X104211333Y-150732571D01*
X104258952Y-150637333D01*
X104306571Y-150589714D01*
X104401810Y-150542095D01*
X104639905Y-150542095D01*
X104735143Y-150589714D01*
X104782762Y-150637333D01*
X104830381Y-150732571D01*
X104830381Y-150970667D01*
X104782762Y-151065905D01*
X104735143Y-151113524D01*
X96043143Y-139660381D02*
X95709809Y-139184190D01*
X95471714Y-139660381D02*
X95471714Y-138660381D01*
X95852667Y-138660381D01*
X95947905Y-138708000D01*
X95995524Y-138755619D01*
X96043143Y-138850857D01*
X96043143Y-138993714D01*
X95995524Y-139088952D01*
X95947905Y-139136571D01*
X95852667Y-139184190D01*
X95471714Y-139184190D01*
X96995524Y-139660381D02*
X96424095Y-139660381D01*
X96709809Y-139660381D02*
X96709809Y-138660381D01*
X96614571Y-138803238D01*
X96519333Y-138898476D01*
X96424095Y-138946095D01*
X97852667Y-138660381D02*
X97662190Y-138660381D01*
X97566952Y-138708000D01*
X97519333Y-138755619D01*
X97424095Y-138898476D01*
X97376476Y-139088952D01*
X97376476Y-139469905D01*
X97424095Y-139565143D01*
X97471714Y-139612762D01*
X97566952Y-139660381D01*
X97757429Y-139660381D01*
X97852667Y-139612762D01*
X97900286Y-139565143D01*
X97947905Y-139469905D01*
X97947905Y-139231810D01*
X97900286Y-139136571D01*
X97852667Y-139088952D01*
X97757429Y-139041333D01*
X97566952Y-139041333D01*
X97471714Y-139088952D01*
X97424095Y-139136571D01*
X97376476Y-139231810D01*
X96473143Y-138612381D02*
X96139809Y-138136190D01*
X95901714Y-138612381D02*
X95901714Y-137612381D01*
X96282667Y-137612381D01*
X96377905Y-137660000D01*
X96425524Y-137707619D01*
X96473143Y-137802857D01*
X96473143Y-137945714D01*
X96425524Y-138040952D01*
X96377905Y-138088571D01*
X96282667Y-138136190D01*
X95901714Y-138136190D01*
X97425524Y-138612381D02*
X96854095Y-138612381D01*
X97139809Y-138612381D02*
X97139809Y-137612381D01*
X97044571Y-137755238D01*
X96949333Y-137850476D01*
X96854095Y-137898095D01*
X97758857Y-137612381D02*
X98425524Y-137612381D01*
X97996952Y-138612381D01*
X103331143Y-132770381D02*
X102997809Y-132294190D01*
X102759714Y-132770381D02*
X102759714Y-131770381D01*
X103140667Y-131770381D01*
X103235905Y-131818000D01*
X103283524Y-131865619D01*
X103331143Y-131960857D01*
X103331143Y-132103714D01*
X103283524Y-132198952D01*
X103235905Y-132246571D01*
X103140667Y-132294190D01*
X102759714Y-132294190D01*
X104283524Y-132770381D02*
X103712095Y-132770381D01*
X103997809Y-132770381D02*
X103997809Y-131770381D01*
X103902571Y-131913238D01*
X103807333Y-132008476D01*
X103712095Y-132056095D01*
X104854952Y-132198952D02*
X104759714Y-132151333D01*
X104712095Y-132103714D01*
X104664476Y-132008476D01*
X104664476Y-131960857D01*
X104712095Y-131865619D01*
X104759714Y-131818000D01*
X104854952Y-131770381D01*
X105045429Y-131770381D01*
X105140667Y-131818000D01*
X105188286Y-131865619D01*
X105235905Y-131960857D01*
X105235905Y-132008476D01*
X105188286Y-132103714D01*
X105140667Y-132151333D01*
X105045429Y-132198952D01*
X104854952Y-132198952D01*
X104759714Y-132246571D01*
X104712095Y-132294190D01*
X104664476Y-132389429D01*
X104664476Y-132579905D01*
X104712095Y-132675143D01*
X104759714Y-132722762D01*
X104854952Y-132770381D01*
X105045429Y-132770381D01*
X105140667Y-132722762D01*
X105188286Y-132675143D01*
X105235905Y-132579905D01*
X105235905Y-132389429D01*
X105188286Y-132294190D01*
X105140667Y-132246571D01*
X105045429Y-132198952D01*
X115269143Y-121340381D02*
X114935809Y-120864190D01*
X114697714Y-121340381D02*
X114697714Y-120340381D01*
X115078667Y-120340381D01*
X115173905Y-120388000D01*
X115221524Y-120435619D01*
X115269143Y-120530857D01*
X115269143Y-120673714D01*
X115221524Y-120768952D01*
X115173905Y-120816571D01*
X115078667Y-120864190D01*
X114697714Y-120864190D01*
X116221524Y-121340381D02*
X115650095Y-121340381D01*
X115935809Y-121340381D02*
X115935809Y-120340381D01*
X115840571Y-120483238D01*
X115745333Y-120578476D01*
X115650095Y-120626095D01*
X116697714Y-121340381D02*
X116888190Y-121340381D01*
X116983429Y-121292762D01*
X117031048Y-121245143D01*
X117126286Y-121102286D01*
X117173905Y-120911810D01*
X117173905Y-120530857D01*
X117126286Y-120435619D01*
X117078667Y-120388000D01*
X116983429Y-120340381D01*
X116792952Y-120340381D01*
X116697714Y-120388000D01*
X116650095Y-120435619D01*
X116602476Y-120530857D01*
X116602476Y-120768952D01*
X116650095Y-120864190D01*
X116697714Y-120911810D01*
X116792952Y-120959429D01*
X116983429Y-120959429D01*
X117078667Y-120911810D01*
X117126286Y-120864190D01*
X117173905Y-120768952D01*
X129239143Y-156138381D02*
X128905809Y-155662190D01*
X128667714Y-156138381D02*
X128667714Y-155138381D01*
X129048667Y-155138381D01*
X129143905Y-155186000D01*
X129191524Y-155233619D01*
X129239143Y-155328857D01*
X129239143Y-155471714D01*
X129191524Y-155566952D01*
X129143905Y-155614571D01*
X129048667Y-155662190D01*
X128667714Y-155662190D01*
X129620095Y-155233619D02*
X129667714Y-155186000D01*
X129762952Y-155138381D01*
X130001048Y-155138381D01*
X130096286Y-155186000D01*
X130143905Y-155233619D01*
X130191524Y-155328857D01*
X130191524Y-155424095D01*
X130143905Y-155566952D01*
X129572476Y-156138381D01*
X130191524Y-156138381D01*
X130810571Y-155138381D02*
X130905810Y-155138381D01*
X131001048Y-155186000D01*
X131048667Y-155233619D01*
X131096286Y-155328857D01*
X131143905Y-155519333D01*
X131143905Y-155757429D01*
X131096286Y-155947905D01*
X131048667Y-156043143D01*
X131001048Y-156090762D01*
X130905810Y-156138381D01*
X130810571Y-156138381D01*
X130715333Y-156090762D01*
X130667714Y-156043143D01*
X130620095Y-155947905D01*
X130572476Y-155757429D01*
X130572476Y-155519333D01*
X130620095Y-155328857D01*
X130667714Y-155233619D01*
X130715333Y-155186000D01*
X130810571Y-155138381D01*
X113061143Y-148550381D02*
X112727809Y-148074190D01*
X112489714Y-148550381D02*
X112489714Y-147550381D01*
X112870667Y-147550381D01*
X112965905Y-147598000D01*
X113013524Y-147645619D01*
X113061143Y-147740857D01*
X113061143Y-147883714D01*
X113013524Y-147978952D01*
X112965905Y-148026571D01*
X112870667Y-148074190D01*
X112489714Y-148074190D01*
X113442095Y-147645619D02*
X113489714Y-147598000D01*
X113584952Y-147550381D01*
X113823048Y-147550381D01*
X113918286Y-147598000D01*
X113965905Y-147645619D01*
X114013524Y-147740857D01*
X114013524Y-147836095D01*
X113965905Y-147978952D01*
X113394476Y-148550381D01*
X114013524Y-148550381D01*
X114965905Y-148550381D02*
X114394476Y-148550381D01*
X114680190Y-148550381D02*
X114680190Y-147550381D01*
X114584952Y-147693238D01*
X114489714Y-147788476D01*
X114394476Y-147836095D01*
X113061143Y-153630381D02*
X112727809Y-153154190D01*
X112489714Y-153630381D02*
X112489714Y-152630381D01*
X112870667Y-152630381D01*
X112965905Y-152678000D01*
X113013524Y-152725619D01*
X113061143Y-152820857D01*
X113061143Y-152963714D01*
X113013524Y-153058952D01*
X112965905Y-153106571D01*
X112870667Y-153154190D01*
X112489714Y-153154190D01*
X113442095Y-152725619D02*
X113489714Y-152678000D01*
X113584952Y-152630381D01*
X113823048Y-152630381D01*
X113918286Y-152678000D01*
X113965905Y-152725619D01*
X114013524Y-152820857D01*
X114013524Y-152916095D01*
X113965905Y-153058952D01*
X113394476Y-153630381D01*
X114013524Y-153630381D01*
X114394476Y-152725619D02*
X114442095Y-152678000D01*
X114537333Y-152630381D01*
X114775429Y-152630381D01*
X114870667Y-152678000D01*
X114918286Y-152725619D01*
X114965905Y-152820857D01*
X114965905Y-152916095D01*
X114918286Y-153058952D01*
X114346857Y-153630381D01*
X114965905Y-153630381D01*
X119086381Y-141700857D02*
X118610190Y-142034191D01*
X119086381Y-142272286D02*
X118086381Y-142272286D01*
X118086381Y-141891333D01*
X118134000Y-141796095D01*
X118181619Y-141748476D01*
X118276857Y-141700857D01*
X118419714Y-141700857D01*
X118514952Y-141748476D01*
X118562571Y-141796095D01*
X118610190Y-141891333D01*
X118610190Y-142272286D01*
X118181619Y-141319905D02*
X118134000Y-141272286D01*
X118086381Y-141177048D01*
X118086381Y-140938952D01*
X118134000Y-140843714D01*
X118181619Y-140796095D01*
X118276857Y-140748476D01*
X118372095Y-140748476D01*
X118514952Y-140796095D01*
X119086381Y-141367524D01*
X119086381Y-140748476D01*
X118086381Y-140415143D02*
X118086381Y-139796095D01*
X118467333Y-140129429D01*
X118467333Y-139986571D01*
X118514952Y-139891333D01*
X118562571Y-139843714D01*
X118657810Y-139796095D01*
X118895905Y-139796095D01*
X118991143Y-139843714D01*
X119038762Y-139891333D01*
X119086381Y-139986571D01*
X119086381Y-140272286D01*
X119038762Y-140367524D01*
X118991143Y-140415143D01*
X158412381Y-112140905D02*
X159221905Y-112140905D01*
X159317143Y-112093286D01*
X159364762Y-112045667D01*
X159412381Y-111950429D01*
X159412381Y-111759952D01*
X159364762Y-111664714D01*
X159317143Y-111617095D01*
X159221905Y-111569476D01*
X158412381Y-111569476D01*
X158745714Y-110664714D02*
X159412381Y-110664714D01*
X158364762Y-110902810D02*
X159079048Y-111140905D01*
X159079048Y-110521857D01*
X134151810Y-126544781D02*
X134151810Y-125544781D01*
X135199429Y-126449543D02*
X135151810Y-126497162D01*
X135008953Y-126544781D01*
X134913715Y-126544781D01*
X134770857Y-126497162D01*
X134675619Y-126401924D01*
X134628000Y-126306686D01*
X134580381Y-126116210D01*
X134580381Y-125973352D01*
X134628000Y-125782876D01*
X134675619Y-125687638D01*
X134770857Y-125592400D01*
X134913715Y-125544781D01*
X135008953Y-125544781D01*
X135151810Y-125592400D01*
X135199429Y-125640019D01*
X136151810Y-126544781D02*
X135580381Y-126544781D01*
X135866095Y-126544781D02*
X135866095Y-125544781D01*
X135770857Y-125687638D01*
X135675619Y-125782876D01*
X135580381Y-125830495D01*
X127519134Y-123178843D02*
X127471515Y-123226462D01*
X127328658Y-123274081D01*
X127233420Y-123274081D01*
X127090562Y-123226462D01*
X126995324Y-123131224D01*
X126947705Y-123035986D01*
X126900086Y-122845510D01*
X126900086Y-122702652D01*
X126947705Y-122512176D01*
X126995324Y-122416938D01*
X127090562Y-122321700D01*
X127233420Y-122274081D01*
X127328658Y-122274081D01*
X127471515Y-122321700D01*
X127519134Y-122369319D01*
X128471515Y-123274081D02*
X127900086Y-123274081D01*
X128185800Y-123274081D02*
X128185800Y-122274081D01*
X128090562Y-122416938D01*
X127995324Y-122512176D01*
X127900086Y-122559795D01*
X132332434Y-136386843D02*
X132284815Y-136434462D01*
X132141958Y-136482081D01*
X132046720Y-136482081D01*
X131903862Y-136434462D01*
X131808624Y-136339224D01*
X131761005Y-136243986D01*
X131713386Y-136053510D01*
X131713386Y-135910652D01*
X131761005Y-135720176D01*
X131808624Y-135624938D01*
X131903862Y-135529700D01*
X132046720Y-135482081D01*
X132141958Y-135482081D01*
X132284815Y-135529700D01*
X132332434Y-135577319D01*
X132713386Y-135577319D02*
X132761005Y-135529700D01*
X132856243Y-135482081D01*
X133094339Y-135482081D01*
X133189577Y-135529700D01*
X133237196Y-135577319D01*
X133284815Y-135672557D01*
X133284815Y-135767795D01*
X133237196Y-135910652D01*
X132665767Y-136482081D01*
X133284815Y-136482081D01*
X132103834Y-143321043D02*
X132056215Y-143368662D01*
X131913358Y-143416281D01*
X131818120Y-143416281D01*
X131675262Y-143368662D01*
X131580024Y-143273424D01*
X131532405Y-143178186D01*
X131484786Y-142987710D01*
X131484786Y-142844852D01*
X131532405Y-142654376D01*
X131580024Y-142559138D01*
X131675262Y-142463900D01*
X131818120Y-142416281D01*
X131913358Y-142416281D01*
X132056215Y-142463900D01*
X132103834Y-142511519D01*
X132437167Y-142416281D02*
X133056215Y-142416281D01*
X132722881Y-142797233D01*
X132865739Y-142797233D01*
X132960977Y-142844852D01*
X133008596Y-142892471D01*
X133056215Y-142987710D01*
X133056215Y-143225805D01*
X133008596Y-143321043D01*
X132960977Y-143368662D01*
X132865739Y-143416281D01*
X132580024Y-143416281D01*
X132484786Y-143368662D01*
X132437167Y-143321043D01*
X132141934Y-146940543D02*
X132094315Y-146988162D01*
X131951458Y-147035781D01*
X131856220Y-147035781D01*
X131713362Y-146988162D01*
X131618124Y-146892924D01*
X131570505Y-146797686D01*
X131522886Y-146607210D01*
X131522886Y-146464352D01*
X131570505Y-146273876D01*
X131618124Y-146178638D01*
X131713362Y-146083400D01*
X131856220Y-146035781D01*
X131951458Y-146035781D01*
X132094315Y-146083400D01*
X132141934Y-146131019D01*
X132999077Y-146369114D02*
X132999077Y-147035781D01*
X132760981Y-145988162D02*
X132522886Y-146702448D01*
X133141934Y-146702448D01*
X132141934Y-150560043D02*
X132094315Y-150607662D01*
X131951458Y-150655281D01*
X131856220Y-150655281D01*
X131713362Y-150607662D01*
X131618124Y-150512424D01*
X131570505Y-150417186D01*
X131522886Y-150226710D01*
X131522886Y-150083852D01*
X131570505Y-149893376D01*
X131618124Y-149798138D01*
X131713362Y-149702900D01*
X131856220Y-149655281D01*
X131951458Y-149655281D01*
X132094315Y-149702900D01*
X132141934Y-149750519D01*
X133046696Y-149655281D02*
X132570505Y-149655281D01*
X132522886Y-150131471D01*
X132570505Y-150083852D01*
X132665743Y-150036233D01*
X132903839Y-150036233D01*
X132999077Y-150083852D01*
X133046696Y-150131471D01*
X133094315Y-150226710D01*
X133094315Y-150464805D01*
X133046696Y-150560043D01*
X132999077Y-150607662D01*
X132903839Y-150655281D01*
X132665743Y-150655281D01*
X132570505Y-150607662D01*
X132522886Y-150560043D01*
X164832303Y-125876346D02*
X164879922Y-125923965D01*
X164927541Y-126066822D01*
X164927541Y-126162060D01*
X164879922Y-126304918D01*
X164784684Y-126400156D01*
X164689446Y-126447775D01*
X164498970Y-126495394D01*
X164356112Y-126495394D01*
X164165636Y-126447775D01*
X164070398Y-126400156D01*
X163975160Y-126304918D01*
X163927541Y-126162060D01*
X163927541Y-126066822D01*
X163975160Y-125923965D01*
X164022779Y-125876346D01*
X163927541Y-125019203D02*
X163927541Y-125209680D01*
X163975160Y-125304918D01*
X164022779Y-125352537D01*
X164165636Y-125447775D01*
X164356112Y-125495394D01*
X164737065Y-125495394D01*
X164832303Y-125447775D01*
X164879922Y-125400156D01*
X164927541Y-125304918D01*
X164927541Y-125114441D01*
X164879922Y-125019203D01*
X164832303Y-124971584D01*
X164737065Y-124923965D01*
X164498970Y-124923965D01*
X164403731Y-124971584D01*
X164356112Y-125019203D01*
X164308493Y-125114441D01*
X164308493Y-125304918D01*
X164356112Y-125400156D01*
X164403731Y-125447775D01*
X164498970Y-125495394D01*
X183409863Y-120293426D02*
X183457482Y-120341045D01*
X183505101Y-120483902D01*
X183505101Y-120579140D01*
X183457482Y-120721998D01*
X183362244Y-120817236D01*
X183267006Y-120864855D01*
X183076530Y-120912474D01*
X182933672Y-120912474D01*
X182743196Y-120864855D01*
X182647958Y-120817236D01*
X182552720Y-120721998D01*
X182505101Y-120579140D01*
X182505101Y-120483902D01*
X182552720Y-120341045D01*
X182600339Y-120293426D01*
X182505101Y-119960093D02*
X182505101Y-119293426D01*
X183505101Y-119721998D01*
X137719774Y-136440183D02*
X137672155Y-136487802D01*
X137529298Y-136535421D01*
X137434060Y-136535421D01*
X137291202Y-136487802D01*
X137195964Y-136392564D01*
X137148345Y-136297326D01*
X137100726Y-136106850D01*
X137100726Y-135963992D01*
X137148345Y-135773516D01*
X137195964Y-135678278D01*
X137291202Y-135583040D01*
X137434060Y-135535421D01*
X137529298Y-135535421D01*
X137672155Y-135583040D01*
X137719774Y-135630659D01*
X138291202Y-135963992D02*
X138195964Y-135916373D01*
X138148345Y-135868754D01*
X138100726Y-135773516D01*
X138100726Y-135725897D01*
X138148345Y-135630659D01*
X138195964Y-135583040D01*
X138291202Y-135535421D01*
X138481679Y-135535421D01*
X138576917Y-135583040D01*
X138624536Y-135630659D01*
X138672155Y-135725897D01*
X138672155Y-135773516D01*
X138624536Y-135868754D01*
X138576917Y-135916373D01*
X138481679Y-135963992D01*
X138291202Y-135963992D01*
X138195964Y-136011611D01*
X138148345Y-136059230D01*
X138100726Y-136154469D01*
X138100726Y-136344945D01*
X138148345Y-136440183D01*
X138195964Y-136487802D01*
X138291202Y-136535421D01*
X138481679Y-136535421D01*
X138576917Y-136487802D01*
X138624536Y-136440183D01*
X138672155Y-136344945D01*
X138672155Y-136154469D01*
X138624536Y-136059230D01*
X138576917Y-136011611D01*
X138481679Y-135963992D01*
X159726334Y-152223743D02*
X159678715Y-152271362D01*
X159535858Y-152318981D01*
X159440620Y-152318981D01*
X159297762Y-152271362D01*
X159202524Y-152176124D01*
X159154905Y-152080886D01*
X159107286Y-151890410D01*
X159107286Y-151747552D01*
X159154905Y-151557076D01*
X159202524Y-151461838D01*
X159297762Y-151366600D01*
X159440620Y-151318981D01*
X159535858Y-151318981D01*
X159678715Y-151366600D01*
X159726334Y-151414219D01*
X160202524Y-152318981D02*
X160393000Y-152318981D01*
X160488239Y-152271362D01*
X160535858Y-152223743D01*
X160631096Y-152080886D01*
X160678715Y-151890410D01*
X160678715Y-151509457D01*
X160631096Y-151414219D01*
X160583477Y-151366600D01*
X160488239Y-151318981D01*
X160297762Y-151318981D01*
X160202524Y-151366600D01*
X160154905Y-151414219D01*
X160107286Y-151509457D01*
X160107286Y-151747552D01*
X160154905Y-151842790D01*
X160202524Y-151890410D01*
X160297762Y-151938029D01*
X160488239Y-151938029D01*
X160583477Y-151890410D01*
X160631096Y-151842790D01*
X160678715Y-151747552D01*
X156545043Y-138025143D02*
X156497424Y-138072762D01*
X156354567Y-138120381D01*
X156259329Y-138120381D01*
X156116471Y-138072762D01*
X156021233Y-137977524D01*
X155973614Y-137882286D01*
X155925995Y-137691810D01*
X155925995Y-137548952D01*
X155973614Y-137358476D01*
X156021233Y-137263238D01*
X156116471Y-137168000D01*
X156259329Y-137120381D01*
X156354567Y-137120381D01*
X156497424Y-137168000D01*
X156545043Y-137215619D01*
X157497424Y-138120381D02*
X156925995Y-138120381D01*
X157211709Y-138120381D02*
X157211709Y-137120381D01*
X157116471Y-137263238D01*
X157021233Y-137358476D01*
X156925995Y-137406095D01*
X158116471Y-137120381D02*
X158211710Y-137120381D01*
X158306948Y-137168000D01*
X158354567Y-137215619D01*
X158402186Y-137310857D01*
X158449805Y-137501333D01*
X158449805Y-137739429D01*
X158402186Y-137929905D01*
X158354567Y-138025143D01*
X158306948Y-138072762D01*
X158211710Y-138120381D01*
X158116471Y-138120381D01*
X158021233Y-138072762D01*
X157973614Y-138025143D01*
X157925995Y-137929905D01*
X157878376Y-137739429D01*
X157878376Y-137501333D01*
X157925995Y-137310857D01*
X157973614Y-137215619D01*
X158021233Y-137168000D01*
X158116471Y-137120381D01*
X186067143Y-136402857D02*
X186114762Y-136450476D01*
X186162381Y-136593333D01*
X186162381Y-136688571D01*
X186114762Y-136831429D01*
X186019524Y-136926667D01*
X185924286Y-136974286D01*
X185733810Y-137021905D01*
X185590952Y-137021905D01*
X185400476Y-136974286D01*
X185305238Y-136926667D01*
X185210000Y-136831429D01*
X185162381Y-136688571D01*
X185162381Y-136593333D01*
X185210000Y-136450476D01*
X185257619Y-136402857D01*
X186162381Y-135450476D02*
X186162381Y-136021905D01*
X186162381Y-135736191D02*
X185162381Y-135736191D01*
X185305238Y-135831429D01*
X185400476Y-135926667D01*
X185448095Y-136021905D01*
X186162381Y-134498095D02*
X186162381Y-135069524D01*
X186162381Y-134783810D02*
X185162381Y-134783810D01*
X185305238Y-134879048D01*
X185400476Y-134974286D01*
X185448095Y-135069524D01*
X167187143Y-142252857D02*
X167234762Y-142300476D01*
X167282381Y-142443333D01*
X167282381Y-142538571D01*
X167234762Y-142681429D01*
X167139524Y-142776667D01*
X167044286Y-142824286D01*
X166853810Y-142871905D01*
X166710952Y-142871905D01*
X166520476Y-142824286D01*
X166425238Y-142776667D01*
X166330000Y-142681429D01*
X166282381Y-142538571D01*
X166282381Y-142443333D01*
X166330000Y-142300476D01*
X166377619Y-142252857D01*
X167282381Y-141300476D02*
X167282381Y-141871905D01*
X167282381Y-141586191D02*
X166282381Y-141586191D01*
X166425238Y-141681429D01*
X166520476Y-141776667D01*
X166568095Y-141871905D01*
X166377619Y-140919524D02*
X166330000Y-140871905D01*
X166282381Y-140776667D01*
X166282381Y-140538571D01*
X166330000Y-140443333D01*
X166377619Y-140395714D01*
X166472857Y-140348095D01*
X166568095Y-140348095D01*
X166710952Y-140395714D01*
X167282381Y-140967143D01*
X167282381Y-140348095D01*
X86334683Y-150033143D02*
X86287064Y-150080762D01*
X86144207Y-150128381D01*
X86048969Y-150128381D01*
X85906111Y-150080762D01*
X85810873Y-149985524D01*
X85763254Y-149890286D01*
X85715635Y-149699810D01*
X85715635Y-149556952D01*
X85763254Y-149366476D01*
X85810873Y-149271238D01*
X85906111Y-149176000D01*
X86048969Y-149128381D01*
X86144207Y-149128381D01*
X86287064Y-149176000D01*
X86334683Y-149223619D01*
X87287064Y-150128381D02*
X86715635Y-150128381D01*
X87001349Y-150128381D02*
X87001349Y-149128381D01*
X86906111Y-149271238D01*
X86810873Y-149366476D01*
X86715635Y-149414095D01*
X87620397Y-149128381D02*
X88239445Y-149128381D01*
X87906111Y-149509333D01*
X88048969Y-149509333D01*
X88144207Y-149556952D01*
X88191826Y-149604571D01*
X88239445Y-149699810D01*
X88239445Y-149937905D01*
X88191826Y-150033143D01*
X88144207Y-150080762D01*
X88048969Y-150128381D01*
X87763254Y-150128381D01*
X87668016Y-150080762D01*
X87620397Y-150033143D01*
X91051143Y-133707143D02*
X91003524Y-133754762D01*
X90860667Y-133802381D01*
X90765429Y-133802381D01*
X90622571Y-133754762D01*
X90527333Y-133659524D01*
X90479714Y-133564286D01*
X90432095Y-133373810D01*
X90432095Y-133230952D01*
X90479714Y-133040476D01*
X90527333Y-132945238D01*
X90622571Y-132850000D01*
X90765429Y-132802381D01*
X90860667Y-132802381D01*
X91003524Y-132850000D01*
X91051143Y-132897619D01*
X92003524Y-133802381D02*
X91432095Y-133802381D01*
X91717809Y-133802381D02*
X91717809Y-132802381D01*
X91622571Y-132945238D01*
X91527333Y-133040476D01*
X91432095Y-133088095D01*
X92860667Y-133135714D02*
X92860667Y-133802381D01*
X92622571Y-132754762D02*
X92384476Y-133469048D01*
X93003524Y-133469048D01*
X82161143Y-144883143D02*
X82113524Y-144930762D01*
X81970667Y-144978381D01*
X81875429Y-144978381D01*
X81732571Y-144930762D01*
X81637333Y-144835524D01*
X81589714Y-144740286D01*
X81542095Y-144549810D01*
X81542095Y-144406952D01*
X81589714Y-144216476D01*
X81637333Y-144121238D01*
X81732571Y-144026000D01*
X81875429Y-143978381D01*
X81970667Y-143978381D01*
X82113524Y-144026000D01*
X82161143Y-144073619D01*
X83113524Y-144978381D02*
X82542095Y-144978381D01*
X82827809Y-144978381D02*
X82827809Y-143978381D01*
X82732571Y-144121238D01*
X82637333Y-144216476D01*
X82542095Y-144264095D01*
X84018286Y-143978381D02*
X83542095Y-143978381D01*
X83494476Y-144454571D01*
X83542095Y-144406952D01*
X83637333Y-144359333D01*
X83875429Y-144359333D01*
X83970667Y-144406952D01*
X84018286Y-144454571D01*
X84065905Y-144549810D01*
X84065905Y-144787905D01*
X84018286Y-144883143D01*
X83970667Y-144930762D01*
X83875429Y-144978381D01*
X83637333Y-144978381D01*
X83542095Y-144930762D01*
X83494476Y-144883143D01*
X95115143Y-136501143D02*
X95067524Y-136548762D01*
X94924667Y-136596381D01*
X94829429Y-136596381D01*
X94686571Y-136548762D01*
X94591333Y-136453524D01*
X94543714Y-136358286D01*
X94496095Y-136167810D01*
X94496095Y-136024952D01*
X94543714Y-135834476D01*
X94591333Y-135739238D01*
X94686571Y-135644000D01*
X94829429Y-135596381D01*
X94924667Y-135596381D01*
X95067524Y-135644000D01*
X95115143Y-135691619D01*
X96067524Y-136596381D02*
X95496095Y-136596381D01*
X95781809Y-136596381D02*
X95781809Y-135596381D01*
X95686571Y-135739238D01*
X95591333Y-135834476D01*
X95496095Y-135882095D01*
X96924667Y-135596381D02*
X96734190Y-135596381D01*
X96638952Y-135644000D01*
X96591333Y-135691619D01*
X96496095Y-135834476D01*
X96448476Y-136024952D01*
X96448476Y-136405905D01*
X96496095Y-136501143D01*
X96543714Y-136548762D01*
X96638952Y-136596381D01*
X96829429Y-136596381D01*
X96924667Y-136548762D01*
X96972286Y-136501143D01*
X97019905Y-136405905D01*
X97019905Y-136167810D01*
X96972286Y-136072571D01*
X96924667Y-136024952D01*
X96829429Y-135977333D01*
X96638952Y-135977333D01*
X96543714Y-136024952D01*
X96496095Y-136072571D01*
X96448476Y-136167810D01*
X112387143Y-121261143D02*
X112339524Y-121308762D01*
X112196667Y-121356381D01*
X112101429Y-121356381D01*
X111958571Y-121308762D01*
X111863333Y-121213524D01*
X111815714Y-121118286D01*
X111768095Y-120927810D01*
X111768095Y-120784952D01*
X111815714Y-120594476D01*
X111863333Y-120499238D01*
X111958571Y-120404000D01*
X112101429Y-120356381D01*
X112196667Y-120356381D01*
X112339524Y-120404000D01*
X112387143Y-120451619D01*
X113339524Y-121356381D02*
X112768095Y-121356381D01*
X113053809Y-121356381D02*
X113053809Y-120356381D01*
X112958571Y-120499238D01*
X112863333Y-120594476D01*
X112768095Y-120642095D01*
X113672857Y-120356381D02*
X114339524Y-120356381D01*
X113910952Y-121356381D01*
X107799143Y-134246857D02*
X107846762Y-134294476D01*
X107894381Y-134437333D01*
X107894381Y-134532571D01*
X107846762Y-134675429D01*
X107751524Y-134770667D01*
X107656286Y-134818286D01*
X107465810Y-134865905D01*
X107322952Y-134865905D01*
X107132476Y-134818286D01*
X107037238Y-134770667D01*
X106942000Y-134675429D01*
X106894381Y-134532571D01*
X106894381Y-134437333D01*
X106942000Y-134294476D01*
X106989619Y-134246857D01*
X107894381Y-133294476D02*
X107894381Y-133865905D01*
X107894381Y-133580191D02*
X106894381Y-133580191D01*
X107037238Y-133675429D01*
X107132476Y-133770667D01*
X107180095Y-133865905D01*
X107322952Y-132723048D02*
X107275333Y-132818286D01*
X107227714Y-132865905D01*
X107132476Y-132913524D01*
X107084857Y-132913524D01*
X106989619Y-132865905D01*
X106942000Y-132818286D01*
X106894381Y-132723048D01*
X106894381Y-132532571D01*
X106942000Y-132437333D01*
X106989619Y-132389714D01*
X107084857Y-132342095D01*
X107132476Y-132342095D01*
X107227714Y-132389714D01*
X107275333Y-132437333D01*
X107322952Y-132532571D01*
X107322952Y-132723048D01*
X107370571Y-132818286D01*
X107418190Y-132865905D01*
X107513429Y-132913524D01*
X107703905Y-132913524D01*
X107799143Y-132865905D01*
X107846762Y-132818286D01*
X107894381Y-132723048D01*
X107894381Y-132532571D01*
X107846762Y-132437333D01*
X107799143Y-132389714D01*
X107703905Y-132342095D01*
X107513429Y-132342095D01*
X107418190Y-132389714D01*
X107370571Y-132437333D01*
X107322952Y-132532571D01*
X120958883Y-142105617D02*
X121006502Y-142153236D01*
X121054121Y-142296093D01*
X121054121Y-142391331D01*
X121006502Y-142534189D01*
X120911264Y-142629427D01*
X120816026Y-142677046D01*
X120625550Y-142724665D01*
X120482692Y-142724665D01*
X120292216Y-142677046D01*
X120196978Y-142629427D01*
X120101740Y-142534189D01*
X120054121Y-142391331D01*
X120054121Y-142296093D01*
X120101740Y-142153236D01*
X120149359Y-142105617D01*
X121054121Y-141153236D02*
X121054121Y-141724665D01*
X121054121Y-141438951D02*
X120054121Y-141438951D01*
X120196978Y-141534189D01*
X120292216Y-141629427D01*
X120339835Y-141724665D01*
X121054121Y-140677046D02*
X121054121Y-140486570D01*
X121006502Y-140391331D01*
X120958883Y-140343712D01*
X120816026Y-140248474D01*
X120625550Y-140200855D01*
X120244597Y-140200855D01*
X120149359Y-140248474D01*
X120101740Y-140296093D01*
X120054121Y-140391331D01*
X120054121Y-140581808D01*
X120101740Y-140677046D01*
X120149359Y-140724665D01*
X120244597Y-140772284D01*
X120482692Y-140772284D01*
X120577930Y-140724665D01*
X120625550Y-140677046D01*
X120673169Y-140581808D01*
X120673169Y-140391331D01*
X120625550Y-140296093D01*
X120577930Y-140248474D01*
X120482692Y-140200855D01*
X148143105Y-134764281D02*
X148143105Y-133764281D01*
X148381200Y-133764281D01*
X148524058Y-133811900D01*
X148619296Y-133907138D01*
X148666915Y-134002376D01*
X148714534Y-134192852D01*
X148714534Y-134335710D01*
X148666915Y-134526186D01*
X148619296Y-134621424D01*
X148524058Y-134716662D01*
X148381200Y-134764281D01*
X148143105Y-134764281D01*
X149666915Y-134764281D02*
X149095486Y-134764281D01*
X149381200Y-134764281D02*
X149381200Y-133764281D01*
X149285962Y-133907138D01*
X149190724Y-134002376D01*
X149095486Y-134049995D01*
X150824605Y-142136881D02*
X150824605Y-141136881D01*
X151062700Y-141136881D01*
X151205558Y-141184500D01*
X151300796Y-141279738D01*
X151348415Y-141374976D01*
X151396034Y-141565452D01*
X151396034Y-141708310D01*
X151348415Y-141898786D01*
X151300796Y-141994024D01*
X151205558Y-142089262D01*
X151062700Y-142136881D01*
X150824605Y-142136881D01*
X151776986Y-141232119D02*
X151824605Y-141184500D01*
X151919843Y-141136881D01*
X152157939Y-141136881D01*
X152253177Y-141184500D01*
X152300796Y-141232119D01*
X152348415Y-141327357D01*
X152348415Y-141422595D01*
X152300796Y-141565452D01*
X151729367Y-142136881D01*
X152348415Y-142136881D01*
X150296381Y-122760666D02*
X150296381Y-123236857D01*
X149296381Y-123236857D01*
X150296381Y-121903523D02*
X150296381Y-122474952D01*
X150296381Y-122189238D02*
X149296381Y-122189238D01*
X149439238Y-122284476D01*
X149534476Y-122379714D01*
X149582095Y-122474952D01*
X147271241Y-148384186D02*
X147271241Y-148860377D01*
X146271241Y-148860377D01*
X146366479Y-148098472D02*
X146318860Y-148050853D01*
X146271241Y-147955615D01*
X146271241Y-147717519D01*
X146318860Y-147622281D01*
X146366479Y-147574662D01*
X146461717Y-147527043D01*
X146556955Y-147527043D01*
X146699812Y-147574662D01*
X147271241Y-148146091D01*
X147271241Y-147527043D01*
X181608481Y-123292266D02*
X181132290Y-123625600D01*
X181608481Y-123863695D02*
X180608481Y-123863695D01*
X180608481Y-123482742D01*
X180656100Y-123387504D01*
X180703719Y-123339885D01*
X180798957Y-123292266D01*
X180941814Y-123292266D01*
X181037052Y-123339885D01*
X181084671Y-123387504D01*
X181132290Y-123482742D01*
X181132290Y-123863695D01*
X181608481Y-122339885D02*
X181608481Y-122911314D01*
X181608481Y-122625600D02*
X180608481Y-122625600D01*
X180751338Y-122720838D01*
X180846576Y-122816076D01*
X180894195Y-122911314D01*
X184493334Y-135282381D02*
X184160000Y-134806190D01*
X183921905Y-135282381D02*
X183921905Y-134282381D01*
X184302858Y-134282381D01*
X184398096Y-134330000D01*
X184445715Y-134377619D01*
X184493334Y-134472857D01*
X184493334Y-134615714D01*
X184445715Y-134710952D01*
X184398096Y-134758571D01*
X184302858Y-134806190D01*
X183921905Y-134806190D01*
X184874286Y-134377619D02*
X184921905Y-134330000D01*
X185017143Y-134282381D01*
X185255239Y-134282381D01*
X185350477Y-134330000D01*
X185398096Y-134377619D01*
X185445715Y-134472857D01*
X185445715Y-134568095D01*
X185398096Y-134710952D01*
X184826667Y-135282381D01*
X185445715Y-135282381D01*
X165593334Y-151282381D02*
X165260000Y-150806190D01*
X165021905Y-151282381D02*
X165021905Y-150282381D01*
X165402858Y-150282381D01*
X165498096Y-150330000D01*
X165545715Y-150377619D01*
X165593334Y-150472857D01*
X165593334Y-150615714D01*
X165545715Y-150710952D01*
X165498096Y-150758571D01*
X165402858Y-150806190D01*
X165021905Y-150806190D01*
X165926667Y-150282381D02*
X166545715Y-150282381D01*
X166212381Y-150663333D01*
X166355239Y-150663333D01*
X166450477Y-150710952D01*
X166498096Y-150758571D01*
X166545715Y-150853810D01*
X166545715Y-151091905D01*
X166498096Y-151187143D01*
X166450477Y-151234762D01*
X166355239Y-151282381D01*
X166069524Y-151282381D01*
X165974286Y-151234762D01*
X165926667Y-151187143D01*
X170382534Y-127658881D02*
X170049200Y-127182690D01*
X169811105Y-127658881D02*
X169811105Y-126658881D01*
X170192058Y-126658881D01*
X170287296Y-126706500D01*
X170334915Y-126754119D01*
X170382534Y-126849357D01*
X170382534Y-126992214D01*
X170334915Y-127087452D01*
X170287296Y-127135071D01*
X170192058Y-127182690D01*
X169811105Y-127182690D01*
X171239677Y-126992214D02*
X171239677Y-127658881D01*
X171001581Y-126611262D02*
X170763486Y-127325548D01*
X171382534Y-127325548D01*
X179318221Y-123718225D02*
X180127745Y-123718225D01*
X180222983Y-123670606D01*
X180270602Y-123622987D01*
X180318221Y-123527749D01*
X180318221Y-123337272D01*
X180270602Y-123242034D01*
X180222983Y-123194415D01*
X180127745Y-123146796D01*
X179318221Y-123146796D01*
X179318221Y-122242034D02*
X179318221Y-122432511D01*
X179365840Y-122527749D01*
X179413459Y-122575368D01*
X179556316Y-122670606D01*
X179746792Y-122718225D01*
X180127745Y-122718225D01*
X180222983Y-122670606D01*
X180270602Y-122622987D01*
X180318221Y-122527749D01*
X180318221Y-122337272D01*
X180270602Y-122242034D01*
X180222983Y-122194415D01*
X180127745Y-122146796D01*
X179889650Y-122146796D01*
X179794411Y-122194415D01*
X179746792Y-122242034D01*
X179699173Y-122337272D01*
X179699173Y-122527749D01*
X179746792Y-122622987D01*
X179794411Y-122670606D01*
X179889650Y-122718225D01*
X181782381Y-139571905D02*
X182591905Y-139571905D01*
X182687143Y-139524286D01*
X182734762Y-139476667D01*
X182782381Y-139381429D01*
X182782381Y-139190952D01*
X182734762Y-139095714D01*
X182687143Y-139048095D01*
X182591905Y-139000476D01*
X181782381Y-139000476D01*
X181782381Y-138619524D02*
X181782381Y-137952857D01*
X182782381Y-138381429D01*
X83685795Y-133290661D02*
X83685795Y-134100185D01*
X83733414Y-134195423D01*
X83781033Y-134243042D01*
X83876271Y-134290661D01*
X84066748Y-134290661D01*
X84161986Y-134243042D01*
X84209605Y-134195423D01*
X84257224Y-134100185D01*
X84257224Y-133290661D01*
X84876271Y-133719232D02*
X84781033Y-133671613D01*
X84733414Y-133623994D01*
X84685795Y-133528756D01*
X84685795Y-133481137D01*
X84733414Y-133385899D01*
X84781033Y-133338280D01*
X84876271Y-133290661D01*
X85066748Y-133290661D01*
X85161986Y-133338280D01*
X85209605Y-133385899D01*
X85257224Y-133481137D01*
X85257224Y-133528756D01*
X85209605Y-133623994D01*
X85161986Y-133671613D01*
X85066748Y-133719232D01*
X84876271Y-133719232D01*
X84781033Y-133766851D01*
X84733414Y-133814470D01*
X84685795Y-133909709D01*
X84685795Y-134100185D01*
X84733414Y-134195423D01*
X84781033Y-134243042D01*
X84876271Y-134290661D01*
X85066748Y-134290661D01*
X85161986Y-134243042D01*
X85209605Y-134195423D01*
X85257224Y-134100185D01*
X85257224Y-133909709D01*
X85209605Y-133814470D01*
X85161986Y-133766851D01*
X85066748Y-133719232D01*
X114808095Y-123360381D02*
X114808095Y-124169905D01*
X114855714Y-124265143D01*
X114903333Y-124312762D01*
X114998571Y-124360381D01*
X115189048Y-124360381D01*
X115284286Y-124312762D01*
X115331905Y-124265143D01*
X115379524Y-124169905D01*
X115379524Y-123360381D01*
X115903333Y-124360381D02*
X116093809Y-124360381D01*
X116189048Y-124312762D01*
X116236667Y-124265143D01*
X116331905Y-124122286D01*
X116379524Y-123931810D01*
X116379524Y-123550857D01*
X116331905Y-123455619D01*
X116284286Y-123408000D01*
X116189048Y-123360381D01*
X115998571Y-123360381D01*
X115903333Y-123408000D01*
X115855714Y-123455619D01*
X115808095Y-123550857D01*
X115808095Y-123788952D01*
X115855714Y-123884190D01*
X115903333Y-123931810D01*
X115998571Y-123979429D01*
X116189048Y-123979429D01*
X116284286Y-123931810D01*
X116331905Y-123884190D01*
X116379524Y-123788952D01*
X117098381Y-145256095D02*
X117907905Y-145256095D01*
X118003143Y-145208476D01*
X118050762Y-145160857D01*
X118098381Y-145065619D01*
X118098381Y-144875142D01*
X118050762Y-144779904D01*
X118003143Y-144732285D01*
X117907905Y-144684666D01*
X117098381Y-144684666D01*
X118098381Y-143684666D02*
X118098381Y-144256095D01*
X118098381Y-143970381D02*
X117098381Y-143970381D01*
X117241238Y-144065619D01*
X117336476Y-144160857D01*
X117384095Y-144256095D01*
X117098381Y-143065619D02*
X117098381Y-142970380D01*
X117146000Y-142875142D01*
X117193619Y-142827523D01*
X117288857Y-142779904D01*
X117479333Y-142732285D01*
X117717429Y-142732285D01*
X117907905Y-142779904D01*
X118003143Y-142827523D01*
X118050762Y-142875142D01*
X118098381Y-142970380D01*
X118098381Y-143065619D01*
X118050762Y-143160857D01*
X118003143Y-143208476D01*
X117907905Y-143256095D01*
X117717429Y-143303714D01*
X117479333Y-143303714D01*
X117288857Y-143256095D01*
X117193619Y-143208476D01*
X117146000Y-143160857D01*
X117098381Y-143065619D01*
X61651905Y-147963481D02*
X61651905Y-148773005D01*
X61699524Y-148868243D01*
X61747143Y-148915862D01*
X61842381Y-148963481D01*
X62032858Y-148963481D01*
X62128096Y-148915862D01*
X62175715Y-148868243D01*
X62223334Y-148773005D01*
X62223334Y-147963481D01*
X63223334Y-148963481D02*
X62651905Y-148963481D01*
X62937619Y-148963481D02*
X62937619Y-147963481D01*
X62842381Y-148106338D01*
X62747143Y-148201576D01*
X62651905Y-148249195D01*
X64175715Y-148963481D02*
X63604286Y-148963481D01*
X63890000Y-148963481D02*
X63890000Y-147963481D01*
X63794762Y-148106338D01*
X63699524Y-148201576D01*
X63604286Y-148249195D01*
X177442061Y-152042975D02*
X178251585Y-152042975D01*
X178346823Y-151995356D01*
X178394442Y-151947737D01*
X178442061Y-151852499D01*
X178442061Y-151662022D01*
X178394442Y-151566784D01*
X178346823Y-151519165D01*
X178251585Y-151471546D01*
X177442061Y-151471546D01*
X178442061Y-150471546D02*
X178442061Y-151042975D01*
X178442061Y-150757261D02*
X177442061Y-150757261D01*
X177584918Y-150852499D01*
X177680156Y-150947737D01*
X177727775Y-151042975D01*
X177537299Y-150090594D02*
X177489680Y-150042975D01*
X177442061Y-149947737D01*
X177442061Y-149709641D01*
X177489680Y-149614403D01*
X177537299Y-149566784D01*
X177632537Y-149519165D01*
X177727775Y-149519165D01*
X177870632Y-149566784D01*
X178442061Y-150138213D01*
X178442061Y-149519165D01*
X215080381Y-139785523D02*
X215794667Y-139785523D01*
X215937524Y-139833143D01*
X216032762Y-139928381D01*
X216080381Y-140071238D01*
X216080381Y-140166476D01*
X216080381Y-138785523D02*
X216080381Y-139356952D01*
X216080381Y-139071238D02*
X215080381Y-139071238D01*
X215223238Y-139166476D01*
X215318476Y-139261714D01*
X215366095Y-139356952D01*
X215080381Y-138452190D02*
X215080381Y-137833142D01*
X215461333Y-138166476D01*
X215461333Y-138023618D01*
X215508952Y-137928380D01*
X215556571Y-137880761D01*
X215651810Y-137833142D01*
X215889905Y-137833142D01*
X215985143Y-137880761D01*
X216032762Y-137928380D01*
X216080381Y-138023618D01*
X216080381Y-138309333D01*
X216032762Y-138404571D01*
X215985143Y-138452190D01*
X195212095Y-67578381D02*
X195212095Y-68387905D01*
X195259714Y-68483143D01*
X195307333Y-68530762D01*
X195402571Y-68578381D01*
X195593048Y-68578381D01*
X195688286Y-68530762D01*
X195735905Y-68483143D01*
X195783524Y-68387905D01*
X195783524Y-67578381D01*
X196164476Y-67578381D02*
X196783524Y-67578381D01*
X196450190Y-67959333D01*
X196593048Y-67959333D01*
X196688286Y-68006952D01*
X196735905Y-68054571D01*
X196783524Y-68149810D01*
X196783524Y-68387905D01*
X196735905Y-68483143D01*
X196688286Y-68530762D01*
X196593048Y-68578381D01*
X196307333Y-68578381D01*
X196212095Y-68530762D01*
X196164476Y-68483143D01*
X51224381Y-54149523D02*
X51938667Y-54149523D01*
X52081524Y-54197143D01*
X52176762Y-54292381D01*
X52224381Y-54435238D01*
X52224381Y-54530476D01*
X52224381Y-53149523D02*
X52224381Y-53720952D01*
X52224381Y-53435238D02*
X51224381Y-53435238D01*
X51367238Y-53530476D01*
X51462476Y-53625714D01*
X51510095Y-53720952D01*
X51557714Y-52292380D02*
X52224381Y-52292380D01*
X51176762Y-52530476D02*
X51891048Y-52768571D01*
X51891048Y-52149523D01*
M02*
