M48
;DRILL file {KiCad 4.0.7} date 05/23/18 22:08:41
;FORMAT={-:-/ absolute / metric / decimal}
FMAT,2
METRIC,TZ
T1C0.400
T2C0.762
T3C0.800
T4C1.000
T5C1.001
T6C1.200
%
G90
G05
M71
T1
X54.315Y-138.247
X57.892Y-138.247
X62.21Y-89.79
X62.23Y-122.936
X66.726Y-56.388
X67.056Y-118.618
X71.82Y-102.53
X73.584Y-56.388
X74.854Y-75.209
X79.248Y-118.872
X79.25Y-68.71
X80.518Y-154.746
X80.7Y-113.92
X81.788Y-157.988
X82.22Y-116.972
X84.328Y-93.98
X85.6Y-76.07
X90.721Y-136.863
X90.932Y-93.726
X93.472Y-153.416
X97.536Y-153.416
X105.156Y-132.842
X105.41Y-152.654
X105.41Y-156.718
X111.506Y-52.921
X111.684Y-56.134
X115.57Y-77.216
X116.586Y-142.24
X118.618Y-140.208
X123.952Y-149.352
X130.927Y-115.504
X135.504Y-155.316
X139.7Y-124.46
X141.224Y-118.618
X141.6Y-129.474
X141.823Y-132.38
X141.935Y-113.548
X142.215Y-115.727
X143.002Y-122.428
X143.51Y-123.698
X143.835Y-108.742
X143.891Y-80.819
X146.35Y-111.928
X147.32Y-156.464
X147.828Y-125.222
X148.082Y-137.414
X148.113Y-95.778
X148.25Y-98.349
X148.336Y-103.886
X149.085Y-83.299
X149.367Y-81.026
X151.13Y-154.94
X151.638Y-120.904
X151.638Y-139.192
X152.108Y-86.855
X152.578Y-67.564
X153.502Y-85.385
X153.67Y-62.319
X153.67Y-114.554
X154.178Y-140.97
X154.432Y-100.076
X155.702Y-153.416
X156.464Y-117.348
X157.226Y-119.126
X157.358Y-109.804
X157.48Y-140.716
X158.242Y-122.936
X158.496Y-134.112
X159.174Y-112.486
X159.258Y-100.584
X159.512Y-137.668
X161.3Y-97.815
X161.437Y-93.543
X162.276Y-109.916
X163.068Y-151.892
X165.768Y-112.151
X166.116Y-97.536
X170.688Y-99.314
X171.196Y-148.844
X172.974Y-153.162
X175.768Y-145.288
X182.118Y-100.838
X182.88Y-150.368
X183.134Y-151.638
X183.22Y-133.75
X183.642Y-120.904
X186.436Y-150.876
X186.69Y-99.314
X186.73Y-140.86
X188.214Y-149.098
X188.214Y-156.718
X189.375Y-121.013
X189.738Y-155.448
X190.23Y-142.
X190.246Y-152.146
X191.48Y-148.59
X192.278Y-152.654
X193.294Y-149.098
T2
X55.232Y-115.722
X55.84Y-135.261
X57.772Y-115.722
X58.38Y-135.261
X60.312Y-115.722
X60.92Y-135.261
X62.852Y-115.722
X63.46Y-135.261
X65.392Y-115.722
X66.Y-135.261
X67.932Y-115.722
X68.54Y-135.261
X70.472Y-115.722
X73.012Y-115.722
X74.04Y-151.73
X74.22Y-138.86
X74.22Y-147.86
X75.552Y-115.722
X78.092Y-115.722
X80.628Y-147.136
X82.788Y-128.738
X83.04Y-151.73
X83.168Y-147.136
X85.421Y-133.08
X86.012Y-155.996
X86.09Y-151.09
X86.5Y-118.31
X86.614Y-147.066
X87.961Y-133.08
X89.04Y-118.31
X89.154Y-147.066
X91.58Y-118.31
X91.788Y-128.738
X92.186Y-142.708
X92.616Y-134.66
X94.12Y-118.31
X94.194Y-138.336
X94.194Y-147.336
X95.012Y-155.996
X95.09Y-151.09
X96.66Y-118.31
X99.2Y-118.31
X99.474Y-128.818
X99.568Y-138.684
X100.878Y-147.304
X100.878Y-156.304
X101.186Y-142.708
X101.616Y-134.66
X101.74Y-118.31
X102.108Y-138.684
X104.28Y-118.31
X108.474Y-128.818
X109.204Y-151.598
X109.204Y-156.678
X111.412Y-117.388
X112.014Y-136.906
X114.554Y-136.906
X116.84Y-123.444
X118.062Y-145.273
X118.062Y-147.813
X118.204Y-151.598
X118.204Y-156.678
X119.38Y-123.444
X120.412Y-117.388
X122.134Y-136.558
X122.134Y-145.558
X125.382Y-152.186
X125.92Y-140.424
X125.959Y-144.043
X125.959Y-147.663
X126.149Y-133.49
X128.46Y-140.424
X128.499Y-144.043
X128.499Y-147.663
X128.689Y-133.49
X131.496Y-125.362
X134.036Y-125.362
X134.382Y-152.186
X141.696Y-138.623
X143.319Y-143.718
X143.319Y-152.718
X144.236Y-138.623
X144.381Y-130.812
X144.52Y-117.957
X144.52Y-126.957
X146.863Y-85.17
X146.863Y-87.71
X146.863Y-90.25
X146.863Y-92.79
X147.063Y-145.184
X150.838Y-135.128
X153.378Y-135.128
X153.381Y-130.812
X153.543Y-149.327
X156.063Y-145.184
X156.083Y-149.327
X161.26Y-154.33
X161.9Y-134.11
X161.9Y-143.11
X162.01Y-122.37
X162.01Y-131.37
X166.049Y-130.707
X167.015Y-119.36
X167.015Y-121.9
X168.24Y-148.19
X169.37Y-135.26
X169.37Y-137.8
X170.26Y-154.33
X175.049Y-130.707
X175.56Y-60.54
X175.56Y-63.08
X175.56Y-65.62
X175.56Y-68.16
X175.56Y-70.7
X175.56Y-73.24
X177.24Y-148.19
X180.16Y-131.33
X180.513Y-123.937
X180.513Y-126.477
X183.17Y-139.57
X183.17Y-142.11
X184.656Y-118.626
X184.656Y-127.626
X187.99Y-135.11
X187.99Y-144.11
X189.16Y-131.33
X209.69Y-81.96
X209.69Y-87.04
X209.69Y-92.12
X209.74Y-97.28
X209.74Y-102.36
X209.74Y-107.44
X209.8Y-112.81
X209.8Y-117.89
X209.8Y-122.97
X209.85Y-128.23
X209.85Y-133.31
X209.85Y-138.39
X209.85Y-143.77
X209.85Y-148.85
X209.85Y-153.93
T3
X80.638Y-136.168
X80.638Y-138.708
X80.638Y-141.248
X80.638Y-143.788
X88.258Y-136.168
X88.258Y-138.708
X88.258Y-141.248
X88.258Y-143.788
X107.696Y-140.208
X107.696Y-147.828
X110.236Y-140.208
X110.236Y-147.828
X111.76Y-126.238
X111.76Y-128.778
X111.76Y-131.318
X111.76Y-133.858
X112.776Y-140.208
X112.776Y-147.828
X115.316Y-140.208
X115.316Y-147.828
X119.38Y-126.238
X119.38Y-128.778
X119.38Y-131.318
X119.38Y-133.858
X131.318Y-128.422
X131.318Y-130.962
X131.318Y-133.502
X131.318Y-136.042
X131.318Y-138.582
X131.318Y-141.122
X131.318Y-143.662
X131.318Y-146.202
X138.938Y-128.422
X138.938Y-130.962
X138.938Y-133.502
X138.938Y-136.042
X138.938Y-138.582
X138.938Y-141.122
X138.938Y-143.662
X138.938Y-146.202
X161.29Y-107.569
X161.29Y-115.189
X163.83Y-107.569
X163.83Y-115.189
X166.37Y-107.569
X166.37Y-115.189
X168.91Y-107.569
X168.91Y-115.189
X169.916Y-119.146
X169.916Y-126.766
X171.45Y-107.569
X171.45Y-115.189
X172.38Y-135.
X172.38Y-142.62
X172.456Y-119.146
X172.456Y-126.766
X173.99Y-107.569
X173.99Y-115.189
X174.92Y-135.
X174.92Y-142.62
X174.996Y-119.146
X174.996Y-126.766
X176.53Y-107.569
X176.53Y-115.189
X177.46Y-135.
X177.46Y-142.62
X177.536Y-119.146
X177.536Y-126.766
X179.07Y-107.569
X179.07Y-115.189
X180.Y-135.
X180.Y-142.62
X180.32Y-146.995
X180.32Y-154.615
X182.86Y-146.995
X182.86Y-154.615
X185.4Y-146.995
X185.4Y-154.615
X187.94Y-146.995
X187.94Y-154.615
T4
X55.36Y-54.76
X57.9Y-54.76
X60.44Y-54.76
X61.87Y-109.97
X64.41Y-109.97
X66.95Y-109.97
X69.49Y-109.97
X72.03Y-109.97
X74.57Y-109.97
X77.11Y-109.97
X79.65Y-109.97
X82.19Y-109.97
X84.73Y-109.97
X137.079Y-66.899
X137.079Y-69.439
X137.079Y-71.979
X137.079Y-74.519
X137.079Y-77.059
X137.079Y-79.599
X137.079Y-82.139
X137.079Y-84.679
X137.079Y-87.219
X137.079Y-89.759
X137.079Y-92.299
X137.079Y-94.839
X137.079Y-97.379
X137.079Y-99.919
X137.079Y-102.459
X137.079Y-104.999
X137.079Y-107.539
X137.079Y-110.079
X139.619Y-66.899
X139.619Y-69.439
X139.619Y-71.979
X139.619Y-74.519
X139.619Y-77.059
X139.619Y-79.599
X139.619Y-82.139
X139.619Y-84.679
X139.619Y-87.219
X139.619Y-89.759
X139.619Y-92.299
X139.619Y-94.839
X139.619Y-97.379
X139.619Y-99.919
X139.619Y-102.459
X139.619Y-104.999
X139.619Y-107.539
X139.619Y-110.079
T5
X61.875Y-110.009
X64.415Y-110.009
X66.955Y-110.009
X69.495Y-110.009
X71.019Y-61.749
X71.019Y-61.749
X72.035Y-110.009
X73.559Y-61.749
X73.559Y-61.749
X74.575Y-110.009
X76.099Y-61.749
X76.099Y-61.749
X77.115Y-110.009
X78.639Y-61.749
X78.639Y-61.749
X79.655Y-110.009
X81.179Y-61.749
X81.179Y-61.749
X82.195Y-110.009
X83.719Y-61.749
X83.719Y-61.749
X84.735Y-110.009
X86.259Y-61.749
X86.259Y-61.749
X88.799Y-61.749
X88.799Y-61.749
X88.799Y-110.009
X88.809Y-109.999
X91.339Y-110.009
X91.349Y-109.999
X93.879Y-61.749
X93.879Y-61.749
X93.879Y-110.009
X93.889Y-109.999
X96.419Y-61.749
X96.419Y-61.749
X96.419Y-110.009
X96.429Y-109.999
X98.959Y-61.749
X98.959Y-61.749
X98.959Y-110.009
X98.969Y-109.999
X101.499Y-61.749
X101.499Y-61.749
X101.499Y-110.009
X101.509Y-109.999
X104.039Y-61.749
X104.039Y-61.749
X104.039Y-110.009
X104.049Y-109.999
X106.579Y-61.749
X106.579Y-61.749
X106.579Y-110.009
X106.589Y-109.999
X109.119Y-61.749
X109.119Y-61.749
X111.659Y-61.749
X111.659Y-61.749
X111.659Y-110.009
X111.669Y-110.009
X114.199Y-110.009
X114.209Y-110.009
X116.739Y-61.749
X116.739Y-61.749
X116.739Y-110.009
X116.749Y-110.009
X119.279Y-61.749
X119.279Y-61.749
X119.279Y-110.009
X119.289Y-110.009
X121.819Y-61.749
X121.819Y-61.749
X121.819Y-110.009
X121.829Y-110.009
X124.359Y-61.749
X124.359Y-61.749
X124.359Y-110.009
X124.369Y-110.009
X126.899Y-61.749
X126.899Y-61.749
X126.899Y-110.009
X126.909Y-110.009
X129.439Y-61.749
X129.439Y-61.749
X129.439Y-110.009
X129.449Y-110.009
X131.979Y-61.749
X131.979Y-61.749
X134.519Y-61.749
X134.519Y-61.749
X137.059Y-66.829
X137.059Y-69.369
X137.059Y-71.909
X137.059Y-74.449
X137.059Y-76.989
X137.059Y-79.529
X137.059Y-82.069
X137.059Y-84.609
X137.059Y-87.149
X137.059Y-89.689
X137.059Y-92.229
X137.059Y-94.769
X137.059Y-97.309
X137.059Y-99.849
X137.059Y-102.389
X137.059Y-104.929
X137.059Y-107.469
X137.059Y-110.009
X139.599Y-66.829
X139.599Y-69.369
X139.599Y-71.909
X139.599Y-74.449
X139.599Y-76.989
X139.599Y-79.529
X139.599Y-82.069
X139.599Y-84.609
X139.599Y-87.149
X139.599Y-89.689
X139.599Y-92.229
X139.599Y-94.769
X139.599Y-97.309
X139.599Y-99.849
X139.599Y-102.389
X139.599Y-104.929
X139.599Y-107.469
X139.599Y-110.009
T6
X67.98Y-151.55
X70.52Y-151.55
X121.412Y-149.606
X121.412Y-152.146
X161.89Y-148.09
X164.43Y-148.09
T0
M30
